<?xml version="1.0" standalone="no"?>
<!DOCTYPE svg PUBLIC "-//W3C//DTD SVG 1.1//EN" "http://www.w3.org/Graphics/SVG/1.1/DTD/svg11.dtd" >
<svg xmlns="http://www.w3.org/2000/svg" xmlns:xlink="http://www.w3.org/1999/xlink" version="1.1">
<metadata>
Created by FontForge 20170731 at Thu Oct 18 18:47:56 2012
 By Aleksey,,,
2012 Daniel Utz published by FSI FontShop International GmbH
</metadata>
<defs>
<font id="Zileetzmtrmjycykknfoirvvvns" horiz-adv-x="553" >
  <font-face 
    font-family="Zileetzmtrmjycykknfoirvvvns"
    font-weight="700"
    font-stretch="normal"
    units-per-em="1000"
    panose-1="2 11 8 4 2 1 1 1 1 2"
    ascent="777"
    descent="-223"
    x-height="507"
    cap-height="711"
    bbox="-656 -224 1191 980"
    underline-thickness="65"
    underline-position="-178"
    unicode-range="U+0020-FEFF"
  />
<missing-glyph 
d="M400 701q29 0 47.5 -17.5t18.5 -45.5v-574q0 -29 -18.5 -46.5t-47.5 -17.5h-247q-29 0 -47.5 17.5t-18.5 46.5v574q0 28 18.5 45.5t47.5 17.5h247zM190 603v-505h173v505h-173z" />
    <glyph glyph-name="fi" unicode="fi" horiz-adv-x="567" 
d="M223 711q17 0 30.5 -1.5t29.5 -4.5q18 -4 30 -15t12 -30q0 -20 -13.5 -32t-31.5 -12q-13 0 -23 2.5t-28 2.5q-26 0 -40 -15.5t-14 -36.5v-62h99q24 0 37.5 -14t13.5 -35t-13.5 -35t-37.5 -14h-99v-368q0 -23 -15 -37t-36 -14q-23 0 -37.5 14t-14.5 37v518q0 73 41 112.5
t110 39.5zM444 517q23 0 37 -14t14 -37v-425q0 -23 -14 -37t-37 -14t-37.5 14t-14.5 37v425q0 23 14.5 37t37.5 14zM444 711q25 0 42.5 -17.5t17.5 -42.5q0 -26 -17.5 -43.5t-42.5 -17.5t-42.5 17.5t-17.5 43.5q0 25 17.5 42.5t42.5 17.5z" />
    <glyph glyph-name="fl" unicode="fl" horiz-adv-x="579" 
d="M223 711q17 0 30.5 -1.5t29.5 -4.5q18 -4 30 -15t12 -30q0 -20 -13.5 -32t-31.5 -12q-13 0 -23 2.5t-28 2.5q-26 0 -40 -15.5t-14 -36.5v-62h99q24 0 37.5 -14t13.5 -35t-13.5 -35t-37.5 -14h-99v-368q0 -23 -15 -37t-36 -14q-23 0 -37.5 14t-14.5 37v518q0 73 41 112.5
t110 39.5zM456 711q22 0 36.5 -14t14.5 -37v-619q0 -23 -14.5 -37t-36.5 -14q-23 0 -37.5 14t-14.5 37v619q0 23 14.5 37t37.5 14z" />
    <glyph glyph-name=".notdef" 
d="M400 701q29 0 47.5 -17.5t18.5 -45.5v-574q0 -29 -18.5 -46.5t-47.5 -17.5h-247q-29 0 -47.5 17.5t-18.5 46.5v574q0 28 18.5 45.5t47.5 17.5h247zM190 603v-505h173v505h-173z" />
    <glyph glyph-name=".null" horiz-adv-x="0" 
 />
    <glyph glyph-name="nonmarkingreturn" horiz-adv-x="257" 
 />
    <glyph glyph-name="space" unicode=" " horiz-adv-x="257" 
 />
    <glyph glyph-name="exclam" unicode="!" horiz-adv-x="395" 
d="M197 711q23 0 37.5 -14t14.5 -37v-399q0 -23 -14.5 -37t-37.5 -14q-22 0 -36.5 14t-14.5 37v399q0 23 14.5 37t36.5 14zM198 128q28 0 48.5 -20t20.5 -49q0 -28 -20.5 -48.5t-48.5 -20.5q-29 0 -49.5 20.5t-20.5 48.5q0 29 20.5 49t49.5 20z" />
    <glyph glyph-name="quotedbl" unicode="&#x22;" horiz-adv-x="461" 
d="M318 711q23 0 37.5 -14t14.5 -37v-160q0 -23 -14.5 -37t-37.5 -14q-22 0 -36.5 14t-14.5 37v160q0 23 14.5 37t36.5 14zM142 711q23 0 37.5 -14t14.5 -37v-160q0 -23 -14.5 -37t-37.5 -14q-22 0 -36.5 14t-14.5 37v160q0 23 14.5 37t36.5 14z" />
    <glyph glyph-name="numbersign" unicode="#" 
d="M443 711q20 0 32 -13t12 -29q0 -7 -2 -17l-26 -133h42q20 0 32 -13t12 -33t-14 -33.5t-35 -13.5h-55l-29 -151h42q20 0 31.5 -12.5t11.5 -32.5q0 -21 -14 -34.5t-35 -13.5h-54l-28 -144q-5 -28 -21 -38t-33 -10q-20 0 -32 13t-12 29q0 7 2 17l26 133h-105l-28 -144
q-5 -28 -21 -38t-33 -10q-20 0 -32 13t-12 29q0 7 2 17l26 133h-42q-20 0 -32 12.5t-12 32.5q0 21 14.5 34.5t34.5 13.5h55l29 151h-41q-20 0 -32 12.5t-12 32.5t14 34t35 14h54l28 144q6 29 21.5 38.5t32.5 9.5q20 0 32 -13t12 -29q0 -7 -2 -17l-26 -133h105l28 144
q6 29 21.5 38.5t32.5 9.5zM238 426l-29 -151h105l29 151h-105z" />
    <glyph glyph-name="dollar" unicode="$" horiz-adv-x="525" 
d="M275 841q22 0 36.5 -14t14.5 -37v-83q32 -4 59 -12.5t52 -20.5q30 -16 30 -48q0 -20 -13 -34t-33 -14q-12 0 -21 3.5t-23 8.5q-32 11 -58 17t-62 6q-21 0 -41 -5.5t-35.5 -16t-25 -26.5t-9.5 -36q0 -36 20 -56.5t63 -40.5l117 -54q25 -12 50 -27t45 -37t32.5 -53.5
t12.5 -74.5q0 -75 -44 -123.5t-116 -65.5v-85q0 -23 -14.5 -37t-36.5 -14q-23 0 -37.5 14t-14.5 37v79q-82 6 -151 38q-32 15 -32 48q0 23 13.5 36.5t34.5 13.5q11 0 19.5 -2.5t25.5 -9.5q26 -11 56 -19t69 -8q54 0 88 24t34 71q0 41 -23 63t-68 44l-122 57q-26 12 -49 28.5
t-40 38t-27 49t-10 62.5q0 76 49.5 124.5t132.5 59.5v81q0 23 14.5 37t37.5 14z" />
    <glyph glyph-name="percent" unicode="%" horiz-adv-x="911" 
d="M677 711q18 0 29 -11.5t11 -27.5q0 -13 -8 -24l-439 -639q-13 -19 -34 -19q-17 0 -28.5 11.5t-11.5 27.5q0 13 8 24l439 639q7 10 16 14.5t18 4.5zM223 628q-61 0 -61 -66v-79q0 -64 61 -64t61 64v79q0 66 -61 66zM223 711q68 0 107 -39t39 -105v-87q0 -66 -39.5 -104.5
t-106.5 -38.5q-68 0 -107 38.5t-39 104.5v87q0 66 39 105t107 39zM689 282q-61 0 -61 -66v-79q0 -65 61 -65t61 65v79q0 66 -61 66zM689 365q68 0 107 -39t39 -105v-87q0 -67 -40 -105.5t-106 -38.5q-68 0 -107 39t-39 105v87q0 66 39 105t107 39z" />
    <glyph glyph-name="ampersand" unicode="&#x26;" horiz-adv-x="698" 
d="M297 711q78 0 122.5 -44.5t44.5 -117.5q0 -21 -13 -34.5t-34 -13.5t-34.5 13.5t-13.5 34.5q0 31 -18.5 51t-53.5 20q-32 0 -53.5 -19.5t-21.5 -54.5q0 -18 9.5 -36.5t25.5 -35.5l225 -242l79 90q15 17 37 17q21 0 34 -13t13 -34q0 -20 -12 -33l-87 -96l85 -92
q14 -15 14 -33q0 -22 -13 -35t-34 -13q-20 0 -34 14l-82 88q-44 -47 -96 -74.5t-116 -27.5q-39 0 -75 14t-63.5 39t-43.5 60t-16 77q0 68 35.5 117t101.5 92q-44 47 -63 83t-19 73t12 68t34.5 52.5t54 33.5t69.5 12zM274 319q-17 -11 -35.5 -25t-33.5 -31.5t-25 -37.5
t-10 -44q0 -47 29 -73.5t69 -26.5q45 0 82.5 23t68.5 57z" />
    <glyph glyph-name="quotesingle" unicode="'" horiz-adv-x="285" 
d="M142 711q23 0 37.5 -14t14.5 -37v-160q0 -23 -14.5 -37t-37.5 -14q-22 0 -36.5 14t-14.5 37v160q0 23 14.5 37t36.5 14z" />
    <glyph glyph-name="parenleft" unicode="(" horiz-adv-x="321" 
d="M202 779q23 0 37 -14t14 -37q0 -5 -1 -10.5t-5 -13.5q-41 -84 -64 -184t-23 -203t23 -203.5t65 -185.5q5 -12 5 -22q0 -24 -14 -37.5t-37 -13.5q-14 0 -27 8t-20 22q-45 97 -71 207t-26 225t25.5 225t71.5 207q7 15 20 22.5t27 7.5z" />
    <glyph glyph-name="parenright" unicode=")" horiz-adv-x="321" 
d="M119 779q14 0 27 -8t20 -22q45 -97 71 -207t26 -225t-25.5 -225t-71.5 -207q-7 -15 -20 -22.5t-27 -7.5q-23 0 -37 14t-14 37q0 5 1 10.5t5 13.5q41 84 64 184t23 203t-23 203.5t-65 185.5q-5 12 -5 22q0 24 14 37.5t37 13.5z" />
    <glyph glyph-name="asterisk" unicode="*" horiz-adv-x="463" 
d="M232 711q18 0 30.5 -12.5t12.5 -30.5v-83l77 25q5 2 8 2h7q21 0 32 -13.5t11 -28.5q0 -14 -8 -25t-22 -16l-78 -26l48 -67q8 -11 8 -25q0 -17 -11.5 -30.5t-30.5 -13.5q-22 0 -35 19l-49 67l-49 -67q-13 -19 -35 -19q-17 0 -29.5 13t-12.5 31q0 14 8 25l48 67l-78 26
q-14 5 -22.5 16t-8.5 25q0 16 11.5 29t31.5 13q6 0 16 -2l77 -25v83q0 18 12.5 30.5t30.5 12.5z" />
    <glyph glyph-name="plus" unicode="+" 
d="M277 517q23 0 37.5 -14t14.5 -37v-162h139q21 0 34.5 -14t13.5 -35t-13.5 -35t-34.5 -14h-139v-165q0 -23 -14.5 -37t-37.5 -14q-22 0 -36.5 14t-14.5 37v165h-141q-21 0 -34.5 14t-13.5 35t13.5 35t34.5 14h141v162q0 23 14.5 37t36.5 14z" />
    <glyph glyph-name="comma" unicode="," horiz-adv-x="245" 
d="M141 130q20 0 35.5 -14t15.5 -37q0 -7 -4 -19l-54 -157q-5 -16 -18.5 -25.5t-30.5 -9.5q-21 0 -35.5 14t-14.5 37q0 10 3 19l54 157q13 35 49 35z" />
    <glyph glyph-name="hyphen" unicode="-" horiz-adv-x="449" 
d="M338 346q22 0 35 -14t13 -34q0 -21 -13 -35t-35 -14h-227q-22 0 -35 14t-13 35q0 20 13 34t35 14h227z" />
    <glyph glyph-name="period" unicode="." horiz-adv-x="258" 
d="M123 128q28 0 48.5 -20t20.5 -49q0 -28 -20.5 -48.5t-48.5 -20.5q-29 0 -49.5 20.5t-20.5 48.5q0 29 20.5 49t49.5 20z" />
    <glyph glyph-name="slash" unicode="/" horiz-adv-x="567" 
d="M408 711q23 0 36.5 -15t13.5 -35q0 -10 -4 -21l-247 -618q-6 -14 -18.5 -23t-29.5 -9q-23 0 -36.5 15t-13.5 35q0 10 4 21l246 617q6 16 19 24.5t30 8.5z" />
    <glyph glyph-name="zero" unicode="0" 
d="M277 711q103 0 161.5 -56.5t58.5 -162.5v-283q0 -50 -15 -90t-43.5 -69t-69.5 -44.5t-92 -15.5q-50 0 -90.5 15t-69.5 43t-45 69t-16 92v283q0 49 15 89.5t43.5 69.5t69.5 44.5t93 15.5zM277 617q-57 0 -87.5 -30t-30.5 -87v-298q0 -57 30.5 -87.5t87.5 -30.5t87 30.5
t30 87.5v298q0 57 -30 87t-87 30z" />
    <glyph glyph-name="one" unicode="1" 
d="M308 711q25 0 41 -16t16 -41v-613q0 -23 -14.5 -37t-36.5 -14q-23 0 -37.5 14t-14.5 37v540l-91 -51q-14 -9 -29 -9q-23 0 -36 13.5t-13 34.5q0 13 5.5 24t19.5 19l160 91q16 8 30 8z" />
    <glyph glyph-name="two" unicode="2" 
d="M254 711q99 0 157 -51t58 -142q0 -51 -20.5 -91.5t-51.5 -80.5l-192 -248h221q21 0 35 -14.5t14 -34.5q0 -21 -14 -35t-35 -14h-313q-24 0 -40.5 16.5t-16.5 39.5q0 21 14 39l244 306q18 23 34.5 49.5t16.5 61.5q0 52 -31 78.5t-80 26.5q-35 0 -62 -7.5t-60 -21.5
q-9 -4 -19 -4q-21 0 -34 13t-13 34q0 29 26 42q32 17 70 27.5t92 10.5z" />
    <glyph glyph-name="three" unicode="3" 
d="M253 711q49 0 88 -14t66 -40t41.5 -62t14.5 -80q0 -48 -22.5 -86.5t-61.5 -61.5q51 -26 77.5 -70t26.5 -98q0 -47 -16 -85.5t-45 -66t-71.5 -42.5t-94.5 -15q-59 0 -100 10t-73 26q-13 6 -20.5 17.5t-7.5 25.5q0 21 13.5 34t33.5 13q10 0 18 -4q15 -6 28.5 -11t29.5 -9
t35 -6t43 -2q59 0 91.5 30.5t32.5 85.5q0 51 -36 83t-94 32h-28q-21 0 -34.5 13.5t-13.5 33.5t13.5 34t34.5 14h28q50 0 80 28.5t30 75.5q0 48 -28 75.5t-82 27.5q-32 0 -59.5 -6t-63.5 -23q-6 -3 -10 -3.5t-9 -0.5q-20 0 -33.5 13t-13.5 34q0 13 6 24t18 17
q37 20 77.5 29.5t90.5 9.5z" />
    <glyph glyph-name="four" unicode="4" 
d="M257 711q22 0 35.5 -13.5t13.5 -35.5q0 -5 -1 -10t-3 -10l-137 -389h152v115q0 23 14.5 37t36.5 14q21 0 35.5 -14t14.5 -37v-115h54q21 0 34.5 -14t13.5 -34q0 -21 -13.5 -35t-34.5 -14h-54v-116q0 -22 -14.5 -36t-35.5 -14q-22 0 -36.5 14t-14.5 36v116h-215
q-23 0 -39.5 16t-16.5 39q0 12 4 21l162 450q5 14 17.5 21.5t27.5 7.5z" />
    <glyph glyph-name="five" unicode="5" 
d="M418 701q22 0 35.5 -14.5t13.5 -34.5t-13.5 -34.5t-35.5 -14.5h-234v-180q22 9 44 13t44 4q47 0 86 -15t67.5 -41.5t44.5 -63t16 -80.5v-49q0 -44 -16 -81t-44.5 -63.5t-67.5 -41.5t-86 -15q-58 0 -99 10t-73 26q-13 6 -21 18t-8 25q0 20 13 33.5t34 13.5q10 0 18 -4
q15 -6 29 -11.5t29 -9t33.5 -5.5t44.5 -2q50 0 80.5 29.5t30.5 77.5v49q0 48 -30 77t-81 29q-29 0 -51.5 -6t-51.5 -19q-17 -7 -31 -7q-25 0 -41 16t-16 41v268q0 27 17.5 44.5t43.5 17.5h276z" />
    <glyph glyph-name="six" unicode="6" 
d="M340 711q16 0 35.5 -1.5t38.5 -6.5q17 -5 26.5 -17t9.5 -30q0 -20 -13 -33t-33 -13q-5 0 -15 2q-23 5 -49 5q-50 0 -84 -13.5t-54 -40.5t-29 -67t-10 -93q23 23 55.5 33.5t61.5 10.5q43 0 81 -15t66.5 -41.5t44.5 -63.5t16 -81v-55q0 -44 -16 -81t-44 -63.5t-67.5 -41.5
t-85.5 -15q-47 0 -86 15t-67.5 41.5t-44.5 63.5t-16 81v200q0 58 11.5 115t42.5 102.5t85.5 74t139.5 28.5zM275 352q-50 0 -80.5 -28.5t-30.5 -76.5v-57q0 -48 30.5 -77t80.5 -29q49 0 79.5 29t30.5 77v57q0 48 -30.5 76.5t-79.5 28.5z" />
    <glyph glyph-name="seven" unicode="7" 
d="M436 701q25 0 41.5 -16t16.5 -42q0 -11 -5 -23l-249 -598q-13 -32 -47 -32q-23 0 -37.5 13.5t-14.5 37.5q0 9 5 22l224 540h-270q-23 0 -36 14.5t-13 34.5q0 21 13 35t36 14h336z" />
    <glyph glyph-name="eight" unicode="8" 
d="M277 711q46 0 84 -14t65 -40t41.5 -62t14.5 -79q0 -46 -22.5 -84.5t-59.5 -62.5q47 -26 72.5 -70.5t25.5 -96.5q0 -48 -16 -87.5t-45.5 -67t-70 -42.5t-89.5 -15t-89.5 15t-70 42.5t-45.5 67t-16 87.5q0 52 25 96.5t73 70.5q-38 24 -59.5 62.5t-21.5 84.5q0 43 14.5 79
t41.5 62t64.5 40t83.5 14zM277 319q-54 0 -86.5 -32t-32.5 -86q0 -55 32.5 -86t86.5 -31t86.5 31t32.5 86q0 54 -32.5 86t-86.5 32zM277 617q-46 0 -74 -27.5t-28 -73.5q0 -45 28.5 -73.5t73.5 -28.5t73.5 28.5t28.5 73.5q0 46 -28 73.5t-74 27.5z" />
    <glyph glyph-name="nine" unicode="9" 
d="M278 711q46 0 85.5 -15t67.5 -41.5t44 -63.5t16 -81v-200q0 -58 -11.5 -115t-42.5 -102.5t-85.5 -74t-139.5 -28.5q-16 0 -35 1.5t-38 6.5q-37 10 -37 47q0 20 13 33t34 13q5 0 15 -2q11 -2 22.5 -3.5t25.5 -1.5q51 0 84.5 13.5t54 40.5t29 67.5t9.5 93.5
q-23 -23 -55.5 -34t-61.5 -11q-44 0 -81.5 15t-66 41.5t-44.5 63.5t-16 81v55q0 44 16 81t44.5 63.5t67.5 41.5t86 15zM278 617q-50 0 -80.5 -29t-30.5 -77v-57q0 -48 30.5 -76.5t80.5 -28.5q49 0 79.5 28.5t30.5 76.5v57q0 48 -30.5 77t-79.5 29z" />
    <glyph glyph-name="colon" unicode=":" horiz-adv-x="271" 
d="M150 511q28 0 48.5 -20t20.5 -49q0 -28 -20.5 -48.5t-48.5 -20.5q-29 0 -49.5 20.5t-20.5 48.5q0 29 20.5 49t49.5 20zM150 128q28 0 48.5 -20t20.5 -49q0 -28 -20.5 -48.5t-48.5 -20.5q-29 0 -49.5 20.5t-20.5 48.5q0 29 20.5 49t49.5 20z" />
    <glyph glyph-name="semicolon" unicode=";" horiz-adv-x="279" 
d="M158 511q28 0 48.5 -20t20.5 -49q0 -28 -20.5 -48.5t-48.5 -20.5q-29 0 -49.5 20.5t-20.5 48.5q0 29 20.5 49t49.5 20zM159 130q20 0 35.5 -14t15.5 -37q0 -10 -4 -19l-54 -157q-5 -16 -18.5 -25.5t-30.5 -9.5q-21 0 -35.5 14t-14.5 37q0 10 3 19l54 157q13 35 49 35z
" />
    <glyph glyph-name="less" unicode="&#x3c;" 
d="M444 517q20 0 34 -14.5t14 -34.5q0 -28 -25 -43l-275 -171l277 -174q11 -7 17 -18t6 -23q0 -20 -14 -34.5t-35 -14.5q-15 0 -28 9l-326 204q-28 17 -28 51q0 31 28 50l326 204q13 9 29 9z" />
    <glyph glyph-name="equal" unicode="=" 
d="M468 405q21 0 34.5 -14t13.5 -35t-13.5 -35t-34.5 -14h-383q-21 0 -34.5 14t-13.5 35t13.5 35t34.5 14h383zM468 201q21 0 34.5 -14t13.5 -35t-13.5 -35t-34.5 -14h-383q-21 0 -34.5 14t-13.5 35t13.5 35t34.5 14h383z" />
    <glyph glyph-name="greater" unicode="&#x3e;" 
d="M109 517q15 0 29 -9l326 -204q28 -19 28 -50q0 -34 -28 -51l-326 -204q-14 -9 -28 -9q-21 0 -35 14.5t-14 34.5q0 12 6 23t17 18l277 174l-275 171q-25 15 -25 43q0 20 14 34.5t34 14.5z" />
    <glyph glyph-name="question" unicode="?" horiz-adv-x="499" 
d="M241 711q46 0 83.5 -13.5t64.5 -37.5t41.5 -58t14.5 -74q0 -33 -8 -57t-21 -42.5t-29 -32t-32 -25.5q-35 -26 -50.5 -46.5t-15.5 -47.5v-30q0 -23 -15 -37.5t-36 -14.5q-23 0 -37.5 14.5t-14.5 37.5v30q0 42 17.5 80t65.5 73q27 20 50 43t23 58q0 40 -28.5 63t-82.5 23
q-29 0 -51 -7t-43 -17q-6 -3 -13.5 -5.5t-12.5 -2.5q-23 0 -35.5 13t-12.5 34q0 14 7.5 26t22.5 19q37 17 73 25.5t75 8.5zM237 128q28 0 48.5 -20t20.5 -49q0 -28 -20.5 -48.5t-48.5 -20.5q-29 0 -49.5 20.5t-20.5 48.5q0 29 20.5 49t49.5 20z" />
    <glyph glyph-name="at" unicode="@" horiz-adv-x="760" 
d="M385 711q56 0 104.5 -19t84.5 -54t56.5 -83.5t20.5 -106.5v-269q0 -19 -11 -35.5t-30 -23.5q-27 -10 -60.5 -16.5t-68.5 -6.5q-39 0 -72.5 14t-58 38t-38.5 56.5t-14 70.5q0 34 12.5 66t35.5 57t57 40.5t78 15.5h67q0 36 -13.5 66t-36 51.5t-52 33t-61.5 11.5
q-33 0 -63 -11.5t-52 -33t-35 -51.5t-13 -66v-355q0 -30 10.5 -57.5t29 -49.5t43.5 -36t54 -18q20 -3 32 -16t12 -30q0 -20 -13.5 -34t-36.5 -14q-9 0 -18 1.5t-19 3.5q-38 8 -73 30t-63 55t-44.5 76t-16.5 94v343q0 58 20.5 106.5t56.5 83.5t84.5 54t104.5 19zM481 361
q-37 0 -61 -24t-24 -61q0 -38 23.5 -61.5t61.5 -23.5q16 0 33.5 2.5t33.5 7.5v160h-67z" />
    <glyph glyph-name="A" unicode="A" horiz-adv-x="585" 
d="M292 711q18 0 33.5 -10t21.5 -28l213 -612q4 -12 4 -21q0 -22 -14.5 -36t-37.5 -14q-17 0 -31 8.5t-19 25.5l-45 139h-250l-45 -139q-5 -17 -19 -25.5t-30 -8.5q-23 0 -37.5 14t-14.5 36q0 9 4 21l212 612q7 18 22.5 28t32.5 10zM198 259h188l-94 289z" />
    <glyph glyph-name="B" unicode="B" horiz-adv-x="579" 
d="M296 701q99 0 154 -50.5t55 -141.5q0 -48 -21.5 -83t-56.5 -58q48 -25 73 -68.5t25 -96.5q0 -95 -57 -149t-166 -54h-162q-26 0 -44.5 17.5t-18.5 43.5v579q0 26 18.5 43.5t44.5 17.5h156zM182 314v-216h120q54 0 86 28.5t32 79.5t-35.5 79.5t-87.5 28.5h-115zM182 603
v-191h108q48 0 78.5 25t30.5 70t-28 70.5t-75 25.5h-114z" />
    <glyph glyph-name="C" unicode="C" horiz-adv-x="534" 
d="M310 711q45 0 81.5 -9.5t70.5 -28.5q35 -19 35 -50q0 -18 -13.5 -33t-35.5 -15q-9 0 -16.5 2.5t-15.5 7.5q-28 15 -52.5 21.5t-53.5 6.5q-69 0 -107.5 -38t-38.5 -105v-239q0 -67 39 -105t107 -38q53 0 99 26q14 8 22.5 10.5t16.5 2.5q19 0 34 -14t15 -35q0 -26 -25 -44
q-35 -25 -77.5 -34.5t-84.5 -9.5q-56 0 -102.5 17t-79.5 48.5t-51.5 77.5t-18.5 105v225q0 59 18.5 105.5t51.5 78t79.5 48t102.5 16.5z" />
    <glyph glyph-name="D" unicode="D" horiz-adv-x="610" 
d="M275 701q64 0 115.5 -17.5t87.5 -52t55 -85t19 -117.5v-157q0 -66 -19 -116.5t-55 -85t-87.5 -52.5t-115.5 -18h-135q-26 0 -44.5 17.5t-18.5 43.5v579q0 26 18.5 43.5t44.5 17.5h135zM182 601v-501h95q82 0 125.5 44.5t43.5 125.5v161q0 83 -44 126.5t-125 43.5h-95z
" />
    <glyph glyph-name="E" unicode="E" horiz-adv-x="536" 
d="M436 701q23 0 36.5 -14.5t13.5 -35.5q0 -22 -13.5 -36.5t-36.5 -14.5h-254v-186h241q23 0 37 -14.5t14 -35.5q0 -22 -14 -36.5t-37 -14.5h-241v-212h261q23 0 36.5 -14.5t13.5 -35.5q0 -22 -13.5 -36.5t-36.5 -14.5h-303q-26 0 -44.5 17.5t-18.5 43.5v579q0 26 18.5 43.5
t44.5 17.5h296z" />
    <glyph glyph-name="F" unicode="F" horiz-adv-x="503" 
d="M433 701q23 0 37 -14.5t14 -35.5q0 -22 -14 -36.5t-37 -14.5h-251v-186h238q23 0 37 -14.5t14 -35.5q0 -22 -14 -36.5t-37 -14.5h-238v-270q0 -24 -14.5 -38.5t-37.5 -14.5t-38 14.5t-15 38.5v597q0 25 18.5 43t44.5 18h293z" />
    <glyph glyph-name="G" unicode="G" horiz-adv-x="594" 
d="M318 711q42 0 85 -11t78 -30q13 -8 21 -20.5t8 -25.5q0 -20 -15 -34t-37 -14q-6 0 -14.5 3t-14.5 5q-20 9 -51 19t-60 10q-154 0 -154 -157v-212q0 -76 38 -116t116 -40q29 0 58.5 5t54.5 13v185h-89q-23 0 -37 14.5t-14 36.5q0 21 14 35.5t37 14.5h133q26 0 43.5 -17
t17.5 -43v-250q0 -18 -10 -33.5t-27 -23.5q-36 -15 -84.5 -25t-96.5 -10q-123 0 -191.5 65.5t-68.5 192.5v205q0 128 68.5 193t191.5 65z" />
    <glyph glyph-name="H" unicode="H" horiz-adv-x="628" 
d="M499 711q21 0 36.5 -14t15.5 -37v-618q0 -23 -15.5 -37.5t-36.5 -14.5q-22 0 -37.5 14.5t-15.5 37.5v272h-264v-272q0 -23 -15.5 -37.5t-36.5 -14.5q-22 0 -37.5 14.5t-15.5 37.5v618q0 23 15.5 37t37.5 14q21 0 36.5 -14t15.5 -37v-245h264v245q0 23 15.5 37t37.5 14z
" />
    <glyph glyph-name="I" unicode="I" horiz-adv-x="259" 
d="M130 711q21 0 36.5 -14t15.5 -37v-618q0 -23 -15.5 -37.5t-36.5 -14.5q-22 0 -37.5 14.5t-15.5 37.5v618q0 23 15.5 37t37.5 14z" />
    <glyph glyph-name="J" unicode="J" horiz-adv-x="411" 
d="M285 711q21 0 37 -14t16 -37v-474q0 -45 -15.5 -81t-42 -61.5t-62.5 -39.5t-78 -14q-16 0 -33 1.5t-32 4.5q-22 5 -33.5 17.5t-11.5 30.5q0 23 14.5 36t34.5 13q11 0 26 -2.5t35 -2.5q42 0 67 29t25 69v474q0 23 15.5 37t37.5 14z" />
    <glyph glyph-name="K" unicode="K" horiz-adv-x="557" 
d="M469 711q23 0 38 -15t15 -35t-16 -38l-241 -260l251 -282q11 -12 15 -20.5t4 -19.5q0 -21 -15.5 -36t-37.5 -15q-14 0 -24.5 6.5t-18.5 15.5l-257 294v-264q0 -23 -15.5 -37.5t-36.5 -14.5q-22 0 -37.5 14.5t-15.5 37.5v618q0 23 15.5 37t37.5 14q21 0 36.5 -14t15.5 -37
v-244l243 272q10 11 20 17t24 6z" />
    <glyph glyph-name="L" unicode="L" horiz-adv-x="514" 
d="M130 711q21 0 36.5 -15t15.5 -38v-557h261q23 0 36.5 -14.5t13.5 -35.5q0 -22 -13.5 -36.5t-36.5 -14.5h-303q-26 0 -44.5 18t-18.5 43v597q0 23 15 38t38 15z" />
    <glyph glyph-name="M" unicode="M" horiz-adv-x="771" 
d="M640 711q25 0 39.5 -14.5t14.5 -39.5v-614q0 -23 -15 -38t-37 -15t-37.5 15t-15.5 38v436l-155 -273q-16 -28 -48 -28q-33 0 -49 28l-155 275v-438q0 -23 -15.5 -38t-36.5 -15q-22 0 -37.5 15t-15.5 38v614q0 25 15 39.5t39 14.5q18 0 30 -8.5t23 -25.5l202 -350l202 350
q11 17 22.5 25.5t29.5 8.5z" />
    <glyph glyph-name="N" unicode="N" horiz-adv-x="635" 
d="M506 711q22 0 37 -15t15 -38v-613q0 -23 -16 -39t-39 -16q-34 0 -52 32l-269 460v-439q0 -23 -15.5 -38t-36.5 -15q-22 0 -37.5 15t-15.5 38v613q0 23 15.5 39t38.5 16q35 0 53 -32l269 -459v438q0 23 15.5 38t37.5 15z" />
    <glyph glyph-name="O" unicode="O" horiz-adv-x="611" 
d="M306 711q55 0 101 -16.5t78 -48t50 -76.5t18 -103v-233q0 -58 -18 -103t-50 -76.5t-78 -48t-101 -16.5q-56 0 -101.5 16.5t-78 48t-50.5 76.5t-18 103v233q0 58 18 103t50.5 76.5t78 48t101.5 16.5zM306 613q-66 0 -104 -36.5t-38 -101.5v-248q0 -66 38 -102.5t104 -36.5
t103.5 36.5t37.5 102.5v248q0 65 -37.5 101.5t-103.5 36.5z" />
    <glyph glyph-name="P" unicode="P" horiz-adv-x="554" 
d="M297 701q56 0 98 -16t70.5 -44.5t43 -67.5t14.5 -84q0 -97 -54.5 -152.5t-158.5 -55.5h-128v-238q0 -24 -14.5 -38.5t-37.5 -14.5t-38 14.5t-15 38.5v597q0 25 18.5 43t44.5 18h157zM182 603v-226h115q59 0 90 29t31 83q0 55 -33.5 84.5t-87.5 29.5h-115z" />
    <glyph glyph-name="Q" unicode="Q" horiz-adv-x="622" 
d="M615 -3q20 -5 30 -18t10 -31q0 -21 -14.5 -35.5t-33.5 -14.5q-11 0 -33 6l-351 97q-72 20 -118.5 78.5t-46.5 154.5v233q0 58 18 103t50.5 76.5t78.5 48t102 16.5q55 0 101 -16.5t78 -48t50 -76.5t18 -103v-233q0 -64 -27.5 -116.5t-75.5 -76.5zM165 227q0 -66 38 -103
t104 -37t103.5 37t37.5 103v248q0 65 -37.5 101.5t-103.5 36.5t-104 -36.5t-38 -101.5v-248z" />
    <glyph glyph-name="R" unicode="R" horiz-adv-x="587" 
d="M319 701q52 0 92.5 -15t68.5 -42t42.5 -65t14.5 -84q0 -75 -38 -123t-107 -65l143 -235q3 -5 5.5 -13t2.5 -16q0 -22 -15 -37.5t-37 -15.5q-14 0 -26.5 6.5t-17.5 15.5l-170 281h-95v-250q0 -24 -14.5 -38.5t-37.5 -14.5t-38 14.5t-15 38.5v597q0 25 18.5 43t44.5 18h179
zM182 603v-213h137q55 0 84 28t29 77q-1 51 -30 79.5t-83 28.5h-137z" />
    <glyph glyph-name="S" unicode="S" horiz-adv-x="525" 
d="M263 711q53 0 95 -9.5t79 -27.5q30 -16 30 -48q0 -20 -13 -34t-33 -14q-12 0 -21.5 3.5t-22.5 8.5q-32 13 -58 18t-62 5q-21 0 -41 -5.5t-35.5 -16t-25 -26.5t-9.5 -36q0 -36 20 -56.5t63 -40.5l117 -54q25 -12 50 -27t45 -37t32.5 -53.5t12.5 -74.5q0 -45 -17.5 -81.5
t-48 -62t-72 -39t-90.5 -13.5q-54 0 -99.5 10t-86.5 29q-32 15 -32 48q0 23 13.5 36.5t34.5 13.5q11 0 19.5 -2.5t25.5 -9.5q26 -11 56 -19t69 -8q54 0 88 24t34 71q0 41 -23 63t-68 44l-122 57q-26 12 -49 28.5t-40 38t-27 49t-10 62.5q0 42 16 76.5t45.5 59t70 37.5
t90.5 13z" />
    <glyph glyph-name="T" unicode="T" horiz-adv-x="530" 
d="M469 701q21 0 35.5 -15t14.5 -35q0 -21 -14.5 -36t-35.5 -15h-151v-557q0 -23 -15.5 -38t-37.5 -15t-37.5 15t-15.5 38v557h-150q-22 0 -36.5 15t-14.5 36q0 20 14.5 35t36.5 15h407z" />
    <glyph glyph-name="U" unicode="U" horiz-adv-x="635" 
d="M515 711q21 0 37 -15t16 -38v-420q0 -119 -65 -183.5t-185 -64.5q-125 0 -188 64.5t-63 183.5v420q0 23 16 38t38 15q21 0 36.5 -15t15.5 -38v-424q0 -69 37.5 -107.5t107.5 -38.5t107 38.5t37 107.5v424q0 23 15.5 38t37.5 15z" />
    <glyph glyph-name="V" unicode="V" horiz-adv-x="549" 
d="M484 711q21 0 36.5 -14.5t15.5 -34.5q0 -8 -2 -14.5t-4 -14.5l-186 -586q-9 -30 -27 -43.5t-42 -13.5q-25 0 -43 13.5t-27 43.5l-186 586q-2 8 -4 14.5t-2 14.5q0 20 15.5 34.5t36.5 14.5q40 0 51 -37l159 -512l157 512q11 37 52 37z" />
    <glyph glyph-name="W" unicode="W" horiz-adv-x="806" 
d="M734 711q22 0 37 -14t15 -34q0 -6 -1 -12t-3 -13l-144 -593q-7 -26 -24.5 -40.5t-41.5 -14.5q-25 0 -43 14.5t-24 41.5l-102 442l-102 -442q-6 -27 -23.5 -41.5t-42.5 -14.5t-42.5 14.5t-23.5 40.5l-144 593q-2 7 -3 13t-1 12q0 20 14.5 34t36.5 14q19 0 32.5 -10.5
t17.5 -26.5l112 -468l102 449q6 27 24 41.5t43 14.5q26 0 43.5 -14.5t23.5 -41.5l103 -449l111 468q4 16 17.5 26.5t32.5 10.5z" />
    <glyph glyph-name="X" unicode="X" horiz-adv-x="532" 
d="M463 711q20 0 35.5 -14t15.5 -37q0 -15 -11 -31l-177 -275l182 -282q11 -15 11 -32q0 -22 -15.5 -36t-35.5 -14q-27 0 -41 20l-161 263l-161 -263q-13 -20 -41 -20q-20 0 -35.5 14t-15.5 36q0 10 3 17.5t8 14.5l181 282l-176 275q-10 17 -10 31q0 23 15 37t36 14
q28 0 40 -20l156 -254l155 252q6 10 17 16t25 6z" />
    <glyph glyph-name="Y" unicode="Y" horiz-adv-x="519" 
d="M455 711q21 0 36 -14t15 -36q0 -9 -3 -16.5t-8 -15.5l-183 -321v-265q0 -23 -14.5 -38t-37.5 -15q-24 0 -38.5 15t-14.5 38v265l-183 321q-5 8 -8 15.5t-3 16.5q0 22 15 36t36 14q14 0 24.5 -5t18.5 -19l153 -278l152 277q8 14 18.5 19.5t24.5 5.5z" />
    <glyph glyph-name="Z" unicode="Z" horiz-adv-x="543" 
d="M452 701q28 0 43.5 -17t15.5 -39q0 -18 -10 -32l-331 -513h296q21 0 35.5 -13.5t14.5 -36.5t-14.5 -36.5t-35.5 -13.5h-380q-27 0 -42.5 16t-15.5 38q0 17 12 36l331 511h-290q-22 0 -36.5 13.5t-14.5 36.5q0 22 14.5 36t36.5 14h371z" />
    <glyph glyph-name="bracketleft" unicode="[" horiz-adv-x="379" 
d="M256 779q23 0 37 -14t14 -35q0 -22 -14 -35.5t-37 -13.5h-86v-728h86q23 0 37 -14.5t14 -34.5q0 -21 -14 -35t-37 -14h-135q-21 0 -37.5 14.5t-16.5 38.5v818q0 20 15.5 36.5t38.5 16.5h135z" />
    <glyph glyph-name="backslash" unicode="\" horiz-adv-x="567" 
d="M159 711q17 0 30 -8.5t19 -24.5l246 -617q4 -11 4 -21q0 -20 -13.5 -35t-36.5 -15q-17 0 -29.5 9t-18.5 23l-247 618q-4 11 -4 21q0 20 13.5 35t36.5 15z" />
    <glyph glyph-name="bracketright" unicode="]" horiz-adv-x="379" 
d="M258 779q21 0 37.5 -14.5t16.5 -38.5v-818q0 -20 -15.5 -36.5t-38.5 -16.5h-135q-23 0 -37 14t-14 35q0 22 14 35.5t37 13.5h86v728h-86q-23 0 -37 14.5t-14 34.5q0 21 14 35t37 14h135z" />
    <glyph glyph-name="asciicircum" unicode="^" 
d="M276 711q28 0 44 -25l180 -281q5 -8 6.5 -15t1.5 -13q0 -20 -14.5 -34.5t-34.5 -14.5q-28 0 -42 24l-141 225l-141 -225q-16 -24 -42 -24q-22 0 -35.5 15.5t-13.5 34.5q0 13 8 26l179 282q17 25 45 25z" />
    <glyph glyph-name="underscore" unicode="_" horiz-adv-x="592" 
d="M518 -66q22 0 35 -14.5t13 -34.5q0 -21 -13 -35t-35 -14h-444q-22 0 -35.5 14t-13.5 35q0 20 13.5 34.5t35.5 14.5h444z" />
    <glyph glyph-name="grave" unicode="`" horiz-adv-x="528" 
d="M182 731q3 0 6.5 -0.5t8.5 -2.5l123 -52q14 -5 23 -16t9 -28q0 -20 -13.5 -33t-32.5 -13q-8 0 -15 3l-122 52q-15 6 -24 16.5t-9 27.5q0 19 13.5 32.5t32.5 13.5z" />
    <glyph glyph-name="a" unicode="a" horiz-adv-x="511" 
d="M251 517q40 0 75.5 -10t62 -30.5t42 -51.5t15.5 -72v-283q0 -17 -10 -33t-30 -23q-30 -11 -71 -17.5t-83 -6.5q-47 0 -85.5 9t-66 28.5t-42.5 50.5t-15 74t16.5 73.5t45 50t66.5 28t81 8.5h91v40q0 29 -21.5 49.5t-66.5 20.5q-26 0 -47 -4t-41 -14q-13 -6 -23.5 -10.5
t-22.5 -4.5q-18 0 -33 13.5t-15 34.5q0 27 24 41q21 13 61 26t93 13zM249 217q-47 0 -75 -14.5t-28 -52.5q0 -40 28.5 -53t76.5 -13q47 0 92 12v121h-94z" />
    <glyph glyph-name="b" unicode="b" horiz-adv-x="535" 
d="M124 711q22 0 36.5 -14t14.5 -37v-172q25 14 55 21.5t54 7.5q42 0 77.5 -12.5t61 -37.5t39.5 -62.5t14 -86.5v-128q0 -100 -54 -150t-148 -50q-83 0 -159 26q-20 7 -31.5 23t-11.5 36v585q0 23 14.5 37t37.5 14zM274 422q-28 0 -52.5 -9t-46.5 -25v-290q48 -14 99 -14
q48 0 73.5 26t25.5 74v140q0 98 -99 98z" />
    <glyph glyph-name="c" unicode="c" horiz-adv-x="445" 
d="M255 517q39 0 76.5 -9t67.5 -26q26 -15 26 -43q0 -20 -13 -33.5t-33 -13.5q-15 0 -25.5 5t-24.5 11q-15 6 -34 10t-42 4q-45 0 -71 -26.5t-26 -79.5v-125q0 -53 25.5 -80t71.5 -27q23 0 42.5 4.5t34.5 11.5q13 5 23 9.5t24 4.5q21 0 34.5 -13t13.5 -34q0 -28 -26 -43
q-30 -16 -67.5 -25t-76.5 -9q-94 0 -148 53.5t-54 147.5v125q0 48 15 85.5t41.5 63t63.5 39t82 13.5z" />
    <glyph glyph-name="d" unicode="d" horiz-adv-x="535" 
d="M411 711q23 0 37.5 -14t14.5 -37v-585q0 -20 -11.5 -36t-31.5 -23q-76 -26 -159 -26q-94 0 -148 49.5t-54 149.5v129q0 49 14 86.5t39.5 62.5t60.5 37.5t78 12.5q24 0 53.5 -7.5t55.5 -21.5v172q0 23 14.5 37t36.5 14zM261 422q-99 0 -99 -98v-141q0 -48 25.5 -73.5
t73.5 -25.5q51 0 99 14v290q-22 16 -46.5 25t-52.5 9z" />
    <glyph glyph-name="e" unicode="e" horiz-adv-x="510" 
d="M255 517q46 0 83 -14.5t63.5 -41t40.5 -63.5t14 -82v-49q0 -22 -16.5 -41.5t-46.5 -19.5h-237v-19q0 -20 5 -38.5t17 -32.5t31 -23t46 -9q33 0 57 6.5t44 14.5q22 9 35 9q20 0 33.5 -13.5t13.5 -33.5q0 -14 -6.5 -25t-20.5 -18q-17 -9 -38 -15t-42.5 -10.5t-41.5 -6.5
t-34 -2q-48 0 -86 15t-63.5 42t-39 64t-13.5 80v125q0 45 14 82.5t40.5 63.5t63.5 40.5t84 14.5zM255 422q-52 0 -75.5 -27.5t-23.5 -75.5v-18h197v15q0 51 -23 78.5t-75 27.5z" />
    <glyph glyph-name="f" unicode="f" horiz-adv-x="332" 
d="M223 711q17 0 30.5 -1.5t29.5 -4.5q18 -4 30 -15t12 -30q0 -20 -13.5 -32t-31.5 -12q-13 0 -23 2.5t-28 2.5q-26 0 -40 -15.5t-14 -36.5v-62h99q24 0 37.5 -14t13.5 -35t-13.5 -35t-37.5 -14h-99v-368q0 -23 -15 -37t-36 -14q-23 0 -37.5 14t-14.5 37v518q0 73 41 112.5
t110 39.5z" />
    <glyph glyph-name="g" unicode="g" horiz-adv-x="537" 
d="M261 517q82 0 159 -27q20 -7 31.5 -22.5t11.5 -35.5v-457q0 -44 -14 -80t-40 -62.5t-63 -41t-82 -14.5q-87 0 -155 34q-24 13 -24 41q0 19 12 32t34 13q6 0 12.5 -2t11.5 -4q27 -12 52 -18t57 -6q54 0 78 31t24 73v50q-53 -31 -111 -31q-96 0 -146 51.5t-50 148.5v128
q0 100 54 149.5t148 49.5zM261 422q-49 0 -74 -26t-25 -72v-141q0 -51 26 -75t73 -24q26 0 52 9t47 26v290q-23 7 -48 10t-51 3z" />
    <glyph glyph-name="h" unicode="h" horiz-adv-x="542" 
d="M124 711q22 0 36.5 -14t14.5 -37v-172q25 14 56 21.5t56 7.5q91 0 139.5 -51t48.5 -148v-277q0 -23 -14.5 -37t-36.5 -14q-23 0 -37.5 14t-14.5 37v283q0 49 -25 73.5t-72 24.5q-55 0 -100 -35v-346q0 -23 -14.5 -37t-36.5 -14q-23 0 -37.5 14t-14.5 37v619q0 23 14.5 37
t37.5 14z" />
    <glyph glyph-name="i" unicode="i" horiz-adv-x="247" 
d="M124 517q23 0 37 -14t14 -37v-425q0 -23 -14 -37t-37 -14t-37.5 14t-14.5 37v425q0 23 14.5 37t37.5 14zM124 711q25 0 42.5 -17.5t17.5 -42.5q0 -26 -17.5 -43.5t-42.5 -17.5t-42.5 17.5t-17.5 43.5q0 25 17.5 42.5t42.5 17.5z" />
    <glyph glyph-name="j" unicode="j" horiz-adv-x="270" 
d="M144 517q23 0 37.5 -14.5t14.5 -37.5v-472q0 -87 -34.5 -138.5t-97.5 -71.5q-17 -6 -36 -6q-20 0 -34.5 12.5t-14.5 35.5q0 38 40 48q42 10 58 41t16 79v472q0 23 14.5 37.5t36.5 14.5zM144 711q25 0 42.5 -17.5t17.5 -42.5q0 -26 -17.5 -43.5t-42.5 -17.5t-42.5 17.5
t-17.5 43.5q0 25 17.5 42.5t42.5 17.5z" />
    <glyph glyph-name="k" unicode="k" horiz-adv-x="482" 
d="M124 711q22 0 36.5 -14t14.5 -37v-319l184 161q18 15 37 15q21 0 35.5 -14t14.5 -36t-18 -37l-178 -149l191 -207q8 -8 10.5 -16.5t2.5 -17.5q0 -20 -13.5 -35t-36.5 -15q-24 0 -39 18l-190 215v-182q0 -23 -15 -37t-36 -14q-23 0 -37.5 14t-14.5 37v619q0 23 14.5 37
t37.5 14z" />
    <glyph glyph-name="l" unicode="l" horiz-adv-x="247" 
d="M124 711q22 0 36.5 -14t14.5 -37v-619q0 -23 -14.5 -37t-36.5 -14q-23 0 -37.5 14t-14.5 37v619q0 23 14.5 37t37.5 14z" />
    <glyph glyph-name="m" unicode="m" horiz-adv-x="796" 
d="M537 517q91 0 141.5 -50t50.5 -140v-285q0 -23 -14 -37.5t-37 -14.5t-37.5 14.5t-14.5 37.5v289q0 45 -25 68t-63 23q-24 0 -45 -7.5t-41 -20.5v-352q0 -23 -14 -37.5t-37 -14.5t-37.5 14.5t-14.5 37.5v318q0 20 -9 32t-21 19q-19 11 -50 11q-26 0 -48.5 -3.5
t-45.5 -10.5v-366q0 -23 -14 -37.5t-37 -14.5t-37.5 14.5t-14.5 37.5v390q0 21 12 36.5t33 22.5q37 12 76 19t80 7q77 0 126 -43q30 20 67 31.5t71 11.5z" />
    <glyph glyph-name="n" unicode="n" horiz-adv-x="542" 
d="M273 517q101 0 151.5 -50t50.5 -147v-279q0 -23 -14.5 -37t-36.5 -14q-23 0 -37.5 14t-14.5 37v283q0 48 -25 73t-74 25q-50 0 -98 -14v-367q0 -23 -14.5 -37t-36.5 -14q-23 0 -37.5 14t-14.5 37v391q0 21 11.5 36.5t33.5 22.5q37 12 75.5 19t80.5 7z" />
    <glyph glyph-name="o" unicode="o" horiz-adv-x="527" 
d="M264 517q100 0 155 -54.5t55 -154.5v-109q0 -99 -54.5 -154t-155.5 -55q-98 0 -154.5 53.5t-56.5 155.5v109q0 101 55.5 155t155.5 54zM264 422q-51 0 -79.5 -27.5t-28.5 -80.5v-121q0 -54 28.5 -81.5t79.5 -27.5t79 27.5t28 81.5v121q0 53 -28 80.5t-79 27.5z" />
    <glyph glyph-name="p" unicode="p" horiz-adv-x="535" 
d="M274 517q94 0 148 -49.5t54 -149.5v-130q0 -49 -14 -86t-39.5 -62t-61 -37.5t-77.5 -12.5q-24 0 -54 7t-55 22v-191q0 -23 -14.5 -37t-36.5 -14q-23 0 -37.5 14t-14.5 37v604q0 43 45 59q41 14 78 20t79 6zM274 422q-26 0 -51 -3t-48 -10v-291q22 -16 46.5 -25t52.5 -9
q99 0 99 99v141q0 48 -25.5 73t-73.5 25z" />
    <glyph glyph-name="q" unicode="q" horiz-adv-x="535" 
d="M261 517q42 0 79.5 -6.5t79.5 -20.5q22 -8 32.5 -23.5t10.5 -34.5v-604q0 -23 -14.5 -37t-37.5 -14q-22 0 -36.5 14t-14.5 37v191q-26 -15 -55.5 -22t-53.5 -7q-43 0 -78 12.5t-60.5 37.5t-39.5 62t-14 86v130q0 100 54 149.5t148 49.5zM261 422q-48 0 -73.5 -25
t-25.5 -73v-141q0 -99 99 -99q28 0 52.5 9t46.5 25v291q-23 7 -48 10t-51 3z" />
    <glyph glyph-name="r" unicode="r" horiz-adv-x="359" 
d="M222 517q22 0 41.5 -2t33.5 -5q41 -8 41 -49q0 -20 -13.5 -33.5t-35.5 -13.5q-11 0 -26 3t-34 3q-24 0 -39 -15.5t-15 -41.5v-322q0 -23 -14.5 -37t-36.5 -14q-23 0 -37.5 14t-14.5 37v325q0 70 40.5 110.5t109.5 40.5z" />
    <glyph glyph-name="s" unicode="s" horiz-adv-x="447" 
d="M222 517q36 0 73 -8t63 -21q27 -14 27 -42q0 -22 -14 -34.5t-32 -12.5q-8 0 -15 2l-14 4q-20 7 -39 12.5t-47 5.5q-32 0 -53.5 -14t-21.5 -39q0 -13 6 -22t14.5 -16t18.5 -11.5t19 -7.5l88 -33q49 -18 76 -50t27 -87q0 -32 -11.5 -60t-33.5 -48.5t-55 -32.5t-76 -12
q-45 0 -82 9t-63 22q-28 13 -28 42q0 21 12.5 34t33.5 13q5 0 11.5 -2t13.5 -4q17 -6 40.5 -13t56.5 -7q38 0 59.5 16t21.5 42q0 23 -21.5 38t-46.5 25l-82 32q-16 6 -33.5 15.5t-32 25t-24 38t-9.5 55.5q0 69 48.5 107.5t124.5 38.5z" />
    <glyph glyph-name="t" unicode="t" horiz-adv-x="344" 
d="M124 711q22 0 36.5 -14t14.5 -37v-153h98q25 0 38 -14t13 -35t-13 -35t-38 -14h-98v-264q0 -30 13.5 -44.5t37.5 -14.5q19 0 28.5 2.5t21.5 2.5q20 0 34 -12t14 -35q0 -20 -12 -32t-31 -16q-15 -3 -28.5 -4.5t-29.5 -1.5q-32 0 -59.5 10t-48 30t-32 49.5t-11.5 68.5v512
q0 23 14.5 37t37.5 14z" />
    <glyph glyph-name="u" unicode="u" horiz-adv-x="542" 
d="M418 517q23 0 37.5 -14t14.5 -37v-392q0 -20 -12 -35.5t-33 -22.5q-37 -12 -75.5 -19t-80.5 -7q-202 0 -202 197v279q0 23 14.5 37t36.5 14q23 0 37.5 -14t14.5 -37v-283q0 -48 24.5 -73.5t74.5 -25.5q26 0 50 4t48 10v368q0 23 14.5 37t36.5 14z" />
    <glyph glyph-name="v" unicode="v" horiz-adv-x="463" 
d="M390 517q26 0 38 -15.5t12 -34.5q0 -11 -5 -26l-136 -404q-9 -26 -27.5 -36.5t-39.5 -10.5t-40 10.5t-28 36.5l-136 406q-2 7 -3.5 12.5t-1.5 11.5q0 19 12.5 34.5t38.5 15.5q38 0 49 -36l109 -342l109 342q12 36 49 36z" />
    <glyph glyph-name="w" unicode="w" horiz-adv-x="724" 
d="M644 517q25 0 37.5 -15.5t12.5 -35.5q0 -10 -3 -20l-121 -403q-16 -53 -65 -53t-64 52l-79 279l-79 -279q-15 -52 -66 -52q-47 0 -63 53l-121 403q-3 10 -3 20q0 20 13 35.5t38 15.5q16 0 29.5 -8t18.5 -28l89 -339l85 328q13 47 59 47t59 -47l86 -328l88 339
q5 20 18.5 28t30.5 8z" />
    <glyph glyph-name="x" unicode="x" horiz-adv-x="469" 
d="M383 517q24 0 37.5 -14.5t13.5 -35.5q0 -18 -12 -34l-126 -176l129 -184q12 -17 12 -33q0 -22 -14 -36t-37 -14q-26 0 -41 22l-110 163l-111 -163q-15 -22 -40 -22q-24 0 -38 14t-14 36q0 16 12 33l129 184l-126 176q-12 16 -12 34q0 21 13.5 35.5t37.5 14.5q27 0 44 -24
l105 -154l106 157q9 13 19 17t23 4z" />
    <glyph glyph-name="y" unicode="y" horiz-adv-x="481" 
d="M410 517q26 0 38.5 -15.5t12.5 -34.5q0 -8 -4 -20l-185 -533q-25 -70 -74.5 -103.5t-119.5 -33.5q-22 0 -37 12.5t-15 37.5q0 20 14 33.5t37 14.5q33 2 59.5 19t39.5 51l20 55l-170 447q-3 9 -3 20q0 19 12.5 34.5t38.5 15.5q36 0 49 -36l125 -350l113 350q11 36 49 36z
" />
    <glyph glyph-name="z" unicode="z" horiz-adv-x="456" 
d="M364 507q23 0 38.5 -16t15.5 -39q0 -17 -12 -34l-228 -320h194q22 0 35.5 -14.5t13.5 -34.5q0 -21 -13.5 -35t-35.5 -14h-283q-23 0 -38.5 16t-15.5 39q0 17 13 35l228 319h-188q-23 0 -36 14t-13 35q0 20 13 34.5t36 14.5h276z" />
    <glyph glyph-name="braceleft" unicode="{" horiz-adv-x="435" 
d="M326 779q23 0 37 -13.5t14 -35.5t-14 -35.5t-37 -13.5q-25 0 -42.5 -17t-17.5 -42v-182q0 -35 -15.5 -68t-49.5 -55q35 -23 50 -56t15 -68v-181q0 -25 17.5 -42t42.5 -17q23 0 37 -13.5t14 -35.5q0 -21 -13.5 -35t-37.5 -14q-36 0 -65.5 12t-51.5 33t-34 50.5t-12 65.5
v177q0 28 -17.5 48t-46.5 25q-20 3 -33 17t-13 34t13 34t33 17q29 5 46.5 25t17.5 48v177q0 36 12 65.5t33.5 50.5t51.5 33t66 12z" />
    <glyph glyph-name="bar" unicode="|" horiz-adv-x="341" 
d="M170 779q23 0 37.5 -14t14.5 -37v-900q0 -23 -14.5 -37t-37.5 -14q-22 0 -36.5 14t-14.5 37v900q0 23 14.5 37t36.5 14z" />
    <glyph glyph-name="braceright" unicode="}" horiz-adv-x="435" 
d="M109 779q36 0 65.5 -12t51.5 -33t34 -50.5t12 -65.5v-177q0 -28 17.5 -48t46.5 -25q20 -3 33 -17t13 -34t-13 -34t-33 -17q-29 -5 -46.5 -25t-17.5 -48v-177q0 -36 -12 -65.5t-33.5 -50.5t-51.5 -33t-66 -12q-23 0 -37 13.5t-14 35.5t14 35.5t37 13.5q25 0 42.5 17
t17.5 42v182q0 35 15.5 68t49.5 55q-35 23 -50 56t-15 68v181q0 25 -17.5 42t-42.5 17q-23 0 -37 13.5t-14 35.5q0 21 13.5 35t37.5 14z" />
    <glyph glyph-name="asciitilde" unicode="~" 
d="M179 338q29 0 54 -7.5t46 -17.5q23 -11 42.5 -20.5t41.5 -9.5q23 0 41 12t34 26q7 6 13.5 9.5t17.5 3.5q21 0 34 -12.5t13 -32.5q0 -8 -1.5 -15t-6.5 -15q-22 -33 -55.5 -53.5t-78.5 -20.5q-29 0 -54 7.5t-46 17.5q-23 11 -42.5 20.5t-41.5 9.5q-23 0 -41 -11.5
t-34 -26.5q-5 -5 -12.5 -9t-18.5 -4q-21 0 -34 13t-13 33q0 17 8 30q23 32 56 52.5t78 20.5z" />
    <glyph glyph-name="uni00A0" unicode="&#xa0;" horiz-adv-x="257" 
 />
    <glyph glyph-name="exclamdown" unicode="&#xa1;" horiz-adv-x="395" 
d="M199 -223q-22 0 -36.5 14t-14.5 37v399q0 23 14.5 37t36.5 14q23 0 37.5 -14t14.5 -37v-399q0 -23 -14.5 -37t-37.5 -14zM200 360q-29 0 -49.5 20t-20.5 49q0 28 20.5 48.5t49.5 20.5q28 0 48.5 -20.5t20.5 -48.5q0 -29 -20.5 -49t-48.5 -20z" />
    <glyph glyph-name="cent" unicode="&#xa2;" 
d="M285 711q23 0 37.5 -14t14.5 -37v-82q27 -3 52 -11t47 -19q27 -14 27 -43q0 -20 -13.5 -33.5t-33.5 -13.5q-14 0 -25 4l-24 11q-15 7 -34.5 11t-42.5 4q-45 0 -70.5 -26.5t-25.5 -80.5v-64q0 -53 25 -80t71 -27q24 0 43 4.5t34 10.5q14 6 24 10.5t24 4.5q20 0 34 -13
t14 -34q0 -29 -27 -43q-22 -11 -47 -19t-52 -11v-79q0 -23 -14.5 -37t-37.5 -14q-22 0 -36.5 14t-14.5 37v82q-67 15 -105 65.5t-38 128.5v64q0 81 38.5 130t104.5 64v85q0 23 14.5 37t36.5 14z" />
    <glyph glyph-name="sterling" unicode="&#xa3;" 
d="M341 711q30 0 57.5 -8.5t53.5 -23.5q11 -6 18 -18.5t7 -25.5q0 -20 -14.5 -34t-35.5 -14q-9 0 -16.5 3t-15.5 7q-13 7 -26 11.5t-28 4.5q-42 0 -65 -24t-23 -66v-77h176q21 0 34.5 -14.5t13.5 -34.5q0 -21 -13.5 -35t-34.5 -14h-176v-81q0 -44 -12 -87.5t-38 -81.5h240
q23 0 37 -14t14 -35q0 -23 -14 -36t-37 -13h-332q-20 0 -35.5 15t-15.5 36t15 36q36 36 55.5 82t19.5 98v81h-42q-21 0 -34.5 14t-13.5 35q0 20 13.5 34.5t34.5 14.5h42v76q0 42 14 77t39 59.5t60 38.5t78 14z" />
    <glyph glyph-name="currency" unicode="&#xa4;" 
d="M477 599q20 0 34 -14t14 -34q0 -21 -14 -35l-62 -62q14 -23 21.5 -49t7.5 -55t-7.5 -55t-21.5 -49l62 -62q14 -14 14 -35q0 -20 -14 -34t-34 -14q-22 0 -34 14l-62 63q-47 -30 -104 -30q-29 0 -55.5 8t-49.5 22l-62 -63q-12 -14 -34 -14q-20 0 -34 14t-14 34q0 21 14 35
l62 62q-14 23 -21.5 49t-7.5 55t7.5 55t21.5 49l-62 62q-14 14 -14 35q0 20 14 34t34 14q22 0 34 -14l62 -63q23 14 49.5 22t55.5 8q57 0 104 -30l62 63q12 14 34 14zM277 455q-22 0 -41 -8.5t-33.5 -22.5t-23 -33t-8.5 -41t8.5 -41t23 -33.5t33.5 -22.5t41 -8q21 0 40.5 8
t33.5 22.5t22.5 33.5t8.5 41q0 21 -8.5 40.5t-22.5 33.5t-33.5 22.5t-40.5 8.5z" />
    <glyph glyph-name="yen" unicode="&#xa5;" 
d="M471 711q21 0 35.5 -14t14.5 -36q0 -9 -2.5 -16.5t-7.5 -15.5l-136 -242h63q20 0 32.5 -12.5t12.5 -31.5q0 -20 -12.5 -32.5t-32.5 -12.5h-110v-84h110q20 0 32.5 -12.5t12.5 -32.5t-12.5 -32.5t-32.5 -12.5h-110v-81q0 -23 -14.5 -38t-38.5 -15q-23 0 -38 15t-15 38v81
h-98q-20 0 -32.5 12.5t-12.5 32.5t12.5 32.5t32.5 12.5h98v84h-98q-20 0 -32.5 12.5t-12.5 32.5q0 19 12.5 31.5t32.5 12.5h52l-136 242q-5 8 -8 15.5t-3 16.5q0 22 15 36t36 14q14 0 24.5 -5t18.5 -19l152 -278l152 277q8 14 19 19.5t25 5.5z" />
    <glyph glyph-name="brokenbar" unicode="&#xa6;" horiz-adv-x="341" 
d="M170 779q23 0 37.5 -14t14.5 -37v-308q0 -23 -14.5 -37t-37.5 -14q-22 0 -36.5 14t-14.5 37v308q0 23 14.5 37t36.5 14zM170 187q23 0 37.5 -14t14.5 -37v-308q0 -23 -14.5 -37t-37.5 -14q-22 0 -36.5 14t-14.5 37v308q0 23 14.5 37t36.5 14z" />
    <glyph glyph-name="section" unicode="&#xa7;" 
d="M278 711q38 0 72.5 -6.5t69.5 -20.5q34 -14 34 -47q0 -20 -13 -32.5t-34 -12.5q-9 0 -17 2t-17 5q-23 8 -42.5 13t-52.5 5q-37 0 -61.5 -19t-24.5 -51q0 -25 15 -39t35 -23l113 -51q54 -25 81 -66t27 -95q0 -35 -13.5 -70t-38.5 -59q52 -47 52 -117q0 -41 -15.5 -72
t-41 -52t-60 -32t-71.5 -11q-80 0 -153 30q-17 7 -24.5 19.5t-7.5 28.5q0 19 12 32t35 13q9 0 18 -2.5t18 -5.5q26 -9 48 -15t54 -6q36 0 60.5 19.5t24.5 53.5q0 29 -15.5 44.5t-36.5 25.5l-112 52q-51 23 -79 61t-28 92q0 37 14.5 72.5t40.5 61.5q-26 22 -40.5 50.5
t-14.5 60.5q0 40 15.5 71t41.5 51.5t60 31t72 10.5zM228 389q-23 -20 -31.5 -44t-8.5 -43q0 -44 49 -67l91 -42q19 17 27.5 39.5t8.5 40.5q0 25 -14 44.5t-37 30.5z" />
    <glyph glyph-name="dieresis" unicode="&#xa8;" horiz-adv-x="475" 
d="M331 711q26 0 43.5 -18t17.5 -42q0 -26 -17.5 -43.5t-43.5 -17.5q-25 0 -42.5 17.5t-17.5 43.5q0 24 17.5 42t42.5 18zM143 711q25 0 42.5 -18t17.5 -42q0 -26 -17.5 -43.5t-42.5 -17.5t-42.5 17.5t-17.5 43.5q0 24 17.5 42t42.5 18z" />
    <glyph glyph-name="copyright" unicode="&#xa9;" horiz-adv-x="846" 
d="M423 711q75 0 140.5 -28.5t114.5 -77.5t77.5 -114.5t28.5 -139.5q0 -75 -28.5 -140.5t-77.5 -114.5t-114.5 -77.5t-140.5 -28.5q-74 0 -139.5 28.5t-114.5 77.5t-77.5 114.5t-28.5 140.5q0 74 28.5 139.5t77.5 114.5t114.5 77.5t139.5 28.5zM432 541q46 0 85 -25
q21 -14 21 -35q0 -16 -11.5 -26t-26.5 -10q-9 0 -19 5q-12 6 -23 10t-26 4q-40 0 -54 -19.5t-14 -42.5v-104q0 -23 14 -42.5t54 -19.5q15 0 26.5 4t22.5 10q5 2 9 3.5t10 1.5q17 0 27.5 -10.5t10.5 -25.5q0 -22 -21 -35q-38 -24 -85 -24q-33 0 -60 10.5t-46.5 29t-30 44.5
t-10.5 57v98q0 63 40.5 102.5t106.5 39.5zM423 632q-59 0 -110 -22t-89 -60.5t-60 -89.5t-22 -109q0 -59 22 -110t60 -89.5t89 -60.5t110 -22q58 0 109.5 22t90 60.5t60.5 89.5t22 110q0 58 -22 109t-60.5 89.5t-90 60.5t-109.5 22z" />
    <glyph glyph-name="ordfeminine" unicode="&#xaa;" horiz-adv-x="350" 
d="M175 711q51 0 81.5 -26t30.5 -73v-170q0 -11 -6.5 -21t-17.5 -14q-22 -8 -46.5 -11t-47.5 -3q-54 0 -84 26t-30 72q0 42 27.5 67t86.5 25h55v27q0 20 -14.5 32t-34.5 12q-14 0 -26 -2t-26 -7q-5 -2 -10.5 -3.5t-9.5 -1.5q-13 0 -21.5 6.5t-8.5 20.5q0 19 20 27
q40 17 82 17zM169 527q-29 0 -40.5 -10t-11.5 -27t11 -28.5t41 -11.5t55 7v70h-55z" />
    <glyph glyph-name="guillemotleft" unicode="&#xab;" horiz-adv-x="563" 
d="M450 471q23 0 36.5 -14t13.5 -37q0 -19 -9 -31l-96 -134l96 -134q10 -14 10 -30q0 -23 -14 -37.5t-37 -14.5q-26 0 -42 23l-112 156q-5 8 -9 17t-4 20t4 20t9 17l111 157q16 22 43 22zM230 471q23 0 36.5 -14t13.5 -37q0 -19 -9 -31l-96 -134l96 -134q10 -14 10 -30
q0 -23 -14 -37.5t-37 -14.5q-26 0 -42 23l-112 156q-5 8 -9 17t-4 20t4 20t9 17l111 157q16 22 43 22z" />
    <glyph glyph-name="logicalnot" unicode="&#xac;" 
d="M436 304q26 0 44 -17.5t18 -43.5v-182q0 -23 -14 -37t-37 -14t-37.5 14t-14.5 37v145h-310q-21 0 -34.5 14t-13.5 35t13.5 35t34.5 14h351z" />
    <glyph glyph-name="uni00AD" unicode="&#xad;" horiz-adv-x="449" 
d="M338 346q22 0 35 -14t13 -34q0 -21 -13 -35t-35 -14h-227q-22 0 -35 14t-13 35q0 20 13 34t35 14h227z" />
    <glyph glyph-name="registered" unicode="&#xae;" horiz-adv-x="846" 
d="M423 711q75 0 140.5 -28.5t114.5 -77.5t77.5 -114.5t28.5 -139.5q0 -75 -28.5 -140.5t-77.5 -114.5t-114.5 -77.5t-140.5 -28.5q-74 0 -139.5 28.5t-114.5 77.5t-77.5 114.5t-28.5 140.5q0 74 28.5 139.5t77.5 114.5t114.5 77.5t139.5 28.5zM423 632q-59 0 -110 -22
t-89 -60.5t-60 -89.5t-22 -109q0 -59 22 -110t60 -89.5t89 -60.5t110 -22q58 0 109.5 22t90 60.5t60.5 89.5t22 110q0 58 -22 109t-60.5 89.5t-90 60.5t-109.5 22zM439 536q53 0 85.5 -30t32.5 -83q0 -32 -16.5 -56.5t-45.5 -37.5l59 -107q5 -10 5 -20q0 -16 -11.5 -27
t-28.5 -11q-22 0 -33 21l-65 125h-35v-107q0 -17 -11 -28t-28 -11q-16 0 -27 11t-11 28v289q0 18 12.5 31t31.5 13h86zM386 467v-87h54q21 0 33 11t12 31q0 19 -10.5 32t-35.5 13h-53z" />
    <glyph glyph-name="macron" unicode="&#xaf;" horiz-adv-x="528" 
d="M341 697q20 0 33 -13.5t13 -32.5q0 -20 -13 -33.5t-33 -13.5h-160q-19 0 -32.5 13.5t-13.5 33.5q0 19 13.5 32.5t32.5 13.5h160z" />
    <glyph glyph-name="degree" unicode="&#xb0;" horiz-adv-x="424" 
d="M212 711q31 0 58.5 -12t48 -32t32 -47.5t11.5 -58.5t-11.5 -58.5t-32 -48t-48 -32.5t-58.5 -12t-58.5 12t-47.5 32.5t-32 48t-12 58.5t12 58.5t32 47.5t47.5 32t58.5 12zM212 631q-29 0 -49.5 -20.5t-20.5 -49.5t20.5 -50t49.5 -21t49.5 21t20.5 50t-20.5 49.5
t-49.5 20.5z" />
    <glyph glyph-name="plusminus" unicode="&#xb1;" 
d="M277 585q21 0 35.5 -15t14.5 -36v-118h141q21 0 34.5 -14t13.5 -35q0 -20 -13.5 -34t-34.5 -14h-141v-122q0 -21 -14.5 -36t-35.5 -15q-22 0 -36.5 15t-14.5 36v122h-141q-21 0 -34.5 14t-13.5 34q0 21 13.5 35t34.5 14h141v118q0 21 14.5 36t36.5 15zM468 98
q21 0 34.5 -14.5t13.5 -34.5q0 -21 -13.5 -35t-34.5 -14h-383q-21 0 -34.5 14t-13.5 35q0 20 13.5 34.5t34.5 14.5h383z" />
    <glyph glyph-name="twosuperior" unicode="&#xb2;" horiz-adv-x="323" 
d="M147 711q58 0 93 -31t35 -85q0 -30 -11.5 -54.5t-29.5 -47.5l-106 -136h118q14 0 23.5 -9.5t9.5 -23.5q0 -13 -9.5 -22.5t-23.5 -9.5h-180q-16 0 -27 11t-11 26q0 14 10 26l140 175q11 14 20 29t9 32q0 29 -16.5 42.5t-43.5 13.5q-20 0 -34.5 -4t-34.5 -12q-5 -2 -13 -2
q-14 0 -22.5 8.5t-8.5 22.5q0 19 17 28q20 11 42 17t54 6z" />
    <glyph glyph-name="threesuperior" unicode="&#xb3;" horiz-adv-x="331" 
d="M147 711q58 0 91.5 -32.5t33.5 -85.5q0 -26 -12 -48t-32 -37q27 -15 41.5 -40.5t14.5 -56.5q0 -55 -36.5 -90t-99.5 -35q-34 0 -57.5 5.5t-42.5 14.5q-5 2 -12.5 9t-7.5 21t9 23t23 9q5 0 13 -3q17 -7 32 -11t43 -4q67 0 67 62q0 28 -19 45t-51 17h-16q-14 0 -23.5 9
t-9.5 23q0 13 9.5 22t23.5 9h16q27 0 42.5 15t15.5 41q0 54 -58 54q-19 0 -33.5 -3t-34.5 -12q-8 -3 -14 -3q-14 0 -23 9t-9 23q0 17 16 27q22 11 46 17t54 6z" />
    <glyph glyph-name="acute" unicode="&#xb4;" horiz-adv-x="528" 
d="M343 731q19 0 32.5 -13.5t13.5 -32.5q0 -17 -8.5 -27t-24.5 -17l-122 -52q-8 -3 -15 -3q-19 0 -32.5 13t-13.5 33q0 17 9 28t23 16l123 52q5 2 8.5 2.5t6.5 0.5z" />
    <glyph glyph-name="mu" unicode="&#xb5;" 
d="M431 517q22 0 36.5 -14t14.5 -37v-392q0 -20 -11.5 -35.5t-32.5 -22.5q-37 -12 -76 -19t-80 -7q-57 0 -100 17v-179q0 -23 -14.5 -37t-36.5 -14q-23 0 -37.5 14t-14.5 37v638q0 23 14.5 37t37.5 14q22 0 36.5 -14t14.5 -37v-283q0 -48 25 -73.5t75 -25.5q26 0 50 4t47 10
v368q0 23 14.5 37t37.5 14z" />
    <glyph glyph-name="paragraph" unicode="&#xb6;" 
d="M454 701q23 0 41 -16.5t18 -40.5v-816q0 -23 -14.5 -37t-37.5 -14q-22 0 -36.5 14t-14.5 37v775h-98v-775q0 -23 -14.5 -37t-37.5 -14q-22 0 -36.5 14t-14.5 37v536h-21q-36 0 -67 12.5t-53.5 35t-35 53.5t-12.5 67t12.5 67t35 53.5t53.5 35.5t67 13h266z" />
    <glyph glyph-name="periodcentered" unicode="&#xb7;" horiz-adv-x="245" 
d="M123 372q28 0 48.5 -20t20.5 -49q0 -28 -20.5 -48.5t-48.5 -20.5q-29 0 -49.5 20.5t-20.5 48.5q0 29 20.5 49t49.5 20z" />
    <glyph glyph-name="cedilla" unicode="&#xb8;" horiz-adv-x="528" 
d="M274 51q19 0 28.5 -11t9.5 -25q0 -6 -3 -16l-8 -31q21 -10 36.5 -27.5t15.5 -43.5q0 -40 -27.5 -69.5t-69.5 -42.5q-15 -5 -27 -6.5t-25 -1.5q-17 0 -26.5 10t-9.5 26q0 31 35 37q7 1 19 4t23 8t19.5 12.5t8.5 18.5t-9 17t-23 11q-11 5 -17.5 12t-6.5 20q0 8 3 22l10 42
q4 15 15 24.5t29 9.5z" />
    <glyph glyph-name="onesuperior" unicode="&#xb9;" horiz-adv-x="261" 
d="M150 711q16 0 26.5 -10.5t10.5 -26.5v-354q0 -14 -9.5 -24t-23.5 -10t-24.5 10t-10.5 24v304l-46 -25q-9 -6 -19 -6q-14 0 -23.5 9t-9.5 23q0 8 3.5 15t13.5 13l93 53q7 5 19 5z" />
    <glyph glyph-name="ordmasculine" unicode="&#xba;" horiz-adv-x="352" 
d="M176 711q57 0 90 -33t33 -87v-78q0 -55 -33 -87.5t-90 -32.5t-90 32.5t-33 87.5v78q0 55 33 87.5t90 32.5zM176 650q-57 0 -57 -59v-79q0 -27 15 -42.5t42 -15.5t42 15.5t15 42.5v79q0 59 -57 59z" />
    <glyph glyph-name="guillemotright" unicode="&#xbb;" horiz-adv-x="563" 
d="M333 471q26 0 42 -23l112 -156q5 -8 9 -17t4 -20t-4 -20t-9 -17l-111 -157q-16 -22 -43 -22q-23 0 -36.5 14t-13.5 37q0 19 9 31l96 134l-96 134q-10 14 -10 30q0 23 14 37.5t37 14.5zM114 471q26 0 42 -23l112 -156q5 -8 9 -17t4 -20t-4 -20t-9 -17l-111 -157
q-16 -22 -43 -22q-23 0 -36.5 14t-13.5 37q0 19 9 31l96 134l-96 134q-10 14 -10 30q0 23 14 37.5t37 14.5z" />
    <glyph glyph-name="onequarter" unicode="&#xbc;" horiz-adv-x="790" 
d="M538 711q15 0 25 -9.5t10 -25.5q0 -11 -6 -21l-343 -645q-11 -20 -32 -20q-16 0 -26 9.5t-10 25.5q0 10 6 21l343 645q11 20 33 20zM618 419q14 0 23.5 -9.5t9.5 -23.5v-6q0 -3 -2 -8l-78 -217h78v62q0 14 9.5 24t23.5 10t24 -10t10 -24v-62h30q14 0 23 -9.5t9 -23.5
q0 -13 -9 -23t-23 -10h-30v-61q0 -14 -10 -24t-24 -10t-23.5 10t-9.5 24v61h-119q-17 0 -27.5 11t-10.5 27q0 7 3 15l93 257q4 11 12.5 15.5t17.5 4.5zM150 711q16 0 26.5 -10.5t10.5 -26.5v-354q0 -14 -9.5 -24t-23.5 -10t-24.5 10t-10.5 24v304l-46 -25q-9 -6 -19 -6
q-14 0 -23.5 9t-9.5 23q0 8 3.5 15t13.5 13l93 53q7 5 19 5z" />
    <glyph glyph-name="onehalf" unicode="&#xbd;" horiz-adv-x="791" 
d="M538 711q15 0 25 -9.5t10 -25.5q0 -11 -6 -21l-343 -645q-11 -20 -32 -20q-16 0 -26 9.5t-10 25.5q0 10 6 21l343 645q11 20 33 20zM615 419q58 0 93 -31t35 -85q0 -30 -11.5 -54.5t-29.5 -47.5l-106 -136h118q14 0 23.5 -9.5t9.5 -23.5q0 -13 -9.5 -22.5t-23.5 -9.5
h-180q-16 0 -27 11t-11 26q0 14 10 26l140 175q11 14 20 29t9 32q0 29 -16.5 42.5t-43.5 13.5q-20 0 -34.5 -4t-34.5 -12q-5 -2 -13 -2q-14 0 -22.5 8.5t-8.5 22.5q0 19 17 28q20 11 42 17t54 6zM150 711q16 0 26.5 -10.5t10.5 -26.5v-354q0 -14 -9.5 -24t-23.5 -10
t-24.5 10t-10.5 24v304l-46 -25q-9 -6 -19 -6q-14 0 -23.5 9t-9.5 23q0 8 3.5 15t13.5 13l93 53q7 5 19 5z" />
    <glyph glyph-name="threequarters" unicode="&#xbe;" horiz-adv-x="860" 
d="M608 711q15 0 25 -9.5t10 -25.5q0 -11 -6 -21l-343 -645q-11 -20 -32 -20q-16 0 -26 9.5t-10 25.5q0 10 6 21l343 645q11 20 33 20zM688 419q14 0 23.5 -9.5t9.5 -23.5v-6q0 -3 -2 -8l-78 -217h78v62q0 14 9.5 24t23.5 10t24 -10t10 -24v-62h30q14 0 23 -9.5t9 -23.5
q0 -13 -9 -23t-23 -10h-30v-61q0 -14 -10 -24t-24 -10t-23.5 10t-9.5 24v61h-119q-17 0 -27.5 11t-10.5 27q0 7 3 15l93 257q4 11 12.5 15.5t17.5 4.5zM147 711q58 0 91.5 -32.5t33.5 -85.5q0 -26 -12 -48t-32 -37q27 -15 41.5 -40.5t14.5 -56.5q0 -55 -36.5 -90t-99.5 -35
q-34 0 -57.5 5.5t-42.5 14.5q-5 2 -12.5 9t-7.5 21t9 23t23 9q5 0 13 -3q17 -7 32 -11t43 -4q67 0 67 62q0 28 -19 45t-51 17h-16q-14 0 -23.5 9t-9.5 23q0 13 9.5 22t23.5 9h16q27 0 42.5 15t15.5 41q0 54 -58 54q-19 0 -33.5 -3t-34.5 -12q-8 -3 -14 -3q-14 0 -23 9t-9 23
q0 17 16 27q22 11 46 17t54 6z" />
    <glyph glyph-name="questiondown" unicode="&#xbf;" horiz-adv-x="499" 
d="M257 -223q-46 0 -83.5 13.5t-64.5 37.5t-41.5 57.5t-14.5 74.5q0 33 8 57t21 42.5t29 32t32 25.5q35 26 50.5 46.5t15.5 47.5v30q0 23 15 37.5t36 14.5q23 0 37.5 -14.5t14.5 -37.5v-30q0 -42 -17.5 -80t-65.5 -73q-27 -20 -50 -43t-23 -58q0 -40 28.5 -63t82.5 -23
q29 0 51 7t43 17q6 3 13.5 5.5t12.5 2.5q23 0 35.5 -13t12.5 -34q0 -14 -7.5 -26t-22.5 -19q-37 -17 -73 -25.5t-75 -8.5zM261 360q-28 0 -48.5 20t-20.5 49q0 28 20.5 48.5t48.5 20.5q29 0 49.5 -20.5t20.5 -48.5q0 -29 -20.5 -49t-49.5 -20z" />
    <glyph glyph-name="Agrave" unicode="&#xc0;" horiz-adv-x="585" 
d="M292 711q18 0 33.5 -10t21.5 -28l213 -612q4 -12 4 -21q0 -22 -14.5 -36t-37.5 -14q-17 0 -31 8.5t-19 25.5l-45 139h-250l-45 -139q-5 -17 -19 -25.5t-30 -8.5q-23 0 -37.5 14t-14.5 36q0 9 4 21l212 612q7 18 22.5 28t32.5 10zM198 259h188l-94 289zM218 922
q3 0 6.5 -0.5t8.5 -2.5l123 -52q14 -5 23 -16t9 -28q0 -20 -13.5 -33t-32.5 -13q-3 0 -6.5 0.5t-10.5 3.5l-120 51q-14 5 -23 16t-9 28q0 19 13 32.5t32 13.5z" />
    <glyph glyph-name="Aacute" unicode="&#xc1;" horiz-adv-x="585" 
d="M292 711q18 0 33.5 -10t21.5 -28l213 -612q4 -12 4 -21q0 -22 -14.5 -36t-37.5 -14q-17 0 -31 8.5t-19 25.5l-45 139h-250l-45 -139q-5 -17 -19 -25.5t-30 -8.5q-23 0 -37.5 14t-14.5 36q0 9 4 21l212 612q7 18 22.5 28t32.5 10zM198 259h188l-94 289zM367 922
q19 0 32 -13.5t13 -32.5q0 -17 -8.5 -27t-24.5 -17l-119 -51q-9 -4 -17 -4q-19 0 -32.5 13t-13.5 33q0 31 32 44l123 52q7 3 15 3z" />
    <glyph glyph-name="Acircumflex" unicode="&#xc2;" horiz-adv-x="585" 
d="M292 711q18 0 33.5 -10t21.5 -28l213 -612q4 -12 4 -21q0 -22 -14.5 -36t-37.5 -14q-17 0 -31 8.5t-19 25.5l-45 139h-250l-45 -139q-5 -17 -19 -25.5t-30 -8.5q-23 0 -37.5 14t-14.5 36q0 9 4 21l212 612q7 18 22.5 28t32.5 10zM198 259h188l-94 289zM292 922
q13 0 25 -6l91 -51q27 -15 27 -42q0 -19 -13.5 -32.5t-33.5 -13.5q-5 0 -9 1t-11 5l-76 45l-76 -45q-11 -6 -20 -6q-20 0 -33 13.5t-13 32.5q0 28 26 42l91 51q12 6 25 6z" />
    <glyph glyph-name="Atilde" unicode="&#xc3;" horiz-adv-x="585" 
d="M292 711q18 0 33.5 -10t21.5 -28l213 -612q4 -12 4 -21q0 -22 -14.5 -36t-37.5 -14q-17 0 -31 8.5t-19 25.5l-45 139h-250l-45 -139q-5 -17 -19 -25.5t-30 -8.5q-23 0 -37.5 14t-14.5 36q0 9 4 21l212 612q7 18 22.5 28t32.5 10zM198 259h188l-94 289zM402 899
q21 0 33.5 -13.5t12.5 -30.5q0 -18 -11 -32q-17 -20 -42.5 -33t-55.5 -13q-20 0 -33.5 4.5t-23.5 10t-18 10t-18 4.5q-11 0 -21 -6.5t-21 -15.5q-8 -7 -22 -7q-21 0 -33.5 13.5t-12.5 29.5q0 10 3 16.5t8 14.5q17 22 42.5 35t55.5 13q20 0 33.5 -4.5t23.5 -10t18 -10
t18 -4.5q11 0 20.5 6t20.5 15q9 8 23 8z" />
    <glyph glyph-name="Adieresis" unicode="&#xc4;" horiz-adv-x="585" 
d="M292 711q18 0 33.5 -10t21.5 -28l213 -612q4 -12 4 -21q0 -22 -14.5 -36t-37.5 -14q-17 0 -31 8.5t-19 25.5l-45 139h-250l-45 -139q-5 -17 -19 -25.5t-30 -8.5q-23 0 -37.5 14t-14.5 36q0 9 4 21l212 612q7 18 22.5 28t32.5 10zM198 259h188l-94 289zM386 902
q26 0 43.5 -18t17.5 -42q0 -26 -17.5 -43.5t-43.5 -17.5q-25 0 -42.5 17.5t-17.5 43.5q0 24 17.5 42t42.5 18zM198 902q25 0 42.5 -18t17.5 -42q0 -26 -17.5 -43.5t-42.5 -17.5t-42.5 17.5t-17.5 43.5q0 24 17.5 42t42.5 18z" />
    <glyph glyph-name="Aring" unicode="&#xc5;" horiz-adv-x="585" 
d="M292 711q18 0 33.5 -10t21.5 -28l213 -612q4 -12 4 -21q0 -22 -14.5 -36t-37.5 -14q-17 0 -31 8.5t-19 25.5l-45 139h-250l-45 -139q-5 -17 -19 -25.5t-30 -8.5q-23 0 -37.5 14t-14.5 36q0 9 4 21l212 612q7 18 22.5 28t32.5 10zM198 259h188l-94 289zM291 980
q22 0 42 -8.5t34 -22.5t22.5 -33.5t8.5 -41.5t-8.5 -41.5t-22.5 -34t-34 -23t-42 -8.5t-41.5 8.5t-33.5 23t-22.5 34t-8.5 41.5q0 45 30.5 75.5t75.5 30.5zM291 918q-18 0 -31 -12.5t-13 -31.5t13 -31.5t31 -12.5q19 0 31.5 12t12.5 32q0 19 -12.5 31.5t-31.5 12.5z" />
    <glyph glyph-name="AE" unicode="&#xc6;" horiz-adv-x="873" 
d="M772 701q23 0 37 -14.5t14 -35.5q0 -22 -14 -36.5t-37 -14.5h-253v-186h241q23 0 36.5 -14.5t13.5 -35.5q0 -22 -13.5 -36.5t-36.5 -14.5h-241v-212h260q23 0 37 -14.5t14 -35.5q0 -22 -14 -36.5t-37 -14.5h-302q-26 0 -45 17.5t-19 43.5v102h-214l-81 -144
q-8 -15 -18.5 -22t-27.5 -7q-23 0 -37 14t-14 33q0 12 3 19.5t8 16.5l338 587q23 41 76 41h326zM252 259h161v286z" />
    <glyph glyph-name="Ccedilla" unicode="&#xc7;" horiz-adv-x="534" 
d="M310 711q45 0 81.5 -9.5t70.5 -28.5q35 -19 35 -50q0 -18 -13.5 -33t-35.5 -15q-9 0 -16.5 2.5t-15.5 7.5q-28 15 -52.5 21.5t-53.5 6.5q-69 0 -107.5 -38t-38.5 -105v-239q0 -67 39 -105t107 -38q53 0 99 26q14 8 22.5 10.5t16.5 2.5q19 0 34 -14t15 -35q0 -26 -25 -44
q-35 -24 -76 -33.5t-81 -10.5l-6 -22q21 -10 36.5 -27.5t15.5 -43.5q0 -40 -27.5 -69.5t-69.5 -42.5q-14 -4 -26.5 -6t-25.5 -2q-17 0 -26.5 10t-9.5 26q0 31 35 37q7 1 19 4t23 8t19.5 12.5t8.5 18.5t-9 17t-23 11q-11 5 -17.5 12t-6.5 20q0 8 3 22l6 24q-81 20 -128.5 81
t-47.5 158v225q0 59 18.5 105.5t51.5 78t79.5 48t102.5 16.5z" />
    <glyph glyph-name="Egrave" unicode="&#xc8;" horiz-adv-x="536" 
d="M436 701q23 0 36.5 -14.5t13.5 -35.5q0 -22 -13.5 -36.5t-36.5 -14.5h-254v-186h241q23 0 37 -14.5t14 -35.5q0 -22 -14 -36.5t-37 -14.5h-241v-212h261q23 0 36.5 -14.5t13.5 -35.5q0 -22 -13.5 -36.5t-36.5 -14.5h-303q-26 0 -44.5 17.5t-18.5 43.5v579q0 26 18.5 43.5
t44.5 17.5h296zM207 922q3 0 6.5 -0.5t8.5 -2.5l123 -52q14 -5 23 -16t9 -28q0 -20 -13.5 -33t-32.5 -13q-3 0 -6.5 0.5t-10.5 3.5l-120 51q-14 5 -23 16t-9 28q0 19 13 32.5t32 13.5z" />
    <glyph glyph-name="Eacute" unicode="&#xc9;" horiz-adv-x="536" 
d="M436 701q23 0 36.5 -14.5t13.5 -35.5q0 -22 -13.5 -36.5t-36.5 -14.5h-254v-186h241q23 0 37 -14.5t14 -35.5q0 -22 -14 -36.5t-37 -14.5h-241v-212h261q23 0 36.5 -14.5t13.5 -35.5q0 -22 -13.5 -36.5t-36.5 -14.5h-303q-26 0 -44.5 17.5t-18.5 43.5v579q0 26 18.5 43.5
t44.5 17.5h296zM356 922q19 0 32 -13.5t13 -32.5q0 -17 -8.5 -27t-24.5 -17l-119 -51q-9 -4 -17 -4q-19 0 -32.5 13t-13.5 33q0 31 32 44l123 52q7 3 15 3z" />
    <glyph glyph-name="Ecircumflex" unicode="&#xca;" horiz-adv-x="536" 
d="M436 701q23 0 36.5 -14.5t13.5 -35.5q0 -22 -13.5 -36.5t-36.5 -14.5h-254v-186h241q23 0 37 -14.5t14 -35.5q0 -22 -14 -36.5t-37 -14.5h-241v-212h261q23 0 36.5 -14.5t13.5 -35.5q0 -22 -13.5 -36.5t-36.5 -14.5h-303q-26 0 -44.5 17.5t-18.5 43.5v579q0 26 18.5 43.5
t44.5 17.5h296zM281 922q13 0 25 -6l91 -51q27 -15 27 -42q0 -19 -13.5 -32.5t-33.5 -13.5q-5 0 -9 1t-11 5l-76 45l-76 -45q-11 -6 -20 -6q-20 0 -33 13.5t-13 32.5q0 28 26 42l91 51q12 6 25 6z" />
    <glyph glyph-name="Edieresis" unicode="&#xcb;" horiz-adv-x="536" 
d="M436 701q23 0 36.5 -14.5t13.5 -35.5q0 -22 -13.5 -36.5t-36.5 -14.5h-254v-186h241q23 0 37 -14.5t14 -35.5q0 -22 -14 -36.5t-37 -14.5h-241v-212h261q23 0 36.5 -14.5t13.5 -35.5q0 -22 -13.5 -36.5t-36.5 -14.5h-303q-26 0 -44.5 17.5t-18.5 43.5v579q0 26 18.5 43.5
t44.5 17.5h296zM375 902q26 0 43.5 -18t17.5 -42q0 -26 -17.5 -43.5t-43.5 -17.5q-25 0 -42.5 17.5t-17.5 43.5q0 24 17.5 42t42.5 18zM187 902q25 0 42.5 -18t17.5 -42q0 -26 -17.5 -43.5t-42.5 -17.5t-42.5 17.5t-17.5 43.5q0 24 17.5 42t42.5 18z" />
    <glyph glyph-name="Igrave" unicode="&#xcc;" horiz-adv-x="259" 
d="M130 711q21 0 36.5 -14t15.5 -37v-618q0 -23 -15.5 -37.5t-36.5 -14.5q-22 0 -37.5 14.5t-15.5 37.5v618q0 23 15.5 37t37.5 14zM55 922q3 0 6.5 -0.5t8.5 -2.5l123 -52q14 -5 23 -16t9 -28q0 -20 -13.5 -33t-32.5 -13q-3 0 -6.5 0.5t-10.5 3.5l-120 51q-14 5 -23 16
t-9 28q0 19 13 32.5t32 13.5z" />
    <glyph glyph-name="Iacute" unicode="&#xcd;" horiz-adv-x="259" 
d="M130 711q21 0 36.5 -14t15.5 -37v-618q0 -23 -15.5 -37.5t-36.5 -14.5q-22 0 -37.5 14.5t-15.5 37.5v618q0 23 15.5 37t37.5 14zM204 922q19 0 32 -13.5t13 -32.5q0 -17 -8.5 -27t-24.5 -17l-119 -51q-9 -4 -17 -4q-19 0 -32.5 13t-13.5 33q0 31 32 44l123 52q7 3 15 3z
" />
    <glyph glyph-name="Icircumflex" unicode="&#xce;" horiz-adv-x="259" 
d="M130 711q21 0 36.5 -14t15.5 -37v-618q0 -23 -15.5 -37.5t-36.5 -14.5q-22 0 -37.5 14.5t-15.5 37.5v618q0 23 15.5 37t37.5 14zM129 922q13 0 25 -6l91 -51q27 -15 27 -42q0 -19 -13.5 -32.5t-33.5 -13.5q-5 0 -9 1t-11 5l-76 45l-76 -45q-11 -6 -20 -6q-20 0 -33 13.5
t-13 32.5q0 28 26 42l91 51q12 6 25 6z" />
    <glyph glyph-name="Idieresis" unicode="&#xcf;" horiz-adv-x="259" 
d="M130 711q21 0 36.5 -14t15.5 -37v-618q0 -23 -15.5 -37.5t-36.5 -14.5q-22 0 -37.5 14.5t-15.5 37.5v618q0 23 15.5 37t37.5 14zM223 902q26 0 43.5 -18t17.5 -42q0 -26 -17.5 -43.5t-43.5 -17.5q-25 0 -42.5 17.5t-17.5 43.5q0 24 17.5 42t42.5 18zM35 902
q25 0 42.5 -18t17.5 -42q0 -26 -17.5 -43.5t-42.5 -17.5t-42.5 17.5t-17.5 43.5q0 24 17.5 42t42.5 18z" />
    <glyph glyph-name="Eth" unicode="&#xd0;" horiz-adv-x="655" 
d="M321 701q64 0 115 -17.5t87 -52t55 -85t19 -117.5v-157q0 -132 -73 -202t-203 -70h-136q-26 0 -44.5 17.5t-18.5 43.5v248h-45q-23 0 -37 14.5t-14 36.5q0 21 14 35.5t37 14.5h45v230q0 26 18.5 43.5t44.5 17.5h136zM228 601v-191h93q23 0 37 -14.5t14 -35.5
q0 -22 -14 -36.5t-37 -14.5h-93v-209h95q81 0 125 44.5t44 125.5v161q0 83 -44.5 126.5t-124.5 43.5h-95z" />
    <glyph glyph-name="Ntilde" unicode="&#xd1;" horiz-adv-x="635" 
d="M506 711q22 0 37 -15t15 -38v-613q0 -23 -16 -39t-39 -16q-34 0 -52 32l-269 460v-439q0 -23 -15.5 -38t-36.5 -15q-22 0 -37.5 15t-15.5 38v613q0 23 15.5 39t38.5 16q35 0 53 -32l269 -459v438q0 23 15.5 38t37.5 15zM427 899q21 0 33.5 -13.5t12.5 -30.5
q0 -18 -11 -32q-17 -20 -42.5 -33t-55.5 -13q-20 0 -33.5 4.5t-23.5 10t-18 10t-18 4.5q-11 0 -21 -6.5t-21 -15.5q-8 -7 -22 -7q-21 0 -33.5 13.5t-12.5 29.5q0 10 3 16.5t8 14.5q17 22 42.5 35t55.5 13q20 0 33.5 -4.5t23.5 -10t18 -10t18 -4.5q11 0 20.5 6t20.5 15
q9 8 23 8z" />
    <glyph glyph-name="Ograve" unicode="&#xd2;" horiz-adv-x="611" 
d="M306 711q55 0 101 -16.5t78 -48t50 -76.5t18 -103v-233q0 -58 -18 -103t-50 -76.5t-78 -48t-101 -16.5q-56 0 -101.5 16.5t-78 48t-50.5 76.5t-18 103v233q0 58 18 103t50.5 76.5t78 48t101.5 16.5zM306 613q-66 0 -104 -36.5t-38 -101.5v-248q0 -66 38 -102.5t104 -36.5
t103.5 36.5t37.5 102.5v248q0 65 -37.5 101.5t-103.5 36.5zM231 922q3 0 6.5 -0.5t8.5 -2.5l123 -52q14 -5 23 -16t9 -28q0 -20 -13.5 -33t-32.5 -13q-3 0 -6.5 0.5t-10.5 3.5l-120 51q-14 5 -23 16t-9 28q0 19 13 32.5t32 13.5z" />
    <glyph glyph-name="Oacute" unicode="&#xd3;" horiz-adv-x="611" 
d="M306 711q55 0 101 -16.5t78 -48t50 -76.5t18 -103v-233q0 -58 -18 -103t-50 -76.5t-78 -48t-101 -16.5q-56 0 -101.5 16.5t-78 48t-50.5 76.5t-18 103v233q0 58 18 103t50.5 76.5t78 48t101.5 16.5zM306 613q-66 0 -104 -36.5t-38 -101.5v-248q0 -66 38 -102.5t104 -36.5
t103.5 36.5t37.5 102.5v248q0 65 -37.5 101.5t-103.5 36.5zM380 922q19 0 32 -13.5t13 -32.5q0 -17 -8.5 -27t-24.5 -17l-119 -51q-9 -4 -17 -4q-19 0 -32.5 13t-13.5 33q0 31 32 44l123 52q7 3 15 3z" />
    <glyph glyph-name="Ocircumflex" unicode="&#xd4;" horiz-adv-x="611" 
d="M306 711q55 0 101 -16.5t78 -48t50 -76.5t18 -103v-233q0 -58 -18 -103t-50 -76.5t-78 -48t-101 -16.5q-56 0 -101.5 16.5t-78 48t-50.5 76.5t-18 103v233q0 58 18 103t50.5 76.5t78 48t101.5 16.5zM306 613q-66 0 -104 -36.5t-38 -101.5v-248q0 -66 38 -102.5t104 -36.5
t103.5 36.5t37.5 102.5v248q0 65 -37.5 101.5t-103.5 36.5zM305 922q13 0 25 -6l91 -51q27 -15 27 -42q0 -19 -13.5 -32.5t-33.5 -13.5q-5 0 -9 1t-11 5l-76 45l-76 -45q-11 -6 -20 -6q-20 0 -33 13.5t-13 32.5q0 28 26 42l91 51q12 6 25 6z" />
    <glyph glyph-name="Otilde" unicode="&#xd5;" horiz-adv-x="611" 
d="M306 711q55 0 101 -16.5t78 -48t50 -76.5t18 -103v-233q0 -58 -18 -103t-50 -76.5t-78 -48t-101 -16.5q-56 0 -101.5 16.5t-78 48t-50.5 76.5t-18 103v233q0 58 18 103t50.5 76.5t78 48t101.5 16.5zM306 613q-66 0 -104 -36.5t-38 -101.5v-248q0 -66 38 -102.5t104 -36.5
t103.5 36.5t37.5 102.5v248q0 65 -37.5 101.5t-103.5 36.5zM415 899q21 0 33.5 -13.5t12.5 -30.5q0 -18 -11 -32q-17 -20 -42.5 -33t-55.5 -13q-20 0 -33.5 4.5t-23.5 10t-18 10t-18 4.5q-11 0 -21 -6.5t-21 -15.5q-8 -7 -22 -7q-21 0 -33.5 13.5t-12.5 29.5q0 10 3 16.5
t8 14.5q17 22 42.5 35t55.5 13q20 0 33.5 -4.5t23.5 -10t18 -10t18 -4.5q11 0 20.5 6t20.5 15q9 8 23 8z" />
    <glyph glyph-name="Odieresis" unicode="&#xd6;" horiz-adv-x="611" 
d="M306 711q55 0 101 -16.5t78 -48t50 -76.5t18 -103v-233q0 -58 -18 -103t-50 -76.5t-78 -48t-101 -16.5q-56 0 -101.5 16.5t-78 48t-50.5 76.5t-18 103v233q0 58 18 103t50.5 76.5t78 48t101.5 16.5zM306 613q-66 0 -104 -36.5t-38 -101.5v-248q0 -66 38 -102.5t104 -36.5
t103.5 36.5t37.5 102.5v248q0 65 -37.5 101.5t-103.5 36.5zM399 902q26 0 43.5 -18t17.5 -42q0 -26 -17.5 -43.5t-43.5 -17.5q-25 0 -42.5 17.5t-17.5 43.5q0 24 17.5 42t42.5 18zM211 902q25 0 42.5 -18t17.5 -42q0 -26 -17.5 -43.5t-42.5 -17.5t-42.5 17.5t-17.5 43.5
q0 24 17.5 42t42.5 18z" />
    <glyph glyph-name="multiply" unicode="&#xd7;" 
d="M443 468q19 0 34 -14t15 -35q0 -9 -3.5 -18.5t-11.5 -16.5l-136 -128l130 -129q14 -14 14 -34t-14.5 -34.5t-34.5 -14.5q-18 0 -34 15l-129 129l-129 -129q-15 -15 -34 -15t-34 13.5t-15 35.5q0 19 15 34l129 129l-129 128q-8 7 -11.5 16.5t-3.5 18.5q0 18 14 33.5
t34 15.5q9 0 18.5 -3.5t16.5 -11.5l129 -129l135 129q17 15 35 15z" />
    <glyph glyph-name="Oslash" unicode="&#xd8;" horiz-adv-x="611" 
d="M471 763q20 0 33 -12.5t13 -31.5q0 -12 -6 -25l-23 -50q31 -32 48 -76t17 -101v-233q0 -58 -18 -103t-50 -76.5t-78 -48t-101 -16.5q-59 0 -105 18l-19 -42q-5 -12 -15.5 -20t-26.5 -8q-20 0 -32.5 12.5t-12.5 31.5q0 13 6 25l22 50q-31 32 -48 76t-17 101v233
q0 58 18 103t50.5 76.5t78 48t101.5 16.5q57 0 104 -18l19 42q5 12 15.5 20t26.5 8zM242 99q30 -11 64 -11q66 0 103.5 36.5t37.5 102.5v248q0 31 -9 57zM306 613q-66 0 -104 -36.5t-38 -101.5v-248q0 -34 10 -58l195 433q-28 11 -63 11z" />
    <glyph glyph-name="Ugrave" unicode="&#xd9;" horiz-adv-x="635" 
d="M515 711q21 0 37 -15t16 -38v-420q0 -119 -65 -183.5t-185 -64.5q-125 0 -188 64.5t-63 183.5v420q0 23 16 38t38 15q21 0 36.5 -15t15.5 -38v-424q0 -69 37.5 -107.5t107.5 -38.5t107 38.5t37 107.5v424q0 23 15.5 38t37.5 15zM237 922q3 0 6.5 -0.5t8.5 -2.5l123 -52
q14 -5 23 -16t9 -28q0 -20 -13.5 -33t-32.5 -13q-3 0 -6.5 0.5t-10.5 3.5l-120 51q-14 5 -23 16t-9 28q0 19 13 32.5t32 13.5z" />
    <glyph glyph-name="Uacute" unicode="&#xda;" horiz-adv-x="635" 
d="M515 711q21 0 37 -15t16 -38v-420q0 -119 -65 -183.5t-185 -64.5q-125 0 -188 64.5t-63 183.5v420q0 23 16 38t38 15q21 0 36.5 -15t15.5 -38v-424q0 -69 37.5 -107.5t107.5 -38.5t107 38.5t37 107.5v424q0 23 15.5 38t37.5 15zM385 922q19 0 32 -13.5t13 -32.5
q0 -17 -8.5 -27t-24.5 -17l-119 -51q-9 -4 -17 -4q-19 0 -32.5 13t-13.5 33q0 31 32 44l123 52q7 3 15 3z" />
    <glyph glyph-name="Ucircumflex" unicode="&#xdb;" horiz-adv-x="635" 
d="M515 711q21 0 37 -15t16 -38v-420q0 -119 -65 -183.5t-185 -64.5q-125 0 -188 64.5t-63 183.5v420q0 23 16 38t38 15q21 0 36.5 -15t15.5 -38v-424q0 -69 37.5 -107.5t107.5 -38.5t107 38.5t37 107.5v424q0 23 15.5 38t37.5 15zM316 922q13 0 25 -6l91 -51q27 -15 27 -42
q0 -19 -13.5 -32.5t-33.5 -13.5q-5 0 -9 1t-11 5l-76 45l-76 -45q-11 -6 -20 -6q-20 0 -33 13.5t-13 32.5q0 28 26 42l91 51q12 6 25 6z" />
    <glyph glyph-name="Udieresis" unicode="&#xdc;" horiz-adv-x="635" 
d="M515 711q21 0 37 -15t16 -38v-420q0 -119 -65 -183.5t-185 -64.5q-125 0 -188 64.5t-63 183.5v420q0 23 16 38t38 15q21 0 36.5 -15t15.5 -38v-424q0 -69 37.5 -107.5t107.5 -38.5t107 38.5t37 107.5v424q0 23 15.5 38t37.5 15zM410 902q26 0 43.5 -18t17.5 -42
q0 -26 -17.5 -43.5t-43.5 -17.5q-25 0 -42.5 17.5t-17.5 43.5q0 24 17.5 42t42.5 18zM222 902q25 0 42.5 -18t17.5 -42q0 -26 -17.5 -43.5t-42.5 -17.5t-42.5 17.5t-17.5 43.5q0 24 17.5 42t42.5 18z" />
    <glyph glyph-name="Yacute" unicode="&#xdd;" horiz-adv-x="519" 
d="M455 711q21 0 36 -14t15 -36q0 -9 -3 -16.5t-8 -15.5l-183 -321v-265q0 -23 -14.5 -38t-37.5 -15q-24 0 -38.5 15t-14.5 38v265l-183 321q-5 8 -8 15.5t-3 16.5q0 22 15 36t36 14q14 0 24.5 -5t18.5 -19l153 -278l152 277q8 14 18.5 19.5t24.5 5.5zM334 922
q19 0 32 -13.5t13 -32.5q0 -17 -8.5 -27t-24.5 -17l-119 -51q-9 -4 -17 -4q-19 0 -32.5 13t-13.5 33q0 31 32 44l123 52q7 3 15 3z" />
    <glyph glyph-name="Thorn" unicode="&#xde;" horiz-adv-x="577" 
d="M130 711q21 0 36.5 -14t15.5 -37v-99h131q98 0 154 -56.5t56 -154.5q0 -99 -60 -153.5t-164 -54.5h-117v-100q0 -23 -15.5 -37.5t-36.5 -14.5q-22 0 -37.5 14.5t-15.5 37.5v618q0 23 15.5 37t37.5 14zM182 465v-225h117q53 0 85.5 28.5t32.5 82.5q0 55 -32 84.5t-86 29.5
h-117z" />
    <glyph glyph-name="germandbls" unicode="&#xdf;" horiz-adv-x="578" 
d="M271 711q41 0 77 -11t62.5 -32t41.5 -51t15 -69t-16.5 -67.5t-39.5 -49.5q-20 -17 -37.5 -32.5t-17.5 -37.5q0 -15 9.5 -25t22.5 -18q12 -7 38 -21.5t49 -30.5q29 -20 47 -50t18 -72q0 -37 -13.5 -65.5t-34.5 -48t-47 -30t-50 -10.5q-41 0 -67 8t-54 22q-25 13 -25 41
q0 19 12.5 32t30.5 13q8 0 14.5 -2.5t12.5 -5.5q17 -8 32 -13t34 -5q26 0 42.5 18t16.5 42q0 16 -8.5 31t-26.5 26q-7 4 -18.5 11.5t-24 15.5t-25.5 16.5t-24 16.5q-23 15 -40 39.5t-17 62.5q0 44 18.5 71t41.5 45t37 34.5t14 43.5q0 31 -28.5 49.5t-70.5 18.5
q-45 0 -72.5 -24.5t-27.5 -71.5v-485q0 -23 -15 -36.5t-35 -13.5t-35 14t-15 36v484q0 43 14.5 77.5t40.5 59t63 37.5t81 13z" />
    <glyph glyph-name="agrave" unicode="&#xe0;" horiz-adv-x="511" 
d="M251 517q40 0 75.5 -10t62 -30.5t42 -51.5t15.5 -72v-283q0 -17 -10 -33t-30 -23q-30 -11 -71 -17.5t-83 -6.5q-47 0 -85.5 9t-66 28.5t-42.5 50.5t-15 74t16.5 73.5t45 50t66.5 28t81 8.5h91v40q0 29 -21.5 49.5t-66.5 20.5q-26 0 -47 -4t-41 -14q-13 -6 -23.5 -10.5
t-22.5 -4.5q-18 0 -33 13.5t-15 34.5q0 27 24 41q21 13 61 26t93 13zM249 217q-47 0 -75 -14.5t-28 -52.5q0 -40 28.5 -53t76.5 -13q47 0 92 12v121h-94zM186 731q3 0 6.5 -0.5t8.5 -2.5l123 -52q14 -5 23 -16t9 -28q0 -20 -13.5 -33t-32.5 -13q-8 0 -15 3l-122 52
q-15 6 -24 16.5t-9 27.5q0 19 13.5 32.5t32.5 13.5z" />
    <glyph glyph-name="aacute" unicode="&#xe1;" horiz-adv-x="511" 
d="M251 517q40 0 75.5 -10t62 -30.5t42 -51.5t15.5 -72v-283q0 -17 -10 -33t-30 -23q-30 -11 -71 -17.5t-83 -6.5q-47 0 -85.5 9t-66 28.5t-42.5 50.5t-15 74t16.5 73.5t45 50t66.5 28t81 8.5h91v40q0 29 -21.5 49.5t-66.5 20.5q-26 0 -47 -4t-41 -14q-13 -6 -23.5 -10.5
t-22.5 -4.5q-18 0 -33 13.5t-15 34.5q0 27 24 41q21 13 61 26t93 13zM249 217q-47 0 -75 -14.5t-28 -52.5q0 -40 28.5 -53t76.5 -13q47 0 92 12v121h-94zM334 731q19 0 32.5 -13.5t13.5 -32.5q0 -17 -8.5 -27t-24.5 -17l-122 -52q-8 -3 -15 -3q-19 0 -32.5 13t-13.5 33
q0 17 9 28t23 16l123 52q5 2 8.5 2.5t6.5 0.5z" />
    <glyph glyph-name="acircumflex" unicode="&#xe2;" horiz-adv-x="511" 
d="M251 517q40 0 75.5 -10t62 -30.5t42 -51.5t15.5 -72v-283q0 -17 -10 -33t-30 -23q-30 -11 -71 -17.5t-83 -6.5q-47 0 -85.5 9t-66 28.5t-42.5 50.5t-15 74t16.5 73.5t45 50t66.5 28t81 8.5h91v40q0 29 -21.5 49.5t-66.5 20.5q-26 0 -47 -4t-41 -14q-13 -6 -23.5 -10.5
t-22.5 -4.5q-18 0 -33 13.5t-15 34.5q0 27 24 41q21 13 61 26t93 13zM249 217q-47 0 -75 -14.5t-28 -52.5q0 -40 28.5 -53t76.5 -13q47 0 92 12v121h-94zM260 731q13 0 25 -6l91 -51q27 -15 27 -42q0 -19 -13.5 -32.5t-33.5 -13.5q-5 0 -9 1t-11 5l-76 45l-76 -45
q-11 -6 -20 -6q-20 0 -33 13.5t-13 32.5q0 28 26 42l91 51q12 6 25 6z" />
    <glyph glyph-name="atilde" unicode="&#xe3;" horiz-adv-x="511" 
d="M251 517q40 0 75.5 -10t62 -30.5t42 -51.5t15.5 -72v-283q0 -17 -10 -33t-30 -23q-30 -11 -71 -17.5t-83 -6.5q-47 0 -85.5 9t-66 28.5t-42.5 50.5t-15 74t16.5 73.5t45 50t66.5 28t81 8.5h91v40q0 29 -21.5 49.5t-66.5 20.5q-26 0 -47 -4t-41 -14q-13 -6 -23.5 -10.5
t-22.5 -4.5q-18 0 -33 13.5t-15 34.5q0 27 24 41q21 13 61 26t93 13zM249 217q-47 0 -75 -14.5t-28 -52.5q0 -40 28.5 -53t76.5 -13q47 0 92 12v121h-94zM370 708q21 0 33.5 -13.5t12.5 -30.5q0 -18 -11 -32q-17 -20 -42.5 -33t-55.5 -13q-20 0 -33.5 4.5t-23.5 10t-18 10
t-18 4.5q-11 0 -21 -6.5t-21 -15.5q-8 -7 -22 -7q-21 0 -33.5 13.5t-12.5 29.5q0 10 3 16.5t8 14.5q17 22 42.5 35t55.5 13q20 0 33.5 -4.5t23.5 -10t18 -10t18 -4.5q11 0 20.5 6t20.5 15q9 8 23 8z" />
    <glyph glyph-name="adieresis" unicode="&#xe4;" horiz-adv-x="511" 
d="M251 517q40 0 75.5 -10t62 -30.5t42 -51.5t15.5 -72v-283q0 -17 -10 -33t-30 -23q-30 -11 -71 -17.5t-83 -6.5q-47 0 -85.5 9t-66 28.5t-42.5 50.5t-15 74t16.5 73.5t45 50t66.5 28t81 8.5h91v40q0 29 -21.5 49.5t-66.5 20.5q-26 0 -47 -4t-41 -14q-13 -6 -23.5 -10.5
t-22.5 -4.5q-18 0 -33 13.5t-15 34.5q0 27 24 41q21 13 61 26t93 13zM249 217q-47 0 -75 -14.5t-28 -52.5q0 -40 28.5 -53t76.5 -13q47 0 92 12v121h-94zM354 711q26 0 43.5 -18t17.5 -42q0 -26 -17.5 -43.5t-43.5 -17.5q-25 0 -42.5 17.5t-17.5 43.5q0 24 17.5 42t42.5 18z
M166 711q25 0 42.5 -18t17.5 -42q0 -26 -17.5 -43.5t-42.5 -17.5t-42.5 17.5t-17.5 43.5q0 24 17.5 42t42.5 18z" />
    <glyph glyph-name="aring" unicode="&#xe5;" horiz-adv-x="511" 
d="M251 517q40 0 75.5 -10t62 -30.5t42 -51.5t15.5 -72v-283q0 -17 -10 -33t-30 -23q-30 -11 -71 -17.5t-83 -6.5q-47 0 -85.5 9t-66 28.5t-42.5 50.5t-15 74t16.5 73.5t45 50t66.5 28t81 8.5h91v40q0 29 -21.5 49.5t-66.5 20.5q-26 0 -47 -4t-41 -14q-13 -6 -23.5 -10.5
t-22.5 -4.5q-18 0 -33 13.5t-15 34.5q0 27 24 41q21 13 61 26t93 13zM249 217q-47 0 -75 -14.5t-28 -52.5q0 -40 28.5 -53t76.5 -13q47 0 92 12v121h-94zM258 789q22 0 42 -8.5t34 -22.5t22.5 -33.5t8.5 -41.5t-8.5 -41.5t-22.5 -34t-34 -23t-42 -8.5t-41.5 8.5t-33.5 23
t-22.5 34t-8.5 41.5q0 45 30.5 75.5t75.5 30.5zM258 727q-18 0 -31 -12.5t-13 -31.5t13 -31.5t31 -12.5q19 0 31.5 12t12.5 32q0 19 -12.5 31.5t-31.5 12.5z" />
    <glyph glyph-name="ae" unicode="&#xe6;" horiz-adv-x="797" 
d="M542 517q46 0 83 -14.5t63.5 -41t40.5 -63.5t14 -82v-43q0 -22 -16.5 -41.5t-46.5 -19.5h-237v-25q0 -20 5 -38.5t17 -32.5t31 -23t46 -9q33 0 57 6.5t44 14.5q22 9 35 9q20 0 33.5 -13.5t13.5 -33.5q0 -14 -6.5 -25t-20.5 -18q-17 -9 -38 -15t-42.5 -10.5t-41.5 -6.5
t-34 -2q-50 0 -89.5 18.5t-63.5 51.5q-26 -35 -67.5 -52.5t-86.5 -17.5q-43 0 -78.5 9.5t-61.5 29t-40.5 49.5t-14.5 71q0 42 15.5 72t43.5 48.5t65 27.5t81 9h95v46q0 29 -21.5 49.5t-65.5 20.5q-26 0 -47.5 -4t-41.5 -14q-12 -6 -22.5 -10.5t-22.5 -4.5q-18 0 -33 13.5
t-15 34.5q0 27 24 41q21 13 61 26t93 13q47 0 86.5 -15t62.5 -45q25 29 61 44.5t83 15.5zM242 212q-48 0 -73.5 -16t-25.5 -49q0 -35 26 -49t68 -14t72.5 25t30.5 65v38h-98zM542 422q-52 0 -75.5 -27.5t-23.5 -75.5v-13h197v10q0 51 -23 78.5t-75 27.5z" />
    <glyph glyph-name="ccedilla" unicode="&#xe7;" horiz-adv-x="445" 
d="M255 517q39 0 76.5 -9t67.5 -26q26 -15 26 -43q0 -20 -13 -33.5t-33 -13.5q-15 0 -25.5 5t-24.5 11q-15 6 -34 10t-42 4q-45 0 -71 -26.5t-26 -79.5v-125q0 -53 25.5 -80t71.5 -27q23 0 42.5 4.5t34.5 11.5q13 5 23 9.5t24 4.5q21 0 34.5 -13t13.5 -34q0 -28 -26 -43
q-25 -13 -54.5 -21.5t-61.5 -11.5l-6 -23q21 -10 36.5 -27.5t15.5 -43.5q0 -40 -27.5 -69.5t-69.5 -42.5q-15 -5 -27 -6.5t-25 -1.5q-17 0 -26.5 10t-9.5 26q0 31 35 37q7 1 19 4t23 8t19.5 12.5t8.5 18.5t-9 17t-23 11q-11 5 -17.5 12t-6.5 20q0 8 3 22l5 20
q-69 15 -108.5 66t-39.5 130v125q0 48 15 85.5t41.5 63t63.5 39t82 13.5z" />
    <glyph glyph-name="egrave" unicode="&#xe8;" horiz-adv-x="510" 
d="M255 517q46 0 83 -14.5t63.5 -41t40.5 -63.5t14 -82v-49q0 -22 -16.5 -41.5t-46.5 -19.5h-237v-19q0 -20 5 -38.5t17 -32.5t31 -23t46 -9q33 0 57 6.5t44 14.5q22 9 35 9q20 0 33.5 -13.5t13.5 -33.5q0 -14 -6.5 -25t-20.5 -18q-17 -9 -38 -15t-42.5 -10.5t-41.5 -6.5
t-34 -2q-48 0 -86 15t-63.5 42t-39 64t-13.5 80v125q0 45 14 82.5t40.5 63.5t63.5 40.5t84 14.5zM255 422q-52 0 -75.5 -27.5t-23.5 -75.5v-18h197v15q0 51 -23 78.5t-75 27.5zM182 731q3 0 6.5 -0.5t8.5 -2.5l123 -52q14 -5 23 -16t9 -28q0 -20 -13.5 -33t-32.5 -13
q-8 0 -15 3l-122 52q-15 6 -24 16.5t-9 27.5q0 19 13.5 32.5t32.5 13.5z" />
    <glyph glyph-name="eacute" unicode="&#xe9;" horiz-adv-x="510" 
d="M255 517q46 0 83 -14.5t63.5 -41t40.5 -63.5t14 -82v-49q0 -22 -16.5 -41.5t-46.5 -19.5h-237v-19q0 -20 5 -38.5t17 -32.5t31 -23t46 -9q33 0 57 6.5t44 14.5q22 9 35 9q20 0 33.5 -13.5t13.5 -33.5q0 -14 -6.5 -25t-20.5 -18q-17 -9 -38 -15t-42.5 -10.5t-41.5 -6.5
t-34 -2q-48 0 -86 15t-63.5 42t-39 64t-13.5 80v125q0 45 14 82.5t40.5 63.5t63.5 40.5t84 14.5zM255 422q-52 0 -75.5 -27.5t-23.5 -75.5v-18h197v15q0 51 -23 78.5t-75 27.5zM330 731q19 0 32.5 -13.5t13.5 -32.5q0 -17 -8.5 -27t-24.5 -17l-122 -52q-8 -3 -15 -3
q-19 0 -32.5 13t-13.5 33q0 17 9 28t23 16l123 52q5 2 8.5 2.5t6.5 0.5z" />
    <glyph glyph-name="ecircumflex" unicode="&#xea;" horiz-adv-x="510" 
d="M255 517q46 0 83 -14.5t63.5 -41t40.5 -63.5t14 -82v-49q0 -22 -16.5 -41.5t-46.5 -19.5h-237v-19q0 -20 5 -38.5t17 -32.5t31 -23t46 -9q33 0 57 6.5t44 14.5q22 9 35 9q20 0 33.5 -13.5t13.5 -33.5q0 -14 -6.5 -25t-20.5 -18q-17 -9 -38 -15t-42.5 -10.5t-41.5 -6.5
t-34 -2q-48 0 -86 15t-63.5 42t-39 64t-13.5 80v125q0 45 14 82.5t40.5 63.5t63.5 40.5t84 14.5zM255 422q-52 0 -75.5 -27.5t-23.5 -75.5v-18h197v15q0 51 -23 78.5t-75 27.5zM255 731q13 0 25 -6l91 -51q27 -15 27 -42q0 -19 -13.5 -32.5t-33.5 -13.5q-5 0 -9 1t-11 5
l-76 45l-76 -45q-11 -6 -20 -6q-20 0 -33 13.5t-13 32.5q0 28 26 42l91 51q12 6 25 6z" />
    <glyph glyph-name="edieresis" unicode="&#xeb;" horiz-adv-x="510" 
d="M255 517q46 0 83 -14.5t63.5 -41t40.5 -63.5t14 -82v-49q0 -22 -16.5 -41.5t-46.5 -19.5h-237v-19q0 -20 5 -38.5t17 -32.5t31 -23t46 -9q33 0 57 6.5t44 14.5q22 9 35 9q20 0 33.5 -13.5t13.5 -33.5q0 -14 -6.5 -25t-20.5 -18q-17 -9 -38 -15t-42.5 -10.5t-41.5 -6.5
t-34 -2q-48 0 -86 15t-63.5 42t-39 64t-13.5 80v125q0 45 14 82.5t40.5 63.5t63.5 40.5t84 14.5zM255 422q-52 0 -75.5 -27.5t-23.5 -75.5v-18h197v15q0 51 -23 78.5t-75 27.5zM349 711q26 0 43.5 -18t17.5 -42q0 -26 -17.5 -43.5t-43.5 -17.5q-25 0 -42.5 17.5t-17.5 43.5
q0 24 17.5 42t42.5 18zM161 711q25 0 42.5 -18t17.5 -42q0 -26 -17.5 -43.5t-42.5 -17.5t-42.5 17.5t-17.5 43.5q0 24 17.5 42t42.5 18z" />
    <glyph glyph-name="igrave" unicode="&#xec;" horiz-adv-x="247" 
d="M124 517q22 0 36.5 -14t14.5 -37v-425q0 -23 -14.5 -37t-36.5 -14q-23 0 -37.5 14t-14.5 37v425q0 23 14.5 37t37.5 14zM50 731q3 0 6.5 -0.5t8.5 -2.5l123 -52q14 -5 23 -16t9 -28q0 -20 -13.5 -33t-32.5 -13q-8 0 -15 3l-122 52q-15 6 -24 16.5t-9 27.5q0 19 13.5 32.5
t32.5 13.5z" />
    <glyph glyph-name="iacute" unicode="&#xed;" horiz-adv-x="247" 
d="M124 517q22 0 36.5 -14t14.5 -37v-425q0 -23 -14.5 -37t-36.5 -14q-23 0 -37.5 14t-14.5 37v425q0 23 14.5 37t37.5 14zM198 731q19 0 32.5 -13.5t13.5 -32.5q0 -17 -8.5 -27t-24.5 -17l-122 -52q-8 -3 -15 -3q-19 0 -32.5 13t-13.5 33q0 17 9 28t23 16l123 52
q5 2 8.5 2.5t6.5 0.5z" />
    <glyph glyph-name="icircumflex" unicode="&#xee;" horiz-adv-x="247" 
d="M124 517q22 0 36.5 -14t14.5 -37v-425q0 -23 -14.5 -37t-36.5 -14q-23 0 -37.5 14t-14.5 37v425q0 23 14.5 37t37.5 14zM123 731q13 0 25 -6l91 -51q27 -15 27 -42q0 -19 -13.5 -32.5t-33.5 -13.5q-5 0 -9 1t-11 5l-76 45l-76 -45q-11 -6 -20 -6q-20 0 -33 13.5t-13 32.5
q0 28 26 42l91 51q12 6 25 6z" />
    <glyph glyph-name="idieresis" unicode="&#xef;" horiz-adv-x="247" 
d="M124 517q22 0 36.5 -14t14.5 -37v-425q0 -23 -14.5 -37t-36.5 -14q-23 0 -37.5 14t-14.5 37v425q0 23 14.5 37t37.5 14zM217 711q26 0 43.5 -18t17.5 -42q0 -26 -17.5 -43.5t-43.5 -17.5q-25 0 -42.5 17.5t-17.5 43.5q0 24 17.5 42t42.5 18zM29 711q25 0 42.5 -18
t17.5 -42q0 -26 -17.5 -43.5t-42.5 -17.5t-42.5 17.5t-17.5 43.5q0 24 17.5 42t42.5 18z" />
    <glyph glyph-name="eth" unicode="&#xf0;" horiz-adv-x="552" 
d="M439 711q18 0 29.5 -12.5t11.5 -30.5q0 -12 -6.5 -22.5t-20.5 -16.5l-53 -25q47 -57 63.5 -136.5t16.5 -175.5v-94q0 -100 -54.5 -154t-155.5 -54q-99 0 -155 52.5t-56 155.5v60q0 101 55.5 154t155.5 53q54 0 97 -17q-8 38 -22.5 65.5t-35.5 48.5l-86 -41q-10 -5 -21 -5
q-17 0 -30 12t-13 30q0 27 26 40l38 18q-8 4 -17.5 7t-18.5 6q-28 11 -28 39q0 17 11.5 30t31.5 13h5q2 0 7 -1q12 -2 27 -6.5t31 -10.5t30.5 -13.5t26.5 -14.5l86 40q13 6 24 6zM270 371q-51 0 -80 -27.5t-29 -80.5v-70q0 -54 29 -81.5t80 -27.5t79.5 27.5t28.5 81.5v70
q0 53 -28.5 80.5t-79.5 27.5z" />
    <glyph glyph-name="ntilde" unicode="&#xf1;" horiz-adv-x="542" 
d="M273 517q101 0 151.5 -50t50.5 -147v-279q0 -23 -14.5 -37t-36.5 -14q-23 0 -37.5 14t-14.5 37v283q0 48 -25 73t-74 25q-50 0 -98 -14v-367q0 -23 -14.5 -37t-36.5 -14q-23 0 -37.5 14t-14.5 37v391q0 21 11.5 36.5t33.5 22.5q37 12 75.5 19t80.5 7zM382 708
q21 0 33.5 -13.5t12.5 -30.5q0 -18 -11 -32q-17 -20 -42.5 -33t-55.5 -13q-20 0 -33.5 4.5t-23.5 10t-18 10t-18 4.5q-11 0 -21 -6.5t-21 -15.5q-8 -7 -22 -7q-21 0 -33.5 13.5t-12.5 29.5q0 10 3 16.5t8 14.5q17 22 42.5 35t55.5 13q20 0 33.5 -4.5t23.5 -10t18 -10
t18 -4.5q11 0 20.5 6t20.5 15q9 8 23 8z" />
    <glyph glyph-name="ograve" unicode="&#xf2;" horiz-adv-x="527" 
d="M264 517q100 0 155 -54.5t55 -154.5v-109q0 -99 -54.5 -154t-155.5 -55q-98 0 -154.5 53.5t-56.5 155.5v109q0 101 55.5 155t155.5 54zM264 422q-51 0 -79.5 -27.5t-28.5 -80.5v-121q0 -54 28.5 -81.5t79.5 -27.5t79 27.5t28 81.5v121q0 53 -28 80.5t-79 27.5zM190 731
q3 0 6.5 -0.5t8.5 -2.5l123 -52q14 -5 23 -16t9 -28q0 -20 -13.5 -33t-32.5 -13q-8 0 -15 3l-122 52q-15 6 -24 16.5t-9 27.5q0 19 13.5 32.5t32.5 13.5z" />
    <glyph glyph-name="oacute" unicode="&#xf3;" horiz-adv-x="527" 
d="M264 517q100 0 155 -54.5t55 -154.5v-109q0 -99 -54.5 -154t-155.5 -55q-98 0 -154.5 53.5t-56.5 155.5v109q0 101 55.5 155t155.5 54zM264 422q-51 0 -79.5 -27.5t-28.5 -80.5v-121q0 -54 28.5 -81.5t79.5 -27.5t79 27.5t28 81.5v121q0 53 -28 80.5t-79 27.5zM338 731
q19 0 32.5 -13.5t13.5 -32.5q0 -17 -8.5 -27t-24.5 -17l-122 -52q-8 -3 -15 -3q-19 0 -32.5 13t-13.5 33q0 17 9 28t23 16l123 52q5 2 8.5 2.5t6.5 0.5z" />
    <glyph glyph-name="ocircumflex" unicode="&#xf4;" horiz-adv-x="527" 
d="M264 517q100 0 155 -54.5t55 -154.5v-109q0 -99 -54.5 -154t-155.5 -55q-98 0 -154.5 53.5t-56.5 155.5v109q0 101 55.5 155t155.5 54zM264 422q-51 0 -79.5 -27.5t-28.5 -80.5v-121q0 -54 28.5 -81.5t79.5 -27.5t79 27.5t28 81.5v121q0 53 -28 80.5t-79 27.5zM264 731
q13 0 25 -6l91 -51q27 -15 27 -42q0 -19 -13.5 -32.5t-33.5 -13.5q-5 0 -9 1t-11 5l-76 45l-76 -45q-11 -6 -20 -6q-20 0 -33 13.5t-13 32.5q0 28 26 42l91 51q12 6 25 6z" />
    <glyph glyph-name="otilde" unicode="&#xf5;" horiz-adv-x="527" 
d="M264 517q100 0 155 -54.5t55 -154.5v-109q0 -99 -54.5 -154t-155.5 -55q-98 0 -154.5 53.5t-56.5 155.5v109q0 101 55.5 155t155.5 54zM264 422q-51 0 -79.5 -27.5t-28.5 -80.5v-121q0 -54 28.5 -81.5t79.5 -27.5t79 27.5t28 81.5v121q0 53 -28 80.5t-79 27.5zM374 708
q21 0 33.5 -13.5t12.5 -30.5q0 -18 -11 -32q-17 -20 -42.5 -33t-55.5 -13q-20 0 -33.5 4.5t-23.5 10t-18 10t-18 4.5q-11 0 -21 -6.5t-21 -15.5q-8 -7 -22 -7q-21 0 -33.5 13.5t-12.5 29.5q0 10 3 16.5t8 14.5q17 22 42.5 35t55.5 13q20 0 33.5 -4.5t23.5 -10t18 -10
t18 -4.5q11 0 20.5 6t20.5 15q9 8 23 8z" />
    <glyph glyph-name="odieresis" unicode="&#xf6;" horiz-adv-x="527" 
d="M264 517q100 0 155 -54.5t55 -154.5v-109q0 -99 -54.5 -154t-155.5 -55q-98 0 -154.5 53.5t-56.5 155.5v109q0 101 55.5 155t155.5 54zM264 422q-51 0 -79.5 -27.5t-28.5 -80.5v-121q0 -54 28.5 -81.5t79.5 -27.5t79 27.5t28 81.5v121q0 53 -28 80.5t-79 27.5zM358 711
q26 0 43.5 -18t17.5 -42q0 -26 -17.5 -43.5t-43.5 -17.5q-25 0 -42.5 17.5t-17.5 43.5q0 24 17.5 42t42.5 18zM170 711q25 0 42.5 -18t17.5 -42q0 -26 -17.5 -43.5t-42.5 -17.5t-42.5 17.5t-17.5 43.5q0 24 17.5 42t42.5 18z" />
    <glyph glyph-name="divide" unicode="&#xf7;" 
d="M468 304q21 0 34.5 -14t13.5 -35t-13.5 -35t-34.5 -14h-383q-21 0 -34.5 14t-13.5 35t13.5 35t34.5 14h383zM276 111q25 0 42.5 -17.5t17.5 -42.5q0 -26 -17.5 -43.5t-42.5 -17.5t-42.5 17.5t-17.5 43.5q0 25 17.5 42.5t42.5 17.5zM276 517q25 0 42.5 -17.5t17.5 -42.5
q0 -26 -17.5 -43.5t-42.5 -17.5t-42.5 17.5t-17.5 43.5q0 25 17.5 42.5t42.5 17.5z" />
    <glyph glyph-name="oslash" unicode="&#xf8;" horiz-adv-x="527" 
d="M414 573q15 0 25 -10t10 -26q0 -5 -2 -9.5t-4 -9.5l-28 -52q29 -27 44 -67t15 -91v-109q0 -99 -54.5 -154t-155.5 -55q-52 0 -92 15l-26 -48q-5 -11 -13.5 -15t-17.5 -4q-16 0 -26 9.5t-10 25.5q0 10 5 18l27 51q-28 27 -43 66.5t-15 90.5v109q0 101 55.5 155t155.5 54
q52 0 91 -15l27 51q5 11 14 15.5t18 4.5zM264 422q-51 0 -79.5 -27.5t-28.5 -80.5v-121q0 -29 9 -50l144 272q-18 7 -45 7zM217 92q22 -8 47 -8q51 0 79 27.5t28 81.5v121q0 30 -9 51z" />
    <glyph glyph-name="ugrave" unicode="&#xf9;" horiz-adv-x="542" 
d="M418 517q23 0 37.5 -14t14.5 -37v-392q0 -20 -12 -35.5t-33 -22.5q-37 -12 -75.5 -19t-80.5 -7q-202 0 -202 197v279q0 23 14.5 37t36.5 14q23 0 37.5 -14t14.5 -37v-283q0 -48 24.5 -73.5t74.5 -25.5q26 0 50 4t48 10v368q0 23 14.5 37t36.5 14zM195 731q3 0 6.5 -0.5
t8.5 -2.5l123 -52q14 -5 23 -16t9 -28q0 -20 -13.5 -33t-32.5 -13q-8 0 -15 3l-122 52q-15 6 -24 16.5t-9 27.5q0 19 13.5 32.5t32.5 13.5z" />
    <glyph glyph-name="uacute" unicode="&#xfa;" horiz-adv-x="542" 
d="M418 517q23 0 37.5 -14t14.5 -37v-392q0 -20 -12 -35.5t-33 -22.5q-37 -12 -75.5 -19t-80.5 -7q-202 0 -202 197v279q0 23 14.5 37t36.5 14q23 0 37.5 -14t14.5 -37v-283q0 -48 24.5 -73.5t74.5 -25.5q26 0 50 4t48 10v368q0 23 14.5 37t36.5 14zM343 731
q19 0 32.5 -13.5t13.5 -32.5q0 -17 -8.5 -27t-24.5 -17l-122 -52q-8 -3 -15 -3q-19 0 -32.5 13t-13.5 33q0 17 9 28t23 16l123 52q5 2 8.5 2.5t6.5 0.5z" />
    <glyph glyph-name="ucircumflex" unicode="&#xfb;" horiz-adv-x="542" 
d="M418 517q23 0 37.5 -14t14.5 -37v-392q0 -20 -12 -35.5t-33 -22.5q-37 -12 -75.5 -19t-80.5 -7q-202 0 -202 197v279q0 23 14.5 37t36.5 14q23 0 37.5 -14t14.5 -37v-283q0 -48 24.5 -73.5t74.5 -25.5q26 0 50 4t48 10v368q0 23 14.5 37t36.5 14zM269 731q13 0 25 -6
l91 -51q27 -15 27 -42q0 -19 -13.5 -32.5t-33.5 -13.5q-5 0 -9 1t-11 5l-76 45l-76 -45q-11 -6 -20 -6q-20 0 -33 13.5t-13 32.5q0 28 26 42l91 51q12 6 25 6z" />
    <glyph glyph-name="udieresis" unicode="&#xfc;" horiz-adv-x="542" 
d="M418 517q23 0 37.5 -14t14.5 -37v-392q0 -20 -12 -35.5t-33 -22.5q-37 -12 -75.5 -19t-80.5 -7q-202 0 -202 197v279q0 23 14.5 37t36.5 14q23 0 37.5 -14t14.5 -37v-283q0 -48 24.5 -73.5t74.5 -25.5q26 0 50 4t48 10v368q0 23 14.5 37t36.5 14zM363 711q26 0 43.5 -18
t17.5 -42q0 -26 -17.5 -43.5t-43.5 -17.5q-25 0 -42.5 17.5t-17.5 43.5q0 24 17.5 42t42.5 18zM175 711q25 0 42.5 -18t17.5 -42q0 -26 -17.5 -43.5t-42.5 -17.5t-42.5 17.5t-17.5 43.5q0 24 17.5 42t42.5 18z" />
    <glyph glyph-name="yacute" unicode="&#xfd;" horiz-adv-x="481" 
d="M410 517q26 0 38.5 -15.5t12.5 -34.5q0 -8 -4 -20l-185 -533q-25 -70 -74.5 -103.5t-119.5 -33.5q-22 0 -37 12.5t-15 37.5q0 20 14 33.5t37 14.5q33 2 59.5 19t39.5 51l20 55l-170 447q-3 9 -3 20q0 19 12.5 34.5t38.5 15.5q36 0 49 -36l125 -350l113 350q11 36 49 36z
M320 731q19 0 32.5 -13.5t13.5 -32.5q0 -17 -8.5 -27t-24.5 -17l-122 -52q-8 -3 -15 -3q-19 0 -32.5 13t-13.5 33q0 17 9 28t23 16l123 52q5 2 8.5 2.5t6.5 0.5z" />
    <glyph glyph-name="thorn" unicode="&#xfe;" horiz-adv-x="535" 
d="M124 711q22 0 36.5 -14t14.5 -37v-172q25 14 55 21.5t54 7.5q42 0 77.5 -12.5t61 -37.5t39.5 -62.5t14 -86.5v-130q0 -49 -14 -86t-39.5 -62t-61 -37.5t-77.5 -12.5q-24 0 -54 7t-55 22v-191q0 -23 -14.5 -37t-36.5 -14q-23 0 -37.5 14t-14.5 37v832q0 23 14.5 37
t37.5 14zM274 422q-28 0 -52.5 -9t-46.5 -25v-270q22 -16 46.5 -25t52.5 -9q99 0 99 99v141q0 98 -99 98z" />
    <glyph glyph-name="ydieresis" unicode="&#xff;" horiz-adv-x="481" 
d="M410 517q26 0 38.5 -15.5t12.5 -34.5q0 -8 -4 -20l-185 -533q-25 -70 -74.5 -103.5t-119.5 -33.5q-22 0 -37 12.5t-15 37.5q0 20 14 33.5t37 14.5q33 2 59.5 19t39.5 51l20 55l-170 447q-3 9 -3 20q0 19 12.5 34.5t38.5 15.5q36 0 49 -36l125 -350l113 350q11 36 49 36z
M340 711q26 0 43.5 -18t17.5 -42q0 -26 -17.5 -43.5t-43.5 -17.5q-25 0 -42.5 17.5t-17.5 43.5q0 24 17.5 42t42.5 18zM152 711q25 0 42.5 -18t17.5 -42q0 -26 -17.5 -43.5t-42.5 -17.5t-42.5 17.5t-17.5 43.5q0 24 17.5 42t42.5 18z" />
    <glyph glyph-name="dotlessi" unicode="&#x131;" horiz-adv-x="247" 
d="M124 517q22 0 36.5 -14t14.5 -37v-425q0 -23 -14.5 -37t-36.5 -14q-23 0 -37.5 14t-14.5 37v425q0 23 14.5 37t37.5 14z" />
    <glyph glyph-name="IJ" unicode="&#x132;" horiz-adv-x="670" 
d="M130 711q21 0 36.5 -14t15.5 -37v-618q0 -23 -15.5 -37.5t-36.5 -14.5q-22 0 -37.5 14.5t-15.5 37.5v618q0 23 15.5 37t37.5 14zM544 711q21 0 37 -14t16 -37v-474q0 -45 -15.5 -81t-42 -61.5t-62.5 -39.5t-78 -14q-16 0 -33 1.5t-32 4.5q-22 5 -33.5 17.5t-11.5 30.5
q0 23 14.5 36t34.5 13q11 0 26 -2.5t35 -2.5q42 0 67 29t25 69v474q0 23 15.5 37t37.5 14z" />
    <glyph glyph-name="ij" unicode="&#x133;" horiz-adv-x="520" 
d="M124 517q23 0 37 -14t14 -37v-425q0 -23 -14 -37t-37 -14t-37.5 14t-14.5 37v425q0 23 14.5 37t37.5 14zM124 711q25 0 42.5 -17.5t17.5 -42.5q0 -26 -17.5 -43.5t-42.5 -17.5t-42.5 17.5t-17.5 43.5q0 25 17.5 42.5t42.5 17.5zM394 517q23 0 37.5 -14.5t14.5 -37.5v-472
q0 -87 -34.5 -138.5t-97.5 -71.5q-17 -6 -36 -6q-20 0 -34.5 12.5t-14.5 35.5q0 38 40 48q42 10 58 41t16 79v472q0 23 14.5 37.5t36.5 14.5zM394 711q25 0 42.5 -17.5t17.5 -42.5q0 -26 -17.5 -43.5t-42.5 -17.5t-42.5 17.5t-17.5 43.5q0 25 17.5 42.5t42.5 17.5z" />
    <glyph glyph-name="Lslash" unicode="&#x141;" horiz-adv-x="558" 
d="M174 711q21 0 36.5 -15t15.5 -38v-217l103 69q16 11 25 13.5t16 2.5q20 0 34 -14.5t14 -34.5q0 -12 -4.5 -22.5t-17.5 -19.5l-170 -113v-221h261q23 0 36.5 -14.5t13.5 -35.5q0 -22 -13.5 -36.5t-36.5 -14.5h-303q-26 0 -44.5 18t-18.5 43v191l-6 -4q-15 -10 -24 -12.5
t-16 -2.5q-20 0 -34.5 14.5t-14.5 34.5q0 12 5 22.5t18 18.5l72 48v287q0 23 15 38t38 15z" />
    <glyph glyph-name="lslash" unicode="&#x142;" horiz-adv-x="342" 
d="M166 711q22 0 36.5 -14t14.5 -37v-215l28 18q15 11 24.5 13.5t16.5 2.5q20 0 34 -14.5t14 -34.5q0 -12 -4.5 -22.5t-17.5 -18.5l-95 -63v-285q0 -23 -14.5 -37t-36.5 -14q-23 0 -37.5 14t-14.5 37v216l-11 -7q-14 -9 -23.5 -12t-16.5 -3q-20 0 -34.5 14.5t-14.5 34.5
q0 12 4 22t18 19l78 52v283q0 23 14.5 37t37.5 14z" />
    <glyph glyph-name="OE" unicode="&#x152;" horiz-adv-x="907" 
d="M306 711q89 0 150 -41q8 14 22.5 22.5t32.5 8.5h296q23 0 36.5 -14.5t13.5 -35.5q0 -22 -13.5 -36.5t-36.5 -14.5h-254v-186h241q23 0 37 -14.5t14 -35.5q0 -22 -14 -36.5t-37 -14.5h-241v-212h261q23 0 36.5 -14.5t13.5 -35.5q0 -22 -13.5 -36.5t-36.5 -14.5h-303
q-18 0 -32.5 8.5t-22.5 22.5q-61 -41 -150 -41q-56 0 -101.5 16.5t-78 48t-50.5 76.5t-18 103v233q0 58 18 103t50.5 76.5t78 48t101.5 16.5zM306 613q-66 0 -104 -36.5t-38 -101.5v-248q0 -66 38 -102.5t104 -36.5t103.5 36.5t37.5 102.5v248q0 65 -37.5 101.5t-103.5 36.5
z" />
    <glyph glyph-name="oe" unicode="&#x153;" horiz-adv-x="829" 
d="M264 517q52 0 92 -15t67 -44q54 59 151 59q46 0 83 -14.5t63.5 -41t40.5 -63.5t14 -82v-49q0 -22 -16.5 -41.5t-47.5 -19.5h-236v-19q0 -20 5 -38.5t17 -32.5t31 -23t46 -9q32 0 56.5 6.5t44.5 14.5q11 5 19 7t16 2q20 0 33.5 -13.5t13.5 -33.5q0 -14 -6.5 -25t-20.5 -18
q-17 -9 -38 -15t-42.5 -10.5t-41.5 -6.5t-34 -2q-50 0 -87.5 15.5t-63.5 43.5q-27 -29 -67 -44t-92 -15q-98 0 -154.5 53.5t-56.5 155.5v109q0 101 55.5 155t155.5 54zM264 422q-51 0 -79.5 -27.5t-28.5 -80.5v-121q0 -54 28.5 -81.5t79.5 -27.5t79 27.5t28 81.5v121
q0 53 -28 80.5t-79 27.5zM574 422q-52 0 -75.5 -27.5t-23.5 -75.5v-18h197v15q0 51 -23.5 78.5t-74.5 27.5z" />
    <glyph glyph-name="Scaron" unicode="&#x160;" horiz-adv-x="525" 
d="M263 711q53 0 95 -9.5t79 -27.5q30 -16 30 -48q0 -20 -13 -34t-33 -14q-12 0 -21.5 3.5t-22.5 8.5q-32 13 -58 18t-62 5q-21 0 -41 -5.5t-35.5 -16t-25 -26.5t-9.5 -36q0 -36 20 -56.5t63 -40.5l117 -54q25 -12 50 -27t45 -37t32.5 -53.5t12.5 -74.5q0 -45 -17.5 -81.5
t-48 -62t-72 -39t-90.5 -13.5q-54 0 -99.5 10t-86.5 29q-32 15 -32 48q0 23 13.5 36.5t34.5 13.5q11 0 19.5 -2.5t25.5 -9.5q26 -11 56 -19t69 -8q54 0 88 24t34 71q0 41 -23 63t-68 44l-122 57q-26 12 -49 28.5t-40 38t-27 49t-10 62.5q0 42 16 76.5t45.5 59t70 37.5
t90.5 13zM360 922q20 0 33.5 -13.5t13.5 -32.5q0 -28 -27 -42l-91 -51q-12 -6 -25 -6t-25 6l-91 51q-26 14 -26 42q0 19 13 32.5t33 13.5q9 0 20 -6l76 -45l76 45q7 4 11 5t9 1z" />
    <glyph glyph-name="scaron" unicode="&#x161;" horiz-adv-x="447" 
d="M222 517q36 0 73 -8t63 -21q27 -14 27 -42q0 -22 -14 -34.5t-32 -12.5q-8 0 -15 2l-14 4q-20 7 -39 12.5t-47 5.5q-32 0 -53.5 -14t-21.5 -39q0 -13 6 -22t14.5 -16t18.5 -11.5t19 -7.5l88 -33q49 -18 76 -50t27 -87q0 -32 -11.5 -60t-33.5 -48.5t-55 -32.5t-76 -12
q-45 0 -82 9t-63 22q-28 13 -28 42q0 21 12.5 34t33.5 13q5 0 11.5 -2t13.5 -4q17 -6 40.5 -13t56.5 -7q38 0 59.5 16t21.5 42q0 23 -21.5 38t-46.5 25l-82 32q-16 6 -33.5 15.5t-32 25t-24 38t-9.5 55.5q0 69 48.5 107.5t124.5 38.5zM318 731q20 0 33.5 -13.5t13.5 -32.5
q0 -28 -27 -42l-91 -51q-12 -6 -25 -6t-25 6l-91 51q-26 14 -26 42q0 19 13 32.5t33 13.5q9 0 20 -6l76 -45l76 45q7 4 11 5t9 1z" />
    <glyph glyph-name="Ydieresis" unicode="&#x178;" horiz-adv-x="519" 
d="M455 711q21 0 36 -14t15 -36q0 -9 -3 -16.5t-8 -15.5l-183 -321v-265q0 -23 -14.5 -38t-37.5 -15q-24 0 -38.5 15t-14.5 38v265l-183 321q-5 8 -8 15.5t-3 16.5q0 22 15 36t36 14q14 0 24.5 -5t18.5 -19l153 -278l152 277q8 14 18.5 19.5t24.5 5.5zM353 902
q26 0 43.5 -18t17.5 -42q0 -26 -17.5 -43.5t-43.5 -17.5q-25 0 -42.5 17.5t-17.5 43.5q0 24 17.5 42t42.5 18zM165 902q25 0 42.5 -18t17.5 -42q0 -26 -17.5 -43.5t-42.5 -17.5t-42.5 17.5t-17.5 43.5q0 24 17.5 42t42.5 18z" />
    <glyph glyph-name="Zcaron" unicode="&#x17d;" horiz-adv-x="543" 
d="M452 701q28 0 43.5 -17t15.5 -39q0 -18 -10 -32l-331 -513h296q21 0 35.5 -13.5t14.5 -36.5t-14.5 -36.5t-35.5 -13.5h-380q-27 0 -42.5 16t-15.5 38q0 17 12 36l331 511h-290q-22 0 -36.5 13.5t-14.5 36.5q0 22 14.5 36t36.5 14h371zM365 922q20 0 33.5 -13.5
t13.5 -32.5q0 -28 -27 -42l-91 -51q-12 -6 -25 -6t-25 6l-91 51q-26 14 -26 42q0 19 13 32.5t33 13.5q9 0 20 -6l76 -45l76 45q7 4 11 5t9 1z" />
    <glyph glyph-name="zcaron" unicode="&#x17e;" horiz-adv-x="456" 
d="M364 507q23 0 38.5 -16t15.5 -39q0 -17 -12 -34l-228 -320h194q22 0 35.5 -14.5t13.5 -34.5q0 -21 -13.5 -35t-35.5 -14h-283q-23 0 -38.5 16t-15.5 39q0 17 13 35l228 319h-188q-23 0 -36 14t-13 35q0 20 13 34.5t36 14.5h276zM324 731q20 0 33.5 -13.5t13.5 -32.5
q0 -28 -27 -42l-91 -51q-12 -6 -25 -6t-25 6l-91 51q-26 14 -26 42q0 19 13 32.5t33 13.5q9 0 20 -6l76 -45l76 45q7 4 11 5t9 1z" />
    <glyph glyph-name="longs" unicode="&#x17f;" horiz-adv-x="253" 
d="M211 711q20 0 33.5 -2t28.5 -7q14 -5 23 -14.5t9 -28.5t-13.5 -31t-31.5 -12q-8 0 -18 2.5t-21 2.5q-23 0 -35 -14t-12 -39v-527q0 -23 -14.5 -37t-35.5 -14q-23 0 -37.5 14t-14.5 37v532q0 63 38.5 100.5t100.5 37.5z" />
    <glyph glyph-name="florin" unicode="&#x192;" 
d="M432 711q16 0 33.5 -1.5t33.5 -6.5q19 -5 31.5 -16.5t12.5 -31.5q0 -22 -13.5 -34.5t-36.5 -12.5q-14 0 -26.5 3.5t-35.5 3.5q-20 0 -33.5 -11t-15.5 -28l-32 -165h92q20 0 32.5 -13.5t12.5 -33.5q0 -22 -14.5 -36.5t-36.5 -14.5h-105l-79 -414q-11 -54 -48 -88t-98 -34
q-11 0 -24 1t-29 4q-20 5 -31.5 16.5t-11.5 31.5q0 21 13.5 34t36.5 13q10 0 19 -2t26 -2q19 0 31.5 11t15.5 28l132 679q11 55 48.5 87.5t99.5 32.5z" />
    <glyph glyph-name="uni02BB" unicode="&#x2bb;" horiz-adv-x="237" 
d="M146 711q20 0 35.5 -14t15.5 -37q0 -7 -4 -19l-54 -157q-5 -16 -18.5 -25.5t-30.5 -9.5q-21 0 -35.5 14t-14.5 37q0 10 3 19l54 157q13 35 49 35z" />
    <glyph glyph-name="afii57929" unicode="&#x2bc;" horiz-adv-x="237" 
d="M146 711q20 0 35.5 -14t15.5 -37q0 -5 -1 -9.5t-3 -9.5l-54 -157q-5 -16 -18.5 -25.5t-30.5 -9.5q-21 0 -35.5 14t-14.5 37q0 10 3 19l54 157q13 35 49 35z" />
    <glyph glyph-name="circumflex" unicode="&#x2c6;" horiz-adv-x="528" 
d="M264 731q13 0 25 -6l91 -51q27 -15 27 -42q0 -19 -13.5 -32.5t-33.5 -13.5q-5 0 -9 1t-11 5l-76 45l-76 -45q-11 -6 -20 -6q-20 0 -33 13.5t-13 32.5q0 28 26 42l91 51q12 6 25 6z" />
    <glyph glyph-name="caron" unicode="&#x2c7;" horiz-adv-x="528" 
d="M360 731q20 0 33.5 -13.5t13.5 -32.5q0 -28 -27 -42l-91 -51q-12 -6 -25 -6t-25 6l-91 51q-26 14 -26 42q0 19 13 32.5t33 13.5q9 0 20 -6l76 -45l76 45q7 4 11 5t9 1z" />
    <glyph glyph-name="breve" unicode="&#x2d8;" horiz-adv-x="528" 
d="M348 721q21 0 33.5 -13t12.5 -33q0 -15 -10 -28q-23 -30 -53.5 -45t-66.5 -15q-37 0 -68.5 15.5t-53.5 44.5q-10 13 -10 28q0 20 13.5 33t33.5 13t36 -18q10 -11 21.5 -18t26.5 -7t27 7t22 18q16 18 36 18z" />
    <glyph glyph-name="dotaccent" unicode="&#x2d9;" horiz-adv-x="528" 
d="M264 711q25 0 42.5 -17.5t17.5 -42.5q0 -26 -17.5 -43.5t-42.5 -17.5t-42.5 17.5t-17.5 43.5q0 25 17.5 42.5t42.5 17.5z" />
    <glyph glyph-name="ring" unicode="&#x2da;" horiz-adv-x="528" 
d="M263 789q22 0 42 -8.5t34 -22.5t22.5 -33.5t8.5 -41.5t-8.5 -41.5t-22.5 -34t-34 -23t-42 -8.5t-41.5 8.5t-33.5 23t-22.5 34t-8.5 41.5q0 45 30.5 75.5t75.5 30.5zM263 727q-18 0 -31 -12.5t-13 -31.5t13 -31.5t31 -12.5q19 0 31.5 12t12.5 32q0 19 -12.5 31.5
t-31.5 12.5z" />
    <glyph glyph-name="ogonek" unicode="&#x2db;" horiz-adv-x="528" 
d="M286 70q13 0 21 -8.5t8 -22.5t-6 -24t-14 -20q-15 -18 -30 -44.5t-15 -55.5q0 -21 10.5 -29t21.5 -8q15 0 24 5.5t21 5.5q18 0 27.5 -12t9.5 -27q0 -14 -7.5 -23.5t-18.5 -15.5q-14 -8 -31.5 -11t-35.5 -3q-42 0 -70 27.5t-28 73.5q0 24 6.5 47.5t17 45.5t23 40.5
t23.5 33.5q9 12 19 18.5t24 6.5z" />
    <glyph glyph-name="tilde" unicode="&#x2dc;" horiz-adv-x="528" 
d="M374 708q21 0 33.5 -13.5t12.5 -30.5q0 -18 -11 -32q-17 -20 -42.5 -33t-55.5 -13q-20 0 -33.5 4.5t-23.5 10t-18 10t-18 4.5q-11 0 -21 -6.5t-21 -15.5q-8 -7 -22 -7q-21 0 -33.5 13.5t-12.5 29.5q0 10 3 16.5t8 14.5q17 22 42.5 35t55.5 13q20 0 33.5 -4.5t23.5 -10
t18 -10t18 -4.5q11 0 20.5 6t20.5 15q9 8 23 8z" />
    <glyph glyph-name="hungarumlaut" unicode="&#x2dd;" horiz-adv-x="528" 
d="M389 731q20 0 33 -13t13 -33q0 -23 -20 -38l-63 -50q-14 -11 -29 -11q-19 0 -32.5 14t-13.5 33q0 21 21 38l62 50q13 10 29 10zM204 731q20 0 33.5 -13t13.5 -33q0 -22 -21 -38l-62 -50q-14 -11 -29 -11q-19 0 -32.5 14t-13.5 33q0 23 20 38l63 50q8 6 14.5 8t13.5 2z
" />
    <glyph glyph-name="gravecomb" unicode="&#x300;" horiz-adv-x="0" 
d="M-347 731q3 0 6.5 -0.5t8.5 -2.5l123 -52q14 -5 23 -16t9 -28q0 -20 -13.5 -33t-32.5 -13q-8 0 -15 3l-122 52q-15 6 -24 16.5t-9 27.5q0 19 13.5 32.5t32.5 13.5z" />
    <glyph glyph-name="acutecomb" unicode="&#x301;" horiz-adv-x="0" 
d="M-186 731q19 0 32.5 -13.5t13.5 -32.5q0 -17 -8.5 -27t-24.5 -17l-122 -52q-8 -3 -15 -3q-19 0 -32.5 13t-13.5 33q0 17 9 28t23 16l123 52q5 2 8.5 2.5t6.5 0.5z" />
    <glyph glyph-name="uni0302" unicode="&#x302;" horiz-adv-x="1" 
d="M-264 731q13 0 25 -6l91 -51q27 -15 27 -42q0 -19 -13.5 -32.5t-33.5 -13.5q-5 0 -9 1t-11 5l-76 45l-76 -45q-11 -6 -20 -6q-20 0 -33 13.5t-13 32.5q0 28 26 42l91 51q12 6 25 6z" />
    <glyph glyph-name="tildecomb" unicode="&#x303;" horiz-adv-x="0" 
d="M-155 708q21 0 33.5 -13.5t12.5 -30.5q0 -18 -11 -32q-17 -20 -42.5 -33t-55.5 -13q-20 0 -33.5 4.5t-23.5 10t-18 10t-18 4.5q-11 0 -21 -6.5t-21 -15.5q-8 -7 -22 -7q-21 0 -33.5 13.5t-12.5 29.5q0 10 3 16.5t8 14.5q17 22 42.5 35t55.5 13q20 0 33.5 -4.5t23.5 -10
t18 -10t18 -4.5q11 0 20.5 6t20.5 15q9 8 23 8z" />
    <glyph glyph-name="uni0304" unicode="&#x304;" horiz-adv-x="1" 
d="M-107 697q20 0 33 -13.5t13 -32.5q0 -20 -13 -33.5t-33 -13.5h-160q-19 0 -32.5 13.5t-13.5 33.5q0 19 13.5 32.5t32.5 13.5h160z" />
    <glyph glyph-name="uni0306" unicode="&#x306;" horiz-adv-x="1" 
d="M-98 721q21 0 33.5 -13t12.5 -33q0 -15 -10 -28q-22 -30 -53 -45t-67 -15q-76 0 -121 60q-10 13 -10 28q0 20 13 33t33 13q21 0 37 -18q10 -11 21 -18t26 -7t27 7t22 18q15 18 36 18z" />
    <glyph glyph-name="uni0307" unicode="&#x307;" horiz-adv-x="1" 
d="M-264 711q25 0 42.5 -17.5t17.5 -42.5q0 -26 -17.5 -43.5t-42.5 -17.5t-42.5 17.5t-17.5 43.5q0 25 17.5 42.5t42.5 17.5z" />
    <glyph glyph-name="uni0308" unicode="&#x308;" horiz-adv-x="1" 
d="M-170 711q26 0 43.5 -18t17.5 -42q0 -26 -17.5 -43.5t-43.5 -17.5q-25 0 -42.5 17.5t-17.5 43.5q0 24 17.5 42t42.5 18zM-358 711q25 0 42.5 -18t17.5 -42q0 -26 -17.5 -43.5t-42.5 -17.5t-42.5 17.5t-17.5 43.5q0 24 17.5 42t42.5 18z" />
    <glyph glyph-name="uni030A" unicode="&#x30a;" horiz-adv-x="1" 
d="M-265 789q22 0 42 -8.5t34 -22.5t22.5 -33.5t8.5 -41.5t-8.5 -41.5t-22.5 -34t-34 -23t-42 -8.5t-41.5 8.5t-33.5 23t-22.5 34t-8.5 41.5q0 45 30.5 75.5t75.5 30.5zM-265 727q-18 0 -31 -12.5t-13 -31.5t13 -31.5t31 -12.5q19 0 31.5 12t12.5 32q0 19 -12.5 31.5
t-31.5 12.5z" />
    <glyph glyph-name="uni030B" unicode="&#x30b;" horiz-adv-x="1" 
d="M-52 731q20 0 32 -13.5t12 -31.5q0 -11 -4 -21.5t-18 -19.5l-72 -50q-8 -6 -15 -7.5t-12 -1.5q-20 0 -32.5 13.5t-12.5 31.5q0 12 4.5 22.5t18.5 19.5l72 49q9 6 15.5 7.5t11.5 1.5zM-241 731q20 0 32 -13.5t12 -31.5q0 -11 -4 -21.5t-18 -19.5l-72 -50q-8 -6 -15 -7.5
t-12 -1.5q-20 0 -32 13.5t-12 31.5q0 12 4 22.5t18 19.5l72 49q9 6 15.5 7.5t11.5 1.5z" />
    <glyph glyph-name="uni030C" unicode="&#x30c;" horiz-adv-x="1" 
d="M-168 731q20 0 33.5 -13.5t13.5 -32.5q0 -28 -27 -42l-91 -51q-12 -6 -25 -6t-25 6l-91 51q-26 14 -26 42q0 19 13 32.5t33 13.5q9 0 20 -6l76 -45l76 45q7 4 11 5t9 1z" />
    <glyph glyph-name="uni0312" unicode="&#x312;" horiz-adv-x="1" 
d="M-177 783q23 0 38 -14t15 -35q0 -14 -6 -26l-48 -88q-8 -16 -20.5 -23.5t-26.5 -7.5q-23 0 -38 14t-15 35q0 14 6 26l48 88q8 16 20.5 23.5t26.5 7.5z" />
    <glyph glyph-name="uni0313" unicode="&#x313;" horiz-adv-x="1" 
d="M-141 711q23 0 38 -14t15 -35q0 -6 -1 -12t-5 -14l-83 -155q-9 -17 -21 -24.5t-26 -7.5q-23 0 -38 14t-15 35q0 14 6 26l84 156q8 16 20 23.5t26 7.5z" />
    <glyph glyph-name="uni0326" unicode="&#x326;" horiz-adv-x="1" 
d="M-157 -30q28 0 39 -17t11 -34q0 -8 -3 -17l-29 -86q-7 -21 -20.5 -30.5t-30.5 -9.5q-28 0 -39.5 17t-11.5 33q0 8 3 17l29 87q7 20 21 30t31 10z" />
    <glyph glyph-name="uni0327" unicode="&#x327;" horiz-adv-x="1" 
d="M-304 51q19 0 28.5 -11t9.5 -25q0 -6 -3 -16l-8 -31q21 -10 36.5 -27.5t15.5 -43.5q0 -40 -27.5 -69.5t-69.5 -42.5q-15 -5 -27 -6.5t-25 -1.5q-17 0 -26.5 10t-9.5 26q0 31 35 37q7 1 19 4t23 8t19.5 12.5t8.5 18.5t-9 17t-23 11q-11 5 -17.5 12t-6.5 20q0 8 3 22l10 42
q4 15 15 24.5t29 9.5z" />
    <glyph glyph-name="uni0328" unicode="&#x328;" horiz-adv-x="1" 
d="M-233 67q10 -8 10 -21q0 -16 -6 -26t-14 -20q-17 -19 -33.5 -46.5t-16.5 -58.5q0 -21 10.5 -29t21.5 -8q15 0 24 5.5t21 5.5q18 0 27.5 -12t9.5 -27q0 -14 -7.5 -23.5t-18.5 -15.5q-14 -8 -31.5 -11t-35.5 -3q-42 0 -70 27.5t-28 73.5q0 25 7 49.5t18.5 47t24.5 42
t25 34.5q4 5 8 9t9 7h45z" />
    <glyph glyph-name="uni0335" unicode="&#x335;" horiz-adv-x="1" 
d="M-100 297q18 0 30.5 -13t12.5 -31t-12.5 -31t-30.5 -13h-172q-18 0 -31 13t-13 31t13 31t31 13h172z" />
    <glyph glyph-name="uni0336" unicode="&#x336;" horiz-adv-x="1" 
d="M-78 573q18 0 30.5 -13t12.5 -31q0 -17 -12.5 -30t-30.5 -13h-534q-18 0 -31 13t-13 30q0 18 13 31t31 13h534z" />
    <glyph glyph-name="uni0394" unicode="&#x394;" horiz-adv-x="560" 
d="M280 711q17 0 32.5 -9t22.5 -29l200 -595q2 -5 3 -10.5t1 -10.5q0 -26 -16.5 -41.5t-41.5 -15.5h-402q-25 0 -41.5 15.5t-16.5 41.5q0 13 5 27l198 589q7 20 22.5 29t33.5 9zM134 99h291l-145 442z" />
    <glyph glyph-name="uni03A9" unicode="&#x3a9;" horiz-adv-x="631" 
d="M316 711q55 0 101 -16.5t78 -48t50 -76.5t18 -103v-107q0 -74 -29 -127t-80 -82v-50h68q23 0 37 -14.5t14 -35.5q0 -22 -14 -36.5t-37 -14.5h-106q-26 0 -42.5 16.5t-16.5 42.5v119q0 17 7 30.5t27 23.5q32 16 49 46.5t17 73.5v123q0 65 -37.5 101.5t-103.5 36.5
t-104 -36.5t-38 -101.5v-123q0 -43 17.5 -73.5t49.5 -46.5q20 -10 26.5 -23.5t6.5 -30.5v-119q0 -26 -16.5 -42.5t-42.5 -16.5h-106q-23 0 -37 14.5t-14 36.5q0 21 14 35.5t37 14.5h68v50q-51 29 -80 82t-29 127v107q0 58 18 103t50.5 76.5t78 48t101.5 16.5z" />
    <glyph glyph-name="uni03BC" unicode="&#x3bc;" 
d="M431 517q22 0 36.5 -14t14.5 -37v-392q0 -20 -11.5 -35.5t-32.5 -22.5q-37 -12 -76 -19t-80 -7q-57 0 -100 17v-179q0 -23 -14.5 -37t-36.5 -14q-23 0 -37.5 14t-14.5 37v638q0 23 14.5 37t37.5 14q22 0 36.5 -14t14.5 -37v-283q0 -48 25 -73.5t75 -25.5q26 0 50 4t47 10
v368q0 23 14.5 37t37.5 14z" />
    <glyph glyph-name="pi" unicode="&#x3c0;" 
d="M481 506q22 0 35 -14t13 -35q0 -20 -13 -34.5t-35 -14.5h-66v-277q0 -20 14 -35t36 -15q21 0 34.5 -12.5t13.5 -32.5q0 -21 -13.5 -33.5t-34.5 -12.5q-69 0 -107.5 38t-38.5 107v273h-101v-370q0 -20 -13.5 -34t-33.5 -14t-34 14t-14 34v370h-51q-22 0 -35.5 14.5
t-13.5 34.5q0 21 13.5 35t35.5 14h409z" />
    <glyph glyph-name="uni2007" unicode="&#x2007;" 
 />
    <glyph glyph-name="uni2008" unicode="&#x2008;" horiz-adv-x="258" 
 />
    <glyph glyph-name="uni200B" unicode="&#x200b;" horiz-adv-x="0" 
 />
    <glyph glyph-name="endash" unicode="&#x2013;" horiz-adv-x="774" 
d="M607 346q22 0 35 -14t13 -34q0 -21 -13 -35t-35 -14h-440q-22 0 -35 14t-13 35q0 20 13 34t35 14h440z" />
    <glyph glyph-name="emdash" unicode="&#x2014;" horiz-adv-x="1206" 
d="M1039 346q22 0 35 -14t13 -34q0 -21 -13 -35t-35 -14h-872q-22 0 -35 14t-13 35q0 20 13 34t35 14h872z" />
    <glyph glyph-name="quoteleft" unicode="&#x2018;" horiz-adv-x="237" 
d="M146 711q20 0 35.5 -14t15.5 -37q0 -7 -4 -19l-54 -157q-5 -16 -18.5 -25.5t-30.5 -9.5q-21 0 -35.5 14t-14.5 37q0 10 3 19l54 157q13 35 49 35z" />
    <glyph glyph-name="quoteright" unicode="&#x2019;" horiz-adv-x="237" 
d="M146 711q20 0 35.5 -14t15.5 -37q0 -5 -1 -9.5t-3 -9.5l-54 -157q-5 -16 -18.5 -25.5t-30.5 -9.5q-21 0 -35.5 14t-14.5 37q0 10 3 19l54 157q13 35 49 35z" />
    <glyph glyph-name="quotesinglbase" unicode="&#x201a;" horiz-adv-x="237" 
d="M146 130q20 0 35.5 -14t15.5 -37q0 -5 -1 -9.5t-3 -9.5l-54 -157q-5 -16 -18.5 -25.5t-30.5 -9.5q-21 0 -35.5 14t-14.5 37q0 10 3 19l54 157q13 35 49 35z" />
    <glyph glyph-name="quotedblleft" unicode="&#x201c;" horiz-adv-x="416" 
d="M146 711q20 0 35.5 -14t15.5 -37q0 -7 -4 -19l-54 -157q-5 -16 -18.5 -25.5t-30.5 -9.5q-21 0 -35.5 14t-14.5 37q0 10 3 19l54 157q13 35 49 35zM325 711q20 0 35.5 -14t15.5 -37q0 -7 -4 -19l-54 -157q-5 -16 -18.5 -25.5t-30.5 -9.5q-21 0 -35.5 14t-14.5 37
q0 10 3 19l54 157q13 35 49 35z" />
    <glyph glyph-name="quotedblright" unicode="&#x201d;" horiz-adv-x="416" 
d="M325 711q20 0 35.5 -14t15.5 -37q0 -5 -1 -9.5t-3 -9.5l-54 -157q-5 -16 -18.5 -25.5t-30.5 -9.5q-21 0 -35.5 14t-14.5 37q0 10 3 19l54 157q13 35 49 35zM146 711q20 0 35.5 -14t15.5 -37q0 -5 -1 -9.5t-3 -9.5l-54 -157q-5 -16 -18.5 -25.5t-30.5 -9.5q-21 0 -35.5 14
t-14.5 37q0 10 3 19l54 157q13 35 49 35z" />
    <glyph glyph-name="quotedblbase" unicode="&#x201e;" horiz-adv-x="416" 
d="M318 130q20 0 35.5 -14t15.5 -37q0 -8 -4 -19l-54 -157q-5 -16 -18.5 -25.5t-30.5 -9.5q-21 0 -35.5 14t-14.5 37q0 10 3 19l54 157q13 35 49 35zM140 130q20 0 35.5 -14t15.5 -37q0 -8 -4 -19l-54 -157q-5 -16 -18.5 -25.5t-30.5 -9.5q-21 0 -35.5 14t-14.5 37
q0 10 3 19l54 157q13 35 49 35z" />
    <glyph glyph-name="dagger" unicode="&#x2020;" 
d="M277 711q22 0 36.5 -14t14.5 -37v-153h146q22 0 35 -14.5t13 -34.5q0 -21 -13 -35t-35 -14h-146v-581q0 -23 -14.5 -37t-36.5 -14q-23 0 -37.5 14t-14.5 37v581h-146q-22 0 -35 14t-13 35q0 20 13 34.5t35 14.5h146v153q0 23 14.5 37t37.5 14z" />
    <glyph glyph-name="daggerdbl" unicode="&#x2021;" 
d="M277 711q22 0 36.5 -14t14.5 -37v-153h146q22 0 35 -14.5t13 -34.5q0 -21 -13 -35t-35 -14h-146v-311h146q22 0 35 -14.5t13 -34.5q0 -21 -13 -35t-35 -14h-146v-172q0 -23 -14.5 -37t-36.5 -14q-23 0 -37.5 14t-14.5 37v172h-146q-22 0 -35 14t-13 35q0 20 13 34.5
t35 14.5h146v311h-146q-22 0 -35 14t-13 35q0 20 13 34.5t35 14.5h146v153q0 23 14.5 37t37.5 14z" />
    <glyph glyph-name="bullet" unicode="&#x2022;" 
d="M277 427q23 0 44 -9t36.5 -24.5t24.5 -36.5t9 -45t-9 -45t-24.5 -36.5t-36.5 -24.5t-44 -9q-24 0 -45 9t-36.5 24.5t-24.5 36.5t-9 45t9 45t24.5 36.5t36.5 24.5t45 9z" />
    <glyph glyph-name="ellipsis" unicode="&#x2026;" horiz-adv-x="834" 
d="M689 128q28 0 48.5 -20t20.5 -49q0 -28 -20.5 -48.5t-48.5 -20.5q-29 0 -49.5 20.5t-20.5 48.5q0 29 20.5 49t49.5 20zM146 128q28 0 48.5 -20t20.5 -49q0 -28 -20.5 -48.5t-48.5 -20.5q-29 0 -49.5 20.5t-20.5 48.5q0 29 20.5 49t49.5 20zM418 128q28 0 48.5 -20
t20.5 -49q0 -28 -20.5 -48.5t-48.5 -20.5q-29 0 -49.5 20.5t-20.5 48.5q0 29 20.5 49t49.5 20z" />
    <glyph glyph-name="perthousand" unicode="&#x2030;" horiz-adv-x="1268" 
d="M677 711q18 0 29 -11.5t11 -27.5q0 -13 -8 -24l-439 -639q-14 -19 -34 -19q-17 0 -28.5 11.5t-11.5 27.5q0 13 8 24l439 639q7 10 16 14.5t18 4.5zM223 628q-61 0 -61 -66v-79q0 -64 61 -64t61 64v79q0 66 -61 66zM223 711q68 0 107 -39t39 -105v-87q0 -66 -39.5 -104.5
t-106.5 -38.5q-68 0 -107 38.5t-39 104.5v87q0 66 39 105t107 39zM689 282q-61 0 -61 -66v-79q0 -65 61 -65t61 65v79q0 66 -61 66zM689 365q68 0 107 -39t39 -105v-87q0 -67 -40 -105.5t-106 -38.5q-68 0 -107 39t-39 105v87q0 66 39 105t107 39zM1046 282q-62 0 -62 -66
v-79q0 -65 62 -65q60 0 60 65v79q0 66 -60 66zM1046 365q68 0 106.5 -39t38.5 -105v-87q0 -67 -39.5 -105.5t-105.5 -38.5q-68 0 -107.5 39t-39.5 105v87q0 66 39.5 105t107.5 39z" />
    <glyph glyph-name="minute" unicode="&#x2032;" horiz-adv-x="237" 
d="M146 711q20 0 35.5 -14t15.5 -37q0 -7 -4 -19l-54 -157q-5 -16 -18.5 -25.5t-30.5 -9.5q-21 0 -35.5 14t-14.5 37q0 10 3 19l54 157q13 35 49 35z" />
    <glyph glyph-name="second" unicode="&#x2033;" horiz-adv-x="416" 
d="M146 711q20 0 35.5 -14t15.5 -37q0 -7 -4 -19l-54 -157q-5 -16 -18.5 -25.5t-30.5 -9.5q-21 0 -35.5 14t-14.5 37q0 10 3 19l54 157q13 35 49 35zM325 711q20 0 35.5 -14t15.5 -37q0 -7 -4 -19l-54 -157q-5 -16 -18.5 -25.5t-30.5 -9.5q-21 0 -35.5 14t-14.5 37
q0 10 3 19l54 157q13 35 49 35z" />
    <glyph glyph-name="guilsinglleft" unicode="&#x2039;" horiz-adv-x="344" 
d="M230 471q23 0 36.5 -14t13.5 -37q0 -19 -9 -31l-96 -134l96 -134q10 -14 10 -30q0 -23 -14 -37.5t-37 -14.5q-26 0 -42 23l-112 156q-5 8 -9 17t-4 20t4 20t9 17l111 157q16 22 43 22z" />
    <glyph glyph-name="guilsinglright" unicode="&#x203a;" horiz-adv-x="344" 
d="M114 472q26 0 42 -23l112 -156q5 -8 9 -17t4 -20t-4 -20t-9 -17l-111 -157q-16 -22 -43 -22q-23 0 -36.5 14t-13.5 37q0 19 9 31l96 134l-96 134q-10 14 -10 30q0 23 14 37.5t37 14.5z" />
    <glyph glyph-name="fraction" unicode="&#x2044;" horiz-adv-x="207" 
d="M277 711q15 0 25 -9.5t10 -25.5q0 -11 -6 -21l-343 -645q-11 -20 -32 -20q-16 0 -26 9.5t-10 25.5q0 10 6 21l343 645q11 20 33 20z" />
    <glyph glyph-name="uni2070" unicode="&#x2070;" horiz-adv-x="364" 
d="M182 714q61 0 96 -34t35 -97v-163q0 -59 -35 -95t-96 -36q-60 0 -96 35t-36 96v163q0 60 35 95.5t97 35.5zM182 651q-63 0 -63 -63v-172q0 -63 63 -63t63 63v172q0 63 -63 63z" />
    <glyph glyph-name="uni2074" unicode="&#x2074;" horiz-adv-x="322" 
d="M150 711q14 0 23.5 -9.5t9.5 -23.5v-6q0 -3 -2 -8l-78 -217h78v62q0 14 9.5 24t23.5 10t24 -10t10 -24v-62h30q14 0 23 -9.5t9 -23.5q0 -13 -9 -23t-23 -10h-30v-61q0 -14 -10 -24t-24 -10t-23.5 10t-9.5 24v61h-119q-17 0 -27.5 11t-10.5 27q0 7 3 15l93 257
q4 11 12.5 15.5t17.5 4.5z" />
    <glyph glyph-name="uni2075" unicode="&#x2075;" horiz-adv-x="344" 
d="M253 705q14 0 23.5 -9.5t9.5 -22.5q0 -14 -9.5 -23.5t-23.5 -9.5h-131v-93q10 3 21.5 5.5t25.5 2.5q56 0 92 -34t36 -87v-28q0 -26 -9.5 -48t-26.5 -38t-40.5 -25t-51.5 -9q-34 0 -58 6t-44 16q-8 4 -13.5 11.5t-5.5 17.5q0 13 9 22t23 9q5 0 13 -3q9 -4 16.5 -7t16 -4.5
t19 -2.5t24.5 -1q27 0 43 15t16 41v28q0 26 -16 41.5t-43 15.5q-20 0 -32 -3.5t-29 -11.5q-3 -2 -7.5 -2.5t-7.5 -0.5q-17 0 -28 11t-11 28v153q0 17 11.5 28.5t28.5 11.5h159z" />
    <glyph glyph-name="uni2076" unicode="&#x2076;" horiz-adv-x="343" 
d="M216 711q20 0 43 -5q25 -7 25 -32q0 -13 -9 -22t-23 -9q-8 0 -15 2t-21 2q-53 0 -74.5 -27t-23.5 -82q14 11 32.5 16t33.5 5q53 0 87.5 -34t34.5 -87v-32q0 -26 -9.5 -48t-26.5 -38t-40.5 -25t-51.5 -9t-51.5 9t-40.5 25t-26.5 38t-9.5 48v116q0 34 7 67.5t25.5 60.5
t50.5 44t83 17zM178 495q-27 0 -43 -15t-16 -41v-33q0 -26 16 -41t43 -15t43 15t16 41v33q0 26 -16 41t-43 15z" />
    <glyph glyph-name="uni2077" unicode="&#x2077;" horiz-adv-x="303" 
d="M241 705q16 0 27 -10.5t11 -27.5q0 -9 -5 -20l-141 -340q-10 -21 -31 -21q-15 0 -25 9t-10 23q0 9 4 17l127 305h-150q-15 0 -24 9.5t-9 23.5q0 13 9 22.5t24 9.5h193z" />
    <glyph glyph-name="uni2078" unicode="&#x2078;" horiz-adv-x="360" 
d="M180 711q55 0 89 -32.5t34 -84.5q0 -26 -12 -48t-32 -37q26 -16 40 -41.5t14 -54.5q0 -58 -37 -92.5t-96 -34.5q-58 0 -95 34.5t-37 92.5q0 29 14 55t39 41q-20 15 -31.5 37.5t-11.5 47.5q0 52 33.5 84.5t88.5 32.5zM180 476q-29 0 -46.5 -17t-17.5 -46q0 -31 17.5 -47
t46.5 -16q30 0 47 16t17 47q0 29 -17 46t-47 17zM180 647q-25 0 -39.5 -14t-14.5 -39t15 -39.5t39 -14.5t39.5 14.5t15.5 39.5t-15 39t-40 14z" />
    <glyph glyph-name="uni2079" unicode="&#x2079;" horiz-adv-x="343" 
d="M166 711q56 0 91.5 -34t35.5 -86v-116q0 -34 -7 -67.5t-25.5 -60.5t-50.5 -44t-82 -17q-9 0 -21 1.5t-23 3.5q-25 7 -25 32q0 13 9 22t23 9q8 0 15.5 -2t21.5 -2q53 0 74 27t23 82q-14 -11 -32.5 -16t-33.5 -5q-26 0 -48 9t-38.5 25t-26 38.5t-9.5 48.5v32q0 26 9.5 48
t27 38t41 25t51.5 9zM166 647q-28 0 -44 -15t-16 -41v-33q0 -26 16 -41t44 -15q27 0 42.5 15t15.5 41v33q0 26 -16 41t-42 15z" />
    <glyph glyph-name="uni2080" unicode="&#x2080;" horiz-adv-x="364" 
d="M182 209q61 0 96 -34t35 -97v-163q0 -59 -35 -95t-96 -36q-60 0 -96 35t-36 96v163q0 60 35 95.5t97 35.5zM182 146q-63 0 -63 -63v-172q0 -63 63 -63t63 63v172q0 63 -63 63z" />
    <glyph glyph-name="uni2081" unicode="&#x2081;" horiz-adv-x="261" 
d="M150 209q16 0 26.5 -10.5t10.5 -26.5v-354q0 -14 -9.5 -24t-23.5 -10t-24.5 10t-10.5 24v304l-46 -25q-9 -6 -19 -6q-14 0 -23.5 9t-9.5 23q0 8 3.5 15t13.5 13l93 53q7 5 19 5z" />
    <glyph glyph-name="uni2082" unicode="&#x2082;" horiz-adv-x="323" 
d="M147 209q58 0 93 -31t35 -85q0 -30 -11.5 -54.5t-29.5 -47.5l-106 -136h118q14 0 23.5 -9.5t9.5 -23.5q0 -13 -9.5 -22.5t-23.5 -9.5h-180q-16 0 -27 11t-11 26q0 14 10 26l140 175q11 14 20 29t9 32q0 29 -16.5 42.5t-43.5 13.5q-20 0 -34.5 -4t-34.5 -12q-5 -2 -13 -2
q-14 0 -22.5 8.5t-8.5 22.5q0 19 17 28q20 11 42 17t54 6z" />
    <glyph glyph-name="uni2083" unicode="&#x2083;" horiz-adv-x="331" 
d="M147 209q58 0 91.5 -32.5t33.5 -85.5q0 -26 -12 -48t-32 -37q27 -15 41.5 -40.5t14.5 -56.5q0 -55 -36.5 -90t-99.5 -35q-34 0 -57.5 5.5t-42.5 14.5q-5 2 -12.5 9t-7.5 21t9 23t23 9q5 0 13 -3q17 -7 32 -11t43 -4q67 0 67 62q0 28 -19 45t-51 17h-16q-14 0 -23.5 9
t-9.5 23q0 13 9.5 22t23.5 9h16q27 0 42.5 15t15.5 41q0 54 -58 54q-19 0 -33.5 -3t-34.5 -12q-8 -3 -14 -3q-14 0 -23 9t-9 23q0 17 16 27q22 11 46 17t54 6z" />
    <glyph glyph-name="uni2084" unicode="&#x2084;" horiz-adv-x="322" 
d="M150 209q14 0 23.5 -9.5t9.5 -23.5v-6q0 -3 -2 -8l-78 -217h78v62q0 14 9.5 24t23.5 10t24 -10t10 -24v-62h30q14 0 23 -9.5t9 -23.5q0 -13 -9 -23t-23 -10h-30v-61q0 -14 -10 -24t-24 -10t-23.5 10t-9.5 24v61h-119q-17 0 -27.5 11t-10.5 27q0 7 3 15l93 257
q4 11 12.5 15.5t17.5 4.5z" />
    <glyph glyph-name="uni2085" unicode="&#x2085;" horiz-adv-x="344" 
d="M253 203q14 0 23.5 -9.5t9.5 -22.5q0 -14 -9.5 -23.5t-23.5 -9.5h-131v-93q10 3 21.5 5.5t25.5 2.5q56 0 92 -34t36 -87v-28q0 -26 -9.5 -48t-26.5 -38t-40.5 -25t-51.5 -9q-34 0 -58 6t-44 16q-8 4 -13.5 11.5t-5.5 17.5q0 13 9 22t23 9q5 0 13 -3q9 -4 16.5 -7t16 -4.5
t19 -2.5t24.5 -1q27 0 43 15t16 41v28q0 26 -16 41.5t-43 15.5q-20 0 -32 -3.5t-29 -11.5q-3 -2 -7.5 -2.5t-7.5 -0.5q-17 0 -28 11t-11 28v153q0 17 11.5 28.5t28.5 11.5h159z" />
    <glyph glyph-name="uni2086" unicode="&#x2086;" horiz-adv-x="343" 
d="M216 209q20 0 43 -5q25 -7 25 -32q0 -13 -9 -22t-23 -9q-8 0 -15 2t-21 2q-53 0 -74.5 -27t-23.5 -82q14 11 32.5 16t33.5 5q53 0 87.5 -34t34.5 -87v-32q0 -26 -9.5 -48t-26.5 -38t-40.5 -25t-51.5 -9t-51.5 9t-40.5 25t-26.5 38t-9.5 48v116q0 34 7 67.5t25.5 60.5
t50.5 44t83 17zM178 -7q-27 0 -43 -15t-16 -41v-33q0 -26 16 -41t43 -15t43 15t16 41v33q0 26 -16 41t-43 15z" />
    <glyph glyph-name="uni2087" unicode="&#x2087;" horiz-adv-x="303" 
d="M241 203q16 0 27 -10.5t11 -27.5q0 -9 -5 -20l-141 -340q-10 -21 -31 -21q-15 0 -25 9t-10 23q0 9 4 17l127 305h-150q-15 0 -24 9.5t-9 23.5q0 13 9 22.5t24 9.5h193z" />
    <glyph glyph-name="uni2088" unicode="&#x2088;" horiz-adv-x="360" 
d="M180 209q55 0 89 -32.5t34 -84.5q0 -26 -12 -48t-32 -37q26 -16 40 -41.5t14 -54.5q0 -58 -37 -92.5t-96 -34.5q-58 0 -95 34.5t-37 92.5q0 29 14 55t39 41q-20 15 -31.5 37.5t-11.5 47.5q0 52 33.5 84.5t88.5 32.5zM180 -26q-29 0 -46.5 -17t-17.5 -46q0 -31 17.5 -47
t46.5 -16q30 0 47 16t17 47q0 29 -17 46t-47 17zM180 145q-25 0 -39.5 -14t-14.5 -39t15 -39.5t39 -14.5t39.5 14.5t15.5 39.5t-15 39t-40 14z" />
    <glyph glyph-name="uni2089" unicode="&#x2089;" horiz-adv-x="343" 
d="M166 209q56 0 91.5 -34t35.5 -86v-116q0 -34 -7 -67.5t-25.5 -60.5t-50.5 -44t-82 -17q-9 0 -21 1.5t-23 3.5q-25 7 -25 32q0 13 9 22t23 9q8 0 15.5 -2t21.5 -2q53 0 74 27t23 82q-14 -11 -32.5 -16t-33.5 -5q-26 0 -48 9t-38.5 25t-26 38.5t-9.5 48.5v32q0 26 9.5 48
t27 38t41 25t51.5 9zM166 145q-28 0 -44 -15t-16 -41v-33q0 -26 16 -41t44 -15q27 0 42.5 15t15.5 41v33q0 26 -16 41t-42 15z" />
    <glyph glyph-name="Euro" unicode="&#x20ac;" 
d="M340 711q45 0 78 -9.5t67 -28.5q35 -19 35 -50q0 -18 -13.5 -33t-35.5 -15q-9 0 -16.5 2.5t-15.5 7.5q-28 15 -49 21.5t-50 6.5q-65 0 -93 -34.5t-30 -95.5h141q20 0 32.5 -12.5t12.5 -31.5q0 -20 -12.5 -32.5t-32.5 -12.5h-141v-84h141q20 0 32.5 -12.5t12.5 -32.5
t-12.5 -32.5t-32.5 -12.5h-141q2 -62 30 -97t93 -35q27 0 48 6.5t44 19.5q13 8 22 10.5t17 2.5q20 0 34.5 -14t14.5 -35q0 -26 -25 -44q-35 -25 -74 -34.5t-81 -9.5q-109 0 -166.5 60.5t-62.5 169.5h-34q-20 0 -32.5 12.5t-12.5 32.5t12.5 32.5t32.5 12.5h34v84h-34
q-20 0 -32.5 12.5t-12.5 32.5q0 19 12.5 31.5t32.5 12.5h34q5 110 63 169t166 59z" />
    <glyph glyph-name="trademark" unicode="&#x2122;" horiz-adv-x="818" 
d="M702 711q17 0 30 -13t13 -30v-344q0 -16 -11.5 -27t-28.5 -11q-16 0 -27.5 11t-11.5 27v202l-67 -130q-12 -24 -38 -24q-25 0 -37 25l-67 129v-202q0 -16 -11.5 -27t-28.5 -11q-16 0 -27.5 11t-11.5 27v344q0 17 13 30t30 13q12 0 22.5 -6.5t15.5 -17.5l102 -200l103 200
q5 10 16 17t22 7zM303 705q17 0 28.5 -10.5t11.5 -27.5q0 -15 -11.5 -26t-28.5 -11h-73v-306q0 -17 -12 -27.5t-28 -10.5t-27.5 10.5t-11.5 27.5v306h-73q-17 0 -28.5 11t-11.5 26q0 17 11.5 27.5t28.5 10.5h225z" />
    <glyph glyph-name="Omega" unicode="&#x2126;" horiz-adv-x="631" 
d="M316 711q55 0 101 -16.5t78 -48t50 -76.5t18 -103v-107q0 -74 -29 -127t-80 -82v-50h68q23 0 37 -14.5t14 -35.5q0 -22 -14 -36.5t-37 -14.5h-106q-26 0 -42.5 16.5t-16.5 42.5v119q0 17 7 30.5t27 23.5q32 16 49 46.5t17 73.5v123q0 65 -37.5 101.5t-103.5 36.5
t-104 -36.5t-38 -101.5v-123q0 -43 17.5 -73.5t49.5 -46.5q20 -10 26.5 -23.5t6.5 -30.5v-119q0 -26 -16.5 -42.5t-42.5 -16.5h-106q-23 0 -37 14.5t-14 36.5q0 21 14 35.5t37 14.5h68v50q-51 29 -80 82t-29 127v107q0 58 18 103t50.5 76.5t78 48t101.5 16.5z" />
    <glyph glyph-name="uni2150" unicode="&#x2150;" horiz-adv-x="771" 
d="M538 711q15 0 25 -9.5t10 -25.5q0 -11 -6 -21l-343 -645q-11 -20 -32 -20q-16 0 -26 9.5t-10 25.5q0 10 6 21l343 645q11 20 33 20zM709 413q16 0 27 -10.5t11 -27.5q0 -9 -5 -20l-141 -340q-10 -21 -31 -21q-15 0 -25 9t-10 23q0 9 4 17l127 305h-150q-15 0 -24 9.5
t-9 23.5q0 13 9 22.5t24 9.5h193zM150 711q16 0 26.5 -10.5t10.5 -26.5v-354q0 -14 -9.5 -24t-23.5 -10t-24.5 10t-10.5 24v304l-46 -25q-9 -6 -19 -6q-14 0 -23.5 9t-9.5 23q0 8 3.5 15t13.5 13l93 53q7 5 19 5z" />
    <glyph glyph-name="uni2151" unicode="&#x2151;" horiz-adv-x="811" 
d="M538 711q15 0 25 -9.5t10 -25.5q0 -11 -6 -21l-343 -645q-11 -20 -32 -20q-16 0 -26 9.5t-10 25.5q0 10 6 21l343 645q11 20 33 20zM634 419q56 0 91.5 -34t35.5 -86v-116q0 -34 -7 -67.5t-25.5 -60.5t-50.5 -44t-82 -17q-9 0 -21 1.5t-23 3.5q-25 7 -25 32q0 13 9 22
t23 9q8 0 15.5 -2t21.5 -2q53 0 74 27t23 82q-14 -11 -32.5 -16t-33.5 -5q-26 0 -48 9t-38.5 25t-26 38.5t-9.5 48.5v32q0 26 9.5 48t27 38t41 25t51.5 9zM634 355q-28 0 -44 -15t-16 -41v-33q0 -26 16 -41t44 -15q27 0 42.5 15t15.5 41v33q0 26 -16 41t-42 15zM150 711
q16 0 26.5 -10.5t10.5 -26.5v-354q0 -14 -9.5 -24t-23.5 -10t-24.5 10t-10.5 24v304l-46 -25q-9 -6 -19 -6q-14 0 -23.5 9t-9.5 23q0 8 3.5 15t13.5 13l93 53q7 5 19 5z" />
    <glyph glyph-name="uni2152" unicode="&#x2152;" horiz-adv-x="1093" 
d="M538 711q15 0 25 -9.5t10 -25.5q0 -11 -6 -21l-343 -645q-11 -20 -32 -20q-16 0 -26 9.5t-10 25.5q0 10 6 21l343 645q11 20 33 20zM911 419q61 0 96 -34t35 -97v-163q0 -59 -35 -95t-96 -36q-60 0 -96 35t-36 96v163q0 60 35 95.5t97 35.5zM911 356q-63 0 -63 -63v-172
q0 -63 63 -63t63 63v172q0 63 -63 63zM618 419q16 0 26.5 -10.5t10.5 -26.5v-354q0 -14 -9.5 -24t-23.5 -10t-24.5 10t-10.5 24v304l-46 -25q-9 -6 -19 -6q-14 0 -23.5 9t-9.5 23q0 8 3.5 15t13.5 13l93 53q7 5 19 5zM150 711q16 0 26.5 -10.5t10.5 -26.5v-354
q0 -14 -9.5 -24t-23.5 -10t-24.5 10t-10.5 24v304l-46 -25q-9 -6 -19 -6q-14 0 -23.5 9t-9.5 23q0 8 3.5 15t13.5 13l93 53q7 5 19 5z" />
    <glyph glyph-name="onethird" unicode="&#x2153;" horiz-adv-x="799" 
d="M538 711q15 0 25 -9.5t10 -25.5q0 -11 -6 -21l-343 -645q-11 -20 -32 -20q-16 0 -26 9.5t-10 25.5q0 10 6 21l343 645q11 20 33 20zM615 419q58 0 91.5 -32.5t33.5 -85.5q0 -26 -12 -48t-32 -37q27 -15 41.5 -40.5t14.5 -56.5q0 -55 -36.5 -90t-99.5 -35q-34 0 -57.5 5.5
t-42.5 14.5q-5 2 -12.5 9t-7.5 21t9 23t23 9q5 0 13 -3q17 -7 32 -11t43 -4q67 0 67 62q0 28 -19 45t-51 17h-16q-14 0 -23.5 9t-9.5 23q0 13 9.5 22t23.5 9h16q27 0 42.5 15t15.5 41q0 54 -58 54q-19 0 -33.5 -3t-34.5 -12q-8 -3 -14 -3q-14 0 -23 9t-9 23q0 17 16 27
q22 11 46 17t54 6zM150 711q16 0 26.5 -10.5t10.5 -26.5v-354q0 -14 -9.5 -24t-23.5 -10t-24.5 10t-10.5 24v304l-46 -25q-9 -6 -19 -6q-14 0 -23.5 9t-9.5 23q0 8 3.5 15t13.5 13l93 53q7 5 19 5z" />
    <glyph glyph-name="twothirds" unicode="&#x2154;" horiz-adv-x="861" 
d="M600 711q15 0 25 -9.5t10 -25.5q0 -11 -6 -21l-343 -645q-11 -20 -32 -20q-16 0 -26 9.5t-10 25.5q0 10 6 21l343 645q11 20 33 20zM677 419q58 0 91.5 -32.5t33.5 -85.5q0 -26 -12 -48t-32 -37q27 -15 41.5 -40.5t14.5 -56.5q0 -55 -36.5 -90t-99.5 -35q-34 0 -57.5 5.5
t-42.5 14.5q-5 2 -12.5 9t-7.5 21t9 23t23 9q5 0 13 -3q17 -7 32 -11t43 -4q67 0 67 62q0 28 -19 45t-51 17h-16q-14 0 -23.5 9t-9.5 23q0 13 9.5 22t23.5 9h16q27 0 42.5 15t15.5 41q0 54 -58 54q-19 0 -33.5 -3t-34.5 -12q-8 -3 -14 -3q-14 0 -23 9t-9 23q0 17 16 27
q22 11 46 17t54 6zM147 711q58 0 93 -31t35 -85q0 -30 -11.5 -54.5t-29.5 -47.5l-106 -136h118q14 0 23.5 -9.5t9.5 -23.5q0 -13 -9.5 -22.5t-23.5 -9.5h-180q-16 0 -27 11t-11 26q0 14 10 26l140 175q11 14 20 29t9 32q0 29 -16.5 42.5t-43.5 13.5q-20 0 -34.5 -4
t-34.5 -12q-5 -2 -13 -2q-14 0 -22.5 8.5t-8.5 22.5q0 19 17 28q20 11 42 17t54 6z" />
    <glyph glyph-name="uni2155" unicode="&#x2155;" horiz-adv-x="812" 
d="M538 711q15 0 25 -9.5t10 -25.5q0 -11 -6 -21l-343 -645q-11 -20 -32 -20q-16 0 -26 9.5t-10 25.5q0 10 6 21l343 645q11 20 33 20zM721 413q14 0 23.5 -9.5t9.5 -22.5q0 -14 -9.5 -23.5t-23.5 -9.5h-131v-93q10 3 21.5 5.5t25.5 2.5q56 0 92 -34t36 -87v-28
q0 -26 -9.5 -48t-26.5 -38t-40.5 -25t-51.5 -9q-34 0 -58 6t-44 16q-8 4 -13.5 11.5t-5.5 17.5q0 13 9 22t23 9q5 0 13 -3q9 -4 16.5 -7t16 -4.5t19 -2.5t24.5 -1q27 0 43 15t16 41v28q0 26 -16 41.5t-43 15.5q-20 0 -32 -3.5t-29 -11.5q-3 -2 -7.5 -2.5t-7.5 -0.5
q-17 0 -28 11t-11 28v153q0 17 11.5 28.5t28.5 11.5h159zM150 711q16 0 26.5 -10.5t10.5 -26.5v-354q0 -14 -9.5 -24t-23.5 -10t-24.5 10t-10.5 24v304l-46 -25q-9 -6 -19 -6q-14 0 -23.5 9t-9.5 23q0 8 3.5 15t13.5 13l93 53q7 5 19 5z" />
    <glyph glyph-name="uni2156" unicode="&#x2156;" horiz-adv-x="874" 
d="M600 711q15 0 25 -9.5t10 -25.5q0 -11 -6 -21l-343 -645q-11 -20 -32 -20q-16 0 -26 9.5t-10 25.5q0 10 6 21l343 645q11 20 33 20zM783 413q14 0 23.5 -9.5t9.5 -22.5q0 -14 -9.5 -23.5t-23.5 -9.5h-131v-93q10 3 21.5 5.5t25.5 2.5q56 0 92 -34t36 -87v-28
q0 -26 -9.5 -48t-26.5 -38t-40.5 -25t-51.5 -9q-34 0 -58 6t-44 16q-8 4 -13.5 11.5t-5.5 17.5q0 13 9 22t23 9q5 0 13 -3q9 -4 16.5 -7t16 -4.5t19 -2.5t24.5 -1q27 0 43 15t16 41v28q0 26 -16 41.5t-43 15.5q-20 0 -32 -3.5t-29 -11.5q-3 -2 -7.5 -2.5t-7.5 -0.5
q-17 0 -28 11t-11 28v153q0 17 11.5 28.5t28.5 11.5h159zM147 711q58 0 93 -31t35 -85q0 -30 -11.5 -54.5t-29.5 -47.5l-106 -136h118q14 0 23.5 -9.5t9.5 -23.5q0 -13 -9.5 -22.5t-23.5 -9.5h-180q-16 0 -27 11t-11 26q0 14 10 26l140 175q11 14 20 29t9 32
q0 29 -16.5 42.5t-43.5 13.5q-20 0 -34.5 -4t-34.5 -12q-5 -2 -13 -2q-14 0 -22.5 8.5t-8.5 22.5q0 19 17 28q20 11 42 17t54 6z" />
    <glyph glyph-name="uni2157" unicode="&#x2157;" horiz-adv-x="882" 
d="M608 711q15 0 25 -9.5t10 -25.5q0 -11 -6 -21l-343 -645q-11 -20 -32 -20q-16 0 -26 9.5t-10 25.5q0 10 6 21l343 645q11 20 33 20zM791 413q14 0 23.5 -9.5t9.5 -22.5q0 -14 -9.5 -23.5t-23.5 -9.5h-131v-93q10 3 21.5 5.5t25.5 2.5q56 0 92 -34t36 -87v-28
q0 -26 -9.5 -48t-26.5 -38t-40.5 -25t-51.5 -9q-34 0 -58 6t-44 16q-8 4 -13.5 11.5t-5.5 17.5q0 13 9 22t23 9q5 0 13 -3q9 -4 16.5 -7t16 -4.5t19 -2.5t24.5 -1q27 0 43 15t16 41v28q0 26 -16 41.5t-43 15.5q-20 0 -32 -3.5t-29 -11.5q-3 -2 -7.5 -2.5t-7.5 -0.5
q-17 0 -28 11t-11 28v153q0 17 11.5 28.5t28.5 11.5h159zM147 711q58 0 91.5 -32.5t33.5 -85.5q0 -26 -12 -48t-32 -37q27 -15 41.5 -40.5t14.5 -56.5q0 -55 -36.5 -90t-99.5 -35q-34 0 -57.5 5.5t-42.5 14.5q-5 2 -12.5 9t-7.5 21t9 23t23 9q5 0 13 -3q17 -7 32 -11t43 -4
q67 0 67 62q0 28 -19 45t-51 17h-16q-14 0 -23.5 9t-9.5 23q0 13 9.5 22t23.5 9h16q27 0 42.5 15t15.5 41q0 54 -58 54q-19 0 -33.5 -3t-34.5 -12q-8 -3 -14 -3q-14 0 -23 9t-9 23q0 17 16 27q22 11 46 17t54 6z" />
    <glyph glyph-name="uni2158" unicode="&#x2158;" horiz-adv-x="873" 
d="M599 711q15 0 25 -9.5t10 -25.5q0 -11 -6 -21l-343 -645q-11 -20 -32 -20q-16 0 -26 9.5t-10 25.5q0 10 6 21l343 645q11 20 33 20zM782 413q14 0 23.5 -9.5t9.5 -22.5q0 -14 -9.5 -23.5t-23.5 -9.5h-131v-93q10 3 21.5 5.5t25.5 2.5q56 0 92 -34t36 -87v-28
q0 -26 -9.5 -48t-26.5 -38t-40.5 -25t-51.5 -9q-34 0 -58 6t-44 16q-8 4 -13.5 11.5t-5.5 17.5q0 13 9 22t23 9q5 0 13 -3q9 -4 16.5 -7t16 -4.5t19 -2.5t24.5 -1q27 0 43 15t16 41v28q0 26 -16 41.5t-43 15.5q-20 0 -32 -3.5t-29 -11.5q-3 -2 -7.5 -2.5t-7.5 -0.5
q-17 0 -28 11t-11 28v153q0 17 11.5 28.5t28.5 11.5h159zM150 711q14 0 23.5 -9.5t9.5 -23.5v-6q0 -3 -2 -8l-78 -217h78v62q0 14 9.5 24t23.5 10t24 -10t10 -24v-62h30q14 0 23 -9.5t9 -23.5q0 -13 -9 -23t-23 -10h-30v-61q0 -14 -10 -24t-24 -10t-23.5 10t-9.5 24v61h-119
q-17 0 -27.5 11t-10.5 27q0 7 3 15l93 257q4 11 12.5 15.5t17.5 4.5z" />
    <glyph glyph-name="uni2159" unicode="&#x2159;" horiz-adv-x="811" 
d="M538 711q15 0 25 -9.5t10 -25.5q0 -11 -6 -21l-343 -645q-11 -20 -32 -20q-16 0 -26 9.5t-10 25.5q0 10 6 21l343 645q11 20 33 20zM684 419q20 0 43 -5q25 -7 25 -32q0 -13 -9 -22t-23 -9q-8 0 -15 2t-21 2q-53 0 -74.5 -27t-23.5 -82q14 11 32.5 16t33.5 5
q53 0 87.5 -34t34.5 -87v-32q0 -26 -9.5 -48t-26.5 -38t-40.5 -25t-51.5 -9t-51.5 9t-40.5 25t-26.5 38t-9.5 48v116q0 34 7 67.5t25.5 60.5t50.5 44t83 17zM646 203q-27 0 -43 -15t-16 -41v-33q0 -26 16 -41t43 -15t43 15t16 41v33q0 26 -16 41t-43 15zM150 711
q16 0 26.5 -10.5t10.5 -26.5v-354q0 -14 -9.5 -24t-23.5 -10t-24.5 10t-10.5 24v304l-46 -25q-9 -6 -19 -6q-14 0 -23.5 9t-9.5 23q0 8 3.5 15t13.5 13l93 53q7 5 19 5z" />
    <glyph glyph-name="uni215A" unicode="&#x215a;" horiz-adv-x="894" 
d="M621 711q15 0 25 -9.5t10 -25.5q0 -11 -6 -21l-343 -645q-11 -20 -32 -20q-16 0 -26 9.5t-10 25.5q0 10 6 21l343 645q11 20 33 20zM767 419q20 0 43 -5q25 -7 25 -32q0 -13 -9 -22t-23 -9q-8 0 -15 2t-21 2q-53 0 -74.5 -27t-23.5 -82q14 11 32.5 16t33.5 5
q53 0 87.5 -34t34.5 -87v-32q0 -26 -9.5 -48t-26.5 -38t-40.5 -25t-51.5 -9t-51.5 9t-40.5 25t-26.5 38t-9.5 48v116q0 34 7 67.5t25.5 60.5t50.5 44t83 17zM729 203q-27 0 -43 -15t-16 -41v-33q0 -26 16 -41t43 -15t43 15t16 41v33q0 26 -16 41t-43 15zM253 705
q14 0 23.5 -9.5t9.5 -22.5q0 -14 -9.5 -23.5t-23.5 -9.5h-131v-93q10 3 21.5 5.5t25.5 2.5q56 0 92 -34t36 -87v-28q0 -26 -9.5 -48t-26.5 -38t-40.5 -25t-51.5 -9q-34 0 -58 6t-44 16q-8 4 -13.5 11.5t-5.5 17.5q0 13 9 22t23 9q5 0 13 -3q9 -4 16.5 -7t16 -4.5t19 -2.5
t24.5 -1q27 0 43 15t16 41v28q0 26 -16 41.5t-43 15.5q-20 0 -32 -3.5t-29 -11.5q-3 -2 -7.5 -2.5t-7.5 -0.5q-17 0 -28 11t-11 28v153q0 17 11.5 28.5t28.5 11.5h159z" />
    <glyph glyph-name="oneeighth" unicode="&#x215b;" horiz-adv-x="828" 
d="M538 711q15 0 25 -9.5t10 -25.5q0 -11 -6 -21l-343 -645q-11 -20 -32 -20q-16 0 -26 9.5t-10 25.5q0 10 6 21l343 645q11 20 33 20zM648 419q55 0 89 -32.5t34 -84.5q0 -26 -12 -48t-32 -37q26 -16 40 -41.5t14 -54.5q0 -58 -37 -92.5t-96 -34.5q-58 0 -95 34.5t-37 92.5
q0 29 14 55t39 41q-20 15 -31.5 37.5t-11.5 47.5q0 52 33.5 84.5t88.5 32.5zM648 184q-29 0 -46.5 -17t-17.5 -46q0 -31 17.5 -47t46.5 -16q30 0 47 16t17 47q0 29 -17 46t-47 17zM648 355q-25 0 -39.5 -14t-14.5 -39t15 -39.5t39 -14.5t39.5 14.5t15.5 39.5t-15 39t-40 14z
M150 711q16 0 26.5 -10.5t10.5 -26.5v-354q0 -14 -9.5 -24t-23.5 -10t-24.5 10t-10.5 24v304l-46 -25q-9 -6 -19 -6q-14 0 -23.5 9t-9.5 23q0 8 3.5 15t13.5 13l93 53q7 5 19 5z" />
    <glyph glyph-name="threeeighths" unicode="&#x215c;" horiz-adv-x="898" 
d="M608 711q15 0 25 -9.5t10 -25.5q0 -11 -6 -21l-343 -645q-11 -20 -32 -20q-16 0 -26 9.5t-10 25.5q0 10 6 21l343 645q11 20 33 20zM718 419q55 0 89 -32.5t34 -84.5q0 -26 -12 -48t-32 -37q26 -16 40 -41.5t14 -54.5q0 -58 -37 -92.5t-96 -34.5q-58 0 -95 34.5t-37 92.5
q0 29 14 55t39 41q-20 15 -31.5 37.5t-11.5 47.5q0 52 33.5 84.5t88.5 32.5zM718 184q-29 0 -46.5 -17t-17.5 -46q0 -31 17.5 -47t46.5 -16q30 0 47 16t17 47q0 29 -17 46t-47 17zM718 355q-25 0 -39.5 -14t-14.5 -39t15 -39.5t39 -14.5t39.5 14.5t15.5 39.5t-15 39t-40 14z
M147 711q58 0 91.5 -32.5t33.5 -85.5q0 -26 -12 -48t-32 -37q27 -15 41.5 -40.5t14.5 -56.5q0 -55 -36.5 -90t-99.5 -35q-34 0 -57.5 5.5t-42.5 14.5q-5 2 -12.5 9t-7.5 21t9 23t23 9q5 0 13 -3q17 -7 32 -11t43 -4q67 0 67 62q0 28 -19 45t-51 17h-16q-14 0 -23.5 9
t-9.5 23q0 13 9.5 22t23.5 9h16q27 0 42.5 15t15.5 41q0 54 -58 54q-19 0 -33.5 -3t-34.5 -12q-8 -3 -14 -3q-14 0 -23 9t-9 23q0 17 16 27q22 11 46 17t54 6z" />
    <glyph glyph-name="fiveeighths" unicode="&#x215d;" horiz-adv-x="911" 
d="M621 711q15 0 25 -9.5t10 -25.5q0 -11 -6 -21l-343 -645q-11 -20 -32 -20q-16 0 -26 9.5t-10 25.5q0 10 6 21l343 645q11 20 33 20zM731 419q55 0 89 -32.5t34 -84.5q0 -26 -12 -48t-32 -37q26 -16 40 -41.5t14 -54.5q0 -58 -37 -92.5t-96 -34.5q-58 0 -95 34.5t-37 92.5
q0 29 14 55t39 41q-20 15 -31.5 37.5t-11.5 47.5q0 52 33.5 84.5t88.5 32.5zM731 184q-29 0 -46.5 -17t-17.5 -46q0 -31 17.5 -47t46.5 -16q30 0 47 16t17 47q0 29 -17 46t-47 17zM731 355q-25 0 -39.5 -14t-14.5 -39t15 -39.5t39 -14.5t39.5 14.5t15.5 39.5t-15 39t-40 14z
M253 705q14 0 23.5 -9.5t9.5 -22.5q0 -14 -9.5 -23.5t-23.5 -9.5h-131v-93q10 3 21.5 5.5t25.5 2.5q56 0 92 -34t36 -87v-28q0 -26 -9.5 -48t-26.5 -38t-40.5 -25t-51.5 -9q-34 0 -58 6t-44 16q-8 4 -13.5 11.5t-5.5 17.5q0 13 9 22t23 9q5 0 13 -3q9 -4 16.5 -7t16 -4.5
t19 -2.5t24.5 -1q27 0 43 15t16 41v28q0 26 -16 41.5t-43 15.5q-20 0 -32 -3.5t-29 -11.5q-3 -2 -7.5 -2.5t-7.5 -0.5q-17 0 -28 11t-11 28v153q0 17 11.5 28.5t28.5 11.5h159z" />
    <glyph glyph-name="seveneighths" unicode="&#x215e;" horiz-adv-x="840" 
d="M550 711q15 0 25 -9.5t10 -25.5q0 -11 -6 -21l-343 -645q-11 -20 -32 -20q-16 0 -26 9.5t-10 25.5q0 10 6 21l343 645q11 20 33 20zM660 419q55 0 89 -32.5t34 -84.5q0 -26 -12 -48t-32 -37q26 -16 40 -41.5t14 -54.5q0 -58 -37 -92.5t-96 -34.5q-58 0 -95 34.5t-37 92.5
q0 29 14 55t39 41q-20 15 -31.5 37.5t-11.5 47.5q0 52 33.5 84.5t88.5 32.5zM660 184q-29 0 -46.5 -17t-17.5 -46q0 -31 17.5 -47t46.5 -16q30 0 47 16t17 47q0 29 -17 46t-47 17zM660 355q-25 0 -39.5 -14t-14.5 -39t15 -39.5t39 -14.5t39.5 14.5t15.5 39.5t-15 39t-40 14z
M241 705q16 0 27 -10.5t11 -27.5q0 -9 -5 -20l-141 -340q-10 -21 -31 -21q-15 0 -25 9t-10 23q0 9 4 17l127 305h-150q-15 0 -24 9.5t-9 23.5q0 13 9 22.5t24 9.5h193z" />
    <glyph glyph-name="uni215F" unicode="&#x215f;" horiz-adv-x="468" 
d="M538 711q15 0 25 -9.5t10 -25.5q0 -11 -6 -21l-343 -645q-11 -20 -32 -20q-16 0 -26 9.5t-10 25.5q0 10 6 21l343 645q11 20 33 20zM150 711q16 0 26.5 -10.5t10.5 -26.5v-354q0 -14 -9.5 -24t-23.5 -10t-24.5 10t-10.5 24v304l-46 -25q-9 -6 -19 -6q-14 0 -23.5 9
t-9.5 23q0 8 3.5 15t13.5 13l93 53q7 5 19 5z" />
    <glyph glyph-name="uni2189" unicode="&#x2189;" horiz-adv-x="902" 
d="M182 714q61 0 96 -34t35 -97v-163q0 -59 -35 -95t-96 -36q-60 0 -96 35t-36 96v163q0 60 35 95.5t97 35.5zM182 651q-63 0 -63 -63v-172q0 -63 63 -63t63 63v172q0 63 -63 63zM641 711q15 0 25 -9.5t10 -25.5q0 -11 -6 -21l-343 -645q-11 -20 -32 -20q-16 0 -26 9.5
t-10 25.5q0 10 6 21l343 645q11 20 33 20zM718 419q58 0 91.5 -32.5t33.5 -85.5q0 -26 -12 -48t-32 -37q27 -15 41.5 -40.5t14.5 -56.5q0 -55 -36.5 -90t-99.5 -35q-34 0 -57.5 5.5t-42.5 14.5q-5 2 -12.5 9t-7.5 21t9 23t23 9q5 0 13 -3q17 -7 32 -11t43 -4q67 0 67 62
q0 28 -19 45t-51 17h-16q-14 0 -23.5 9t-9.5 23q0 13 9.5 22t23.5 9h16q27 0 42.5 15t15.5 41q0 54 -58 54q-19 0 -33.5 -3t-34.5 -12q-8 -3 -14 -3q-14 0 -23 9t-9 23q0 17 16 27q22 11 46 17t54 6z" />
    <glyph glyph-name="arrowleft" unicode="&#x2190;" horiz-adv-x="1310" 
d="M527 711q23 0 36.5 -14.5t13.5 -35.5q0 -9 -3 -18.5t-11 -16.5l-231 -225h763q23 0 36.5 -14.5t13.5 -35.5t-13.5 -35.5t-36.5 -14.5h-763l231 -226q8 -7 11 -16.5t3 -18.5q0 -21 -13.5 -35.5t-36.5 -14.5q-22 0 -36 14l-309 311q-16 16 -16 36t16 36l309 310
q14 14 36 14z" />
    <glyph glyph-name="arrowup" unicode="&#x2191;" horiz-adv-x="1310" 
d="M655 812q20 0 36 -16l311 -309q14 -14 14 -36q0 -23 -14 -36.5t-35 -13.5q-22 0 -36 14l-226 231v-764q0 -23 -14 -36.5t-35 -13.5q-22 0 -36.5 13.5t-14.5 36.5v764l-226 -231q-8 -8 -17 -11t-18 -3q-21 0 -35.5 13t-14.5 36q0 10 3 19.5t11 17.5l311 309q16 16 36 16z
" />
    <glyph glyph-name="arrowright" unicode="&#x2192;" horiz-adv-x="1310" 
d="M783 711q22 0 36 -14l309 -310q16 -16 16 -36t-16 -36l-309 -311q-14 -14 -36 -14q-23 0 -36.5 14.5t-13.5 35.5q0 9 3 18.5t11 16.5l231 226h-763q-23 0 -36.5 14.5t-13.5 35.5t13.5 35.5t36.5 14.5h763l-231 225q-8 7 -11 16.5t-3 18.5q0 21 13.5 35.5t36.5 14.5z" />
    <glyph glyph-name="arrowdown" unicode="&#x2193;" horiz-adv-x="1310" 
d="M656 812q21 0 35 -13.5t14 -36.5v-764l226 231q14 14 36 14q21 0 35 -13.5t14 -36.5q0 -22 -14 -36l-311 -309q-16 -16 -36 -16t-36 16l-311 309q-8 8 -11 17.5t-3 19.5q0 23 14.5 36t35.5 13q9 0 18 -3t17 -11l226 -231v764q0 23 14.5 36.5t36.5 13.5z" />
    <glyph glyph-name="uni2196" unicode="&#x2196;" horiz-adv-x="1310" 
d="M787 701q22 0 36 -15t14 -35t-14 -34.5t-36 -14.5h-318l528 -527q8 -8 11 -17t3 -18q0 -23 -14.5 -36.5t-35.5 -13.5q-19 0 -34 15l-528 527v-319q0 -22 -14.5 -35.5t-34.5 -13.5q-21 0 -35.5 13.5t-14.5 35.5v437q0 20 14 35.5t37 15.5h436z" />
    <glyph glyph-name="uni2197" unicode="&#x2197;" horiz-adv-x="1310" 
d="M959 701q23 0 37 -15.5t14 -35.5v-437q0 -22 -14.5 -35.5t-35.5 -13.5q-20 0 -34.5 13.5t-14.5 35.5v319l-528 -527q-15 -15 -34 -15q-21 0 -35.5 13.5t-14.5 36.5q0 9 3 18t11 17l528 527h-318q-22 0 -36 14.5t-14 34.5t14 35t36 15h436z" />
    <glyph glyph-name="uni2198" unicode="&#x2198;" horiz-adv-x="1310" 
d="M349 711q19 0 34 -15l528 -527v319q0 22 14.5 35.5t34.5 13.5q21 0 35.5 -13.5t14.5 -35.5v-437q0 -20 -14 -35.5t-37 -15.5h-436q-22 0 -36 15t-14 35t14 34.5t36 14.5h318l-528 527q-8 8 -11 17t-3 18q0 23 14.5 36.5t35.5 13.5z" />
    <glyph glyph-name="uni2199" unicode="&#x2199;" horiz-adv-x="1310" 
d="M960 711q21 0 35.5 -13.5t14.5 -36.5q0 -9 -3 -18t-11 -17l-528 -527h318q22 0 36 -14.5t14 -34.5t-14 -35t-36 -15h-436q-23 0 -37 15.5t-14 35.5v437q0 22 14.5 35.5t35.5 13.5q20 0 34.5 -13.5t14.5 -35.5v-319l528 527q15 15 34 15z" />
    <glyph glyph-name="uni21AA" unicode="&#x21aa;" horiz-adv-x="1100" 
d="M118 711q23 0 37.5 -14t14.5 -37v-204q0 -53 28.5 -80.5t79.5 -27.5h452l-178 173q-15 13 -15 35q0 20 14 35t37 15q9 0 18 -3t17 -12l257 -257q16 -16 16 -36q0 -19 -16 -35l-257 -259q-8 -8 -17 -11t-18 -3q-23 0 -37 14.5t-14 35.5q0 20 15 35l178 174h-453
q-98 0 -154 53t-56 156v202q0 23 14.5 37t36.5 14z" />
    <glyph glyph-name="partialdiff" unicode="&#x2202;" 
d="M206 711q5 0 12.5 -1.5t12.5 -3.5q69 -18 117 -53t78 -84.5t44 -112.5t16 -137v-120q0 -99 -54.5 -154t-155.5 -55q-98 0 -154.5 53.5t-56.5 155.5v109q0 101 55 155t152 54q26 0 48 -11q20 -10 33 -25q-37 104 -159 134q-18 5 -28 17.5t-10 29.5q0 21 14 35t36 14z
M276 422q-51 0 -79.5 -27.5t-28.5 -80.5v-121q0 -54 28.5 -81.5t79.5 -27.5t79 27.5t28 81.5v121q0 53 -28 80.5t-79 27.5z" />
    <glyph glyph-name="Delta" unicode="&#x2206;" horiz-adv-x="560" 
d="M280 711q17 0 32.5 -9t22.5 -29l200 -595q2 -5 3 -10.5t1 -10.5q0 -26 -16.5 -41.5t-41.5 -15.5h-402q-25 0 -41.5 15.5t-16.5 41.5q0 13 5 27l198 589q7 20 22.5 29t33.5 9zM134 99h291l-145 442z" />
    <glyph glyph-name="product" unicode="&#x220f;" horiz-adv-x="652" 
d="M509 701q23 0 37.5 -15.5t14.5 -35.5v-822q0 -23 -14 -37t-37 -14t-37.5 14t-14.5 37v775h-264v-775q0 -23 -14.5 -37t-37.5 -14q-22 0 -36.5 14t-14.5 37v822q0 22 16 36.5t36 14.5h366z" />
    <glyph glyph-name="summation" unicode="&#x2211;" horiz-adv-x="705" 
d="M594 701q22 0 35 -14t13 -35q0 -20 -13 -34.5t-35 -14.5h-391l212 -323q7 -10 9.5 -17.5t2.5 -18.5q0 -10 -2.5 -18t-9.5 -18l-212 -323h391q22 0 35 -14.5t13 -34.5q0 -21 -13 -35t-35 -14h-473q-24 0 -41 17.5t-17 40.5q0 18 11 35l240 364l-238 361q-13 19 -13 38
q0 24 17 41t41 17h473z" />
    <glyph glyph-name="minus" unicode="&#x2212;" 
d="M468 304q21 0 34.5 -14t13.5 -35t-13.5 -35t-34.5 -14h-383q-21 0 -34.5 14t-13.5 35t13.5 35t34.5 14h383z" />
    <glyph glyph-name="uni2219" unicode="&#x2219;" 
d="M277 427q23 0 44 -9t36.5 -24.5t24.5 -36.5t9 -45t-9 -45t-24.5 -36.5t-36.5 -24.5t-44 -9q-24 0 -45 9t-36.5 24.5t-24.5 36.5t-9 45t9 45t24.5 36.5t36.5 24.5t45 9z" />
    <glyph glyph-name="radical" unicode="&#x221a;" horiz-adv-x="580" 
d="M519 840q22 0 35 -14t13 -35q0 -20 -13 -34.5t-35 -14.5h-75l-198 -711q-5 -17 -21 -29t-35 -12q-20 0 -35 11.5t-20 28.5l-119 422q-1 3 -2 7t-1 8q0 23 14.5 36.5t36.5 13.5q17 0 31 -10t19 -27l76 -296l162 612q5 20 22 32t38 12h107z" />
    <glyph glyph-name="infinity" unicode="&#x221e;" horiz-adv-x="805" 
d="M571 422q38 0 69.5 -13.5t54 -37t35 -54.5t12.5 -67t-12.5 -67t-35 -54.5t-54 -37t-69.5 -13.5q-24 0 -47.5 7.5t-45.5 20.5t-41 29.5t-34 34.5q-15 -18 -34.5 -34.5t-41.5 -29.5t-45.5 -20.5t-47.5 -7.5q-38 0 -69.5 13.5t-54 37t-35 54.5t-12.5 67t12.5 67t35 54.5
t54 37t69.5 13.5q24 0 47.5 -7.5t45.5 -20.5t41.5 -29.5t34.5 -34.5q15 18 34 34.5t41 29.5t45.5 20.5t47.5 7.5zM234 332q-32 0 -53.5 -23.5t-21.5 -58.5t21.5 -58.5t53.5 -23.5q18 0 34.5 8t31.5 20.5t27.5 27t21.5 26.5q-9 12 -21.5 26.5t-27.5 27t-31.5 20.5t-34.5 8z
M571 332q-18 0 -34.5 -8t-31.5 -20.5t-27.5 -27t-21.5 -26.5q9 -12 21.5 -26.5t27.5 -27t31.5 -20.5t34.5 -8q32 0 53.5 23.5t21.5 58.5t-21.5 58.5t-53.5 23.5z" />
    <glyph glyph-name="integral" unicode="&#x222b;" 
d="M387 779q23 0 37.5 -13t14.5 -35t-14.5 -35t-37.5 -13q-27 0 -43 -17t-16 -43v-685q0 -76 -42.5 -118.5t-120.5 -42.5q-23 0 -37 13t-14 35q0 21 14 34.5t37 13.5q28 0 44 17t16 43v685q0 76 42.5 118.5t119.5 42.5z" />
    <glyph glyph-name="approxequal" unicode="&#x2248;" 
d="M179 432q29 0 54 -7.5t46 -17.5q23 -11 42.5 -20.5t41.5 -9.5q23 0 41.5 12t33.5 27q12 12 31 12q21 0 34 -12.5t13 -32.5q0 -8 -1.5 -16t-7.5 -17q-21 -31 -54.5 -51t-78.5 -20q-29 0 -54 7.5t-46 17.5q-23 11 -42.5 20.5t-41.5 9.5q-23 0 -41.5 -12t-33.5 -26
q-7 -6 -13.5 -9.5t-17.5 -3.5q-21 0 -34 13t-13 33q0 8 1.5 15t6.5 15q23 32 56 52.5t78 20.5zM179 233q29 0 54 -7.5t46 -17.5q23 -11 42.5 -20.5t41.5 -9.5q23 0 41.5 12t33.5 27q12 12 31 12q21 0 34 -12.5t13 -32.5q0 -8 -1.5 -16t-7.5 -17q-21 -31 -54.5 -51t-78.5 -20
q-29 0 -54 7.5t-46 17.5q-23 11 -42.5 20.5t-41.5 9.5q-23 0 -41.5 -12t-33.5 -26q-7 -6 -13.5 -9.5t-17.5 -3.5q-21 0 -34 13t-13 33q0 8 1.5 15t6.5 15q23 32 56 52.5t78 20.5z" />
    <glyph glyph-name="notequal" unicode="&#x2260;" 
d="M389 517q19 0 34 -11.5t15 -33.5q0 -6 -1 -12t-5 -14l-21 -41h57q21 0 34.5 -14.5t13.5 -34.5q0 -21 -13.5 -35t-34.5 -14h-109l-55 -106h164q21 0 34.5 -14.5t13.5 -34.5q0 -21 -13.5 -35t-34.5 -14h-215l-45 -86q-6 -11 -17.5 -19t-26.5 -8q-19 0 -34 11.5t-15 32.5
q0 14 6 26l22 43h-58q-21 0 -34.5 14t-13.5 35q0 20 13.5 34.5t34.5 14.5h109l56 106h-165q-21 0 -34.5 14t-13.5 35q0 20 13.5 34.5t34.5 14.5h216l44 85q7 14 18.5 20.5t25.5 6.5z" />
    <glyph glyph-name="lessequal" unicode="&#x2264;" 
d="M470 517q25 0 36.5 -15.5t11.5 -34.5q0 -16 -8.5 -28.5t-27.5 -18.5l-251 -82l251 -83q17 -5 26.5 -18t9.5 -29q0 -19 -11.5 -34.5t-36.5 -15.5q-5 0 -15 3l-373 122q-20 6 -30.5 21t-10.5 34q0 18 10.5 33t30.5 21l373 122q9 3 15 3zM469 98q21 0 35 -14.5t14 -34.5
q0 -21 -14 -35t-35 -14h-379q-21 0 -35 14t-14 35q0 20 14 34.5t35 14.5h379z" />
    <glyph glyph-name="greaterequal" unicode="&#x2265;" 
d="M87 517q6 0 15 -3l373 -122q20 -6 30.5 -21t10.5 -33q0 -19 -10.5 -34t-30.5 -21l-373 -122q-11 -3 -15 -3q-25 0 -36.5 15.5t-11.5 34.5q0 16 9.5 29t26.5 18l251 83l-251 82q-19 6 -27.5 18.5t-8.5 28.5q0 19 11.5 34.5t36.5 15.5zM466 98q21 0 35 -14.5t14 -34.5
q0 -21 -14 -35t-35 -14h-379q-21 0 -35 14t-14 35q0 20 14 34.5t35 14.5h379z" />
    <glyph glyph-name="uni2296" unicode="&#x2296;" horiz-adv-x="840" 
d="M421 711q75 0 140.5 -28.5t114 -77t77 -114t28.5 -140.5t-28.5 -141t-77 -114.5t-114 -77t-140.5 -28.5t-141 28.5t-114.5 77t-77 114.5t-28.5 141t28.5 140.5t77 114t114.5 77t141 28.5zM169 301q8 -45 30.5 -84t56 -67.5t75.5 -45t90 -16.5q47 0 89.5 16.5t75.5 45
t55.5 67.5t30.5 84h-503zM421 613q-48 0 -90.5 -16.5t-76 -45t-56 -67.5t-29.5 -85h503q-8 46 -30 85t-55.5 67.5t-76 45t-89.5 16.5z" />
    <glyph glyph-name="uni229F" unicode="&#x229f;" horiz-adv-x="840" 
d="M698 701q29 0 47 -17.5t18 -45.5v-574q0 -29 -18 -46.5t-47 -17.5h-556q-29 0 -47 17.5t-18 46.5v574q0 28 18 45.5t47 17.5h556zM180 301v-203h480v203h-480zM180 603v-204h480v204h-480z" />
    <glyph glyph-name="dotmath" unicode="&#x22c5;" 
d="M277 372q28 0 48.5 -20t20.5 -49q0 -28 -20.5 -48.5t-48.5 -20.5q-29 0 -49.5 20.5t-20.5 48.5q0 29 20.5 49t49.5 20z" />
    <glyph glyph-name="filledbox" unicode="&#x25a0;" horiz-adv-x="840" 
d="M698 701q29 0 47 -17.5t18 -45.5v-574q0 -29 -18 -46.5t-47 -17.5h-556q-29 0 -47 17.5t-18 46.5v574q0 28 18 45.5t47 17.5h556z" />
    <glyph glyph-name="uni25BB" unicode="&#x25bb;" horiz-adv-x="955" 
d="M584 606q9 0 17.5 -2.5t17.5 -12.5l257 -257q16 -16 16 -36q0 -19 -16 -35l-257 -259q-8 -8 -17 -11t-18 -3q-23 0 -37 14.5t-14 35.5q0 9 3.5 18t11.5 17l178 174h-614q-23 0 -36 14t-13 35q0 22 13 36t36 14h614l-178 173q-15 15 -15 35t14 35t37 15z" />
    <glyph glyph-name="uni25C5" unicode="&#x25c5;" horiz-adv-x="955" 
d="M371 606q23 0 36.5 -15t13.5 -35q0 -22 -14 -35l-178 -173h613q23 0 36.5 -14t13.5 -36q0 -21 -13.5 -35t-36.5 -14h-613l178 -174q7 -7 10.5 -16.5t3.5 -18.5q0 -21 -13.5 -35.5t-36.5 -14.5q-22 0 -36 14l-257 259q-15 15 -15 35q0 21 15 36l257 257q14 15 36 15z" />
    <glyph glyph-name="lozenge" unicode="&#x25ca;" 
d="M277 711q32 0 51 -29l188 -297q10 -16 10 -35q0 -18 -9 -33l-189 -299q-19 -28 -51 -28q-35 0 -52 28l-189 298q-5 8 -7 16t-2 18q0 18 9 33l189 299q18 29 52 29zM132 350l145 -232l143 232l-143 232z" />
    <glyph glyph-name="circle" unicode="&#x25cb;" horiz-adv-x="840" 
d="M421 711q75 0 140.5 -28.5t114 -77t77 -114t28.5 -140.5t-28.5 -141t-77 -114.5t-114 -77t-140.5 -28.5t-141 28.5t-114.5 77t-77 114.5t-28.5 141t28.5 140.5t77 114t114.5 77t141 28.5zM421 613q-54 0 -101 -20.5t-82.5 -56t-55.5 -83.5t-20 -102q0 -55 20 -103
t55.5 -83.5t82.5 -56t101 -20.5t101 20.5t82 56t55 83.5t20 103q0 54 -20 102t-55 83.5t-82 56t-101 20.5z" />
    <glyph glyph-name="H18533" unicode="&#x25cf;" horiz-adv-x="840" 
d="M421 711q75 0 140.5 -28.5t114 -77t77 -114t28.5 -140.5t-28.5 -141t-77 -114.5t-114 -77t-140.5 -28.5t-141 28.5t-114.5 77t-77 114.5t-28.5 141t28.5 140.5t77 114t114.5 77t141 28.5z" />
    <glyph glyph-name="uni2610" unicode="&#x2610;" horiz-adv-x="840" 
d="M698 701q29 0 47 -17.5t18 -45.5v-574q0 -29 -18 -46.5t-47 -17.5h-556q-29 0 -47 17.5t-18 46.5v574q0 28 18 45.5t47 17.5h556zM180 603v-505h480v505h-480z" />
    <glyph glyph-name="uni2611" unicode="&#x2611;" horiz-adv-x="840" 
d="M488 701q22 0 35.5 -14t13.5 -35q0 -20 -13.5 -34.5t-35.5 -14.5h-308v-505h480v270q0 23 14.5 37t37.5 14q22 0 36.5 -14t14.5 -37v-304q0 -29 -18 -46.5t-47 -17.5h-556q-29 0 -47 17.5t-18 46.5v574q0 28 18 45.5t47 17.5h346zM752 779q20 0 35 -13t15 -36
q0 -8 -2 -14.5t-7 -14.5l-313 -478q-17 -26 -48 -26t-49 26l-132 201q-8 12 -8 29q0 23 14.5 36.5t34.5 13.5q12 0 23.5 -6t19.5 -17l97 -147l278 423q7 11 18.5 17t23.5 6z" />
    <glyph glyph-name="uni2713" unicode="&#x2713;" horiz-adv-x="776" 
d="M614 711q22 0 37 -13t15 -36q0 -8 -2.5 -16.5t-6.5 -16.5l-263 -604q-16 -35 -54 -35q-36 0 -52 30l-169 319q-4 8 -6.5 16t-2.5 16q0 23 15.5 36t35.5 13q32 0 46 -27l130 -260l231 548q7 16 19.5 23t26.5 7z" />
    <glyph glyph-name="uni2B13" unicode="&#x2b13;" horiz-adv-x="840" 
d="M698 701q29 0 47 -17.5t18 -45.5v-574q0 -29 -18 -46.5t-47 -17.5h-556q-29 0 -47 17.5t-18 46.5v574q0 28 18 45.5t47 17.5h556zM180 603v-252h480v252h-480z" />
    <glyph glyph-name="uniFEFF" unicode="&#xfeff;" horiz-adv-x="0" 
 />
    <glyph glyph-name="gravecomb.case" horiz-adv-x="1" 
d="M-388 922q3 0 6.5 -0.5t8.5 -2.5l123 -52q14 -5 23 -16t9 -28q0 -20 -13.5 -33t-32.5 -13q-3 0 -6.5 0.5t-10.5 3.5l-120 51q-14 5 -23 16t-9 28q0 19 13 32.5t32 13.5z" />
    <glyph glyph-name="acutecomb.case" horiz-adv-x="1" 
d="M-184 922q19 0 32 -13.5t13 -32.5q0 -17 -8.5 -27t-24.5 -17l-119 -51q-9 -4 -17 -4q-19 0 -32.5 13t-13.5 33q0 31 32 44l123 52q7 3 15 3z" />
    <glyph glyph-name="uni0302.case" horiz-adv-x="1" 
d="M-306 922q13 0 25 -6l91 -51q27 -15 27 -42q0 -19 -13.5 -32.5t-33.5 -13.5q-5 0 -9 1t-11 5l-76 45l-76 -45q-11 -6 -20 -6q-20 0 -33 13.5t-13 32.5q0 28 26 42l91 51q12 6 25 6z" />
    <glyph glyph-name="tildecomb.case" horiz-adv-x="1" 
d="M-196 899q21 0 33.5 -13.5t12.5 -30.5q0 -18 -11 -32q-17 -20 -42.5 -33t-55.5 -13q-20 0 -33.5 4.5t-23.5 10t-18 10t-18 4.5q-11 0 -21 -6.5t-21 -15.5q-8 -7 -22 -7q-21 0 -33.5 13.5t-12.5 29.5q0 10 3 16.5t8 14.5q17 22 42.5 35t55.5 13q20 0 33.5 -4.5t23.5 -10
t18 -10t18 -4.5q11 0 20.5 6t20.5 15q9 8 23 8z" />
    <glyph glyph-name="uni0308.case" horiz-adv-x="1" 
d="M-212 902q26 0 43.5 -18t17.5 -42q0 -26 -17.5 -43.5t-43.5 -17.5q-25 0 -42.5 17.5t-17.5 43.5q0 24 17.5 42t42.5 18zM-400 902q25 0 42.5 -18t17.5 -42q0 -26 -17.5 -43.5t-42.5 -17.5t-42.5 17.5t-17.5 43.5q0 24 17.5 42t42.5 18z" />
    <glyph glyph-name="uni030A.case" horiz-adv-x="1" 
d="M-307 980q22 0 42 -8.5t34 -22.5t22.5 -33.5t8.5 -41.5t-8.5 -41.5t-22.5 -34t-34 -23t-42 -8.5t-41.5 8.5t-33.5 23t-22.5 34t-8.5 41.5q0 45 30.5 75.5t75.5 30.5zM-307 918q-18 0 -31 -12.5t-13 -31.5t13 -31.5t31 -12.5q19 0 31.5 12t12.5 32q0 19 -12.5 31.5
t-31.5 12.5z" />
    <glyph glyph-name="uni030C.case" horiz-adv-x="1" 
d="M-210 922q20 0 33.5 -13.5t13.5 -32.5q0 -28 -27 -42l-91 -51q-12 -6 -25 -6t-25 6l-91 51q-26 14 -26 42q0 19 13 32.5t33 13.5q9 0 20 -6l76 -45l76 45q7 4 11 5t9 1z" />
    </font>
</defs>
</svg>
